<svg version="1.2" xmlns="http://www.w3.org/2000/svg" viewBox="0 0 1074 992" width="1074" height="992"><path fill="#efcfa2" d="m566.3 69.6 7.4 1c29 4 58 12.4 85 23.5q2.6 1 5.1 2c9 3.3 17.6 7.2 26.1 11.4q1.1.5 2.2 1.1c27.4 13.3 54.9 29.4 77.4 50.2 2.6 2.3 5.2 4.5 7.9 6.6 4.8 3.9 9.3 7.9 13.8 12q3.2 3 6.6 5.9c4.5 3.9 8.9 8.2 13.1 12.5 1.2 1.1 1.2 1.1 2.4 2.4 4.9 4.9 9.5 9.9 13.8 15.4 2.6 3.3 5.4 6.3 8.3 9.3 1.7 2.3 2.7 4.4 3.6 7.1h2c1.3 1.6 1.3 1.6 2.9 4q1 1.4 1.9 2.8l2.2 3.2q1.3 1.9 2.6 3.7c6 8.7 11.9 17.4 17.4 26.3l1.2 2c6.4 10.2 11.8 20.8 16.8 31.8l2.8 6c13.4 28 23.5 57.9 30.2 88.2q.3 1.2.6 2.5c5 21.9 7.4 44.3 8.7 66.7q0 1 .1 2.1c3.4 59.9-8.1 120.2-30.4 175.7l-1.2 3c-5.1 13-10.8 25.5-17.5 37.7q-2 3.6-3.9 7.2c-4.9 9.2-10.2 18.1-16 26.9q-.9 1.3-1.8 2.8-.9 1.2-1.7 2.5-.8 1.1-1.6 2.3-.6.8-1.3 1.6h-2q-.4 1-.7 2.1c-1.5 3.4-3.5 6-5.7 8.9q-.7.8-1.4 1.7c-3.6 4.6-7.4 9.1-11.2 13.6-3.6 4.2-7.1 8.6-10.4 13q-.8.8-1.6 1.7h-2q-.4.8-.7 1.7c-1.6 2.8-3.5 4.8-5.8 7q-1.4 1.4-2.7 2.8-.8.7-1.5 1.4l-4.2 4.2c-5.2 5.2-10.5 10.2-16.1 14.9q-1.6 1.4-3.2 2.7-11.1 9.6-22.8 18.3-1 .7-2 1.5c-11.3 8.4-23 16.2-35 23.5q-1.1.7-2.3 1.4c-11.9 7.2-24.2 13.5-36.8 19.3l-5.6 2.6c-43.1 20.2-90.9 31.9-138.3 35.7q-1.9.2-3.8.3c-44.1 3.3-88.3-1.2-131.2-11.3q-1.5-.3-3-.7c-26.3-6.1-51.6-15.8-76-27.3-1.4-.7-1.4-.7-2.9-1.3-26.1-12.5-50.5-27.8-73.5-45.4q-2-1.6-4.1-3.2c-5.4-4.1-10.5-8.4-15.5-12.8-.9-.8-.9-.8-1.8-1.5q-.8-.7-1.6-1.5c-1.5-1.2-3-2.4-4.5-3.5q-1-.9-2.1-1.8v-2h-2v-2h-2v-2h-2v-2q-.8-.3-1.7-.7c-3-1.7-5.1-3.9-7.6-6.4q-.7-.8-1.5-1.5-4.9-5-9.4-10.3c-3-3.4-6-6.7-9.1-10-1.7-2.1-1.7-2.1-1.7-4.1h-2c-1.7-2-3.3-4-4.9-6.1q-.8-.9-1.5-1.9l-4.6-6-1.4-1.8c-39.1-51.7-63.3-109-77-172.2q-.3-1.6-.7-3.3c-2.4-11.7-4-23.4-5-35.3-.1-1.5-.1-1.5-.2-3.1-2.5-32.3-2.4-64.2 2.3-96.3q.2-1.7.5-3.5c10.1-68.6 36.8-132.1 77.7-188.1 1.8-2.3 1.8-2.3 2.8-4.4h2q.3-1 .7-2.1c1.6-3.6 3.9-6.3 6.5-9.2q.7-.9 1.5-1.7 2.1-2.5 4.3-5c1.1-1.2 1.1-1.2 2.2-2.5q1.7-2 3.5-3.9c1.5-1.8 1.5-1.8 3.3-4.6h2q.3-.8.7-1.7c1.7-3 3.8-5 6.2-7.5q.8-.7 1.5-1.5 1.6-1.5 3.1-3l4.7-4.7q8.1-8.1 16.8-15.6 1.6-1.4 3.3-2.9c8.6-7.5 17.5-14.4 26.7-21.1q1-.7 2.1-1.5c53.3-38.7 114.7-63.9 179.7-74.6 1.6-.2 1.6-.2 3.1-.5 40.1-6.4 82.3-6.7 122.4-.8"/><path fill="#b08137" d="m566.3 70.6 7.4 1c29 4 58 12.4 85 23.5q2.6 1 5.1 2c9 3.3 17.6 7.2 26.1 11.4q1.1.5 2.2 1.1c27.4 13.3 54.9 29.4 77.4 50.2 2.6 2.3 5.2 4.5 7.9 6.6 4.8 3.9 9.3 7.9 13.8 12q3.2 3 6.6 5.9c4.5 3.9 8.9 8.2 13.1 12.5 1.2 1.1 1.2 1.1 2.4 2.4 4.9 4.9 9.5 9.9 13.8 15.4 2.6 3.3 5.4 6.3 8.3 9.3 1.7 2.3 2.7 4.4 3.6 7.1h2c1.3 1.6 1.3 1.6 2.9 4q1 1.4 1.9 2.8l2.2 3.2q1.3 1.9 2.6 3.7c6 8.7 11.9 17.4 17.4 26.3l1.2 2c6.4 10.2 11.8 20.8 16.8 31.8l2.8 6c13.4 28 23.5 57.9 30.2 88.2q.3 1.2.6 2.5c5 21.9 7.4 44.3 8.7 66.7q0 1 .1 2.1c3.4 59.9-8.1 120.2-30.4 175.7l-1.2 3c-5.1 13-10.8 25.5-17.5 37.7q-2 3.6-3.9 7.2c-4.9 9.2-10.2 18.1-16 26.9q-.9 1.3-1.8 2.8-.9 1.2-1.7 2.5-.8 1.1-1.6 2.3-.6.8-1.3 1.6h-2q-.4 1-.7 2.1c-1.5 3.4-3.5 6-5.7 8.9q-.7.8-1.4 1.7c-3.6 4.6-7.4 9.1-11.2 13.6-3.6 4.2-7.1 8.6-10.4 13q-.8.8-1.6 1.7h-2q-.4.8-.7 1.7c-1.6 2.8-3.5 4.8-5.8 7q-1.4 1.4-2.7 2.8-.8.7-1.5 1.4l-4.2 4.2c-5.2 5.2-10.5 10.2-16.1 14.9q-1.6 1.4-3.2 2.7-11.1 9.6-22.8 18.3-1 .7-2 1.5c-11.3 8.4-23 16.2-35 23.5q-1.1.7-2.3 1.4c-11.9 7.2-24.2 13.5-36.8 19.3l-5.6 2.6c-43.1 20.2-90.9 31.9-138.3 35.7q-1.9.2-3.8.3c-44.1 3.3-88.3-1.2-131.2-11.3q-1.5-.3-3-.7c-26.3-6.1-51.6-15.8-76-27.3-1.4-.7-1.4-.7-2.9-1.3-26.1-12.5-50.5-27.8-73.5-45.4q-2-1.6-4.1-3.2c-5.4-4.1-10.5-8.4-15.5-12.8-.9-.8-.9-.8-1.8-1.5q-.8-.7-1.6-1.5c-1.5-1.2-3-2.4-4.5-3.5q-1-.9-2.1-1.8v-2h-2v-2h-2v-2h-2v-2q-.8-.3-1.7-.7c-3-1.7-5.1-3.9-7.6-6.4q-.7-.8-1.5-1.5-4.9-5-9.4-10.3c-3-3.4-6-6.7-9.1-10-1.7-2.1-1.7-2.1-1.7-4.1h-2c-1.7-2-3.3-4-4.9-6.1q-.8-.9-1.5-1.9l-4.6-6-1.4-1.8c-39.1-51.7-63.3-109-77-172.2q-.3-1.6-.7-3.3c-2.4-11.7-4-23.4-5-35.3-.1-1.5-.1-1.5-.2-3.1-2.5-32.3-2.4-64.2 2.3-96.3q.2-1.7.5-3.5c10.1-68.6 36.8-132.1 77.7-188.1 1.8-2.3 1.8-2.3 2.8-4.4h2q.3-1 .7-2.1c1.6-3.6 3.9-6.3 6.5-9.2q.7-.9 1.5-1.7 2.1-2.5 4.3-5c1.1-1.2 1.1-1.2 2.2-2.5q1.7-2 3.5-3.9c1.5-1.8 1.5-1.8 3.3-4.6h2q.3-.8.7-1.7c1.7-3 3.8-5 6.2-7.5q.8-.7 1.5-1.5 1.6-1.5 3.1-3l4.7-4.7q8.1-8.1 16.8-15.6 1.6-1.4 3.3-2.9c8.6-7.5 17.5-14.4 26.7-21.1q1-.7 2.1-1.5c53.3-38.7 114.7-63.9 179.7-74.6 1.6-.2 1.6-.2 3.1-.5 40.1-6.4 82.3-6.7 122.4-.8M433 178q-1.2.3-2.5.6c-50.4 12.6-95.6 37.4-133.6 72.8q-3.8 3.4-7.7 6.8c-3.4 3-6.5 6.2-9.4 9.7-1.9 2.2-3.9 4.4-5.9 6.5-32.7 36.4-54.7 80.8-67.9 127.6q-.3 1.2-.7 2.3c-6.6 24.2-8.5 49.5-8.4 74.5v16.8c0 3.4 0 6.2 1.1 9.4q.3 2.9.5 5.9c1.1 14.6 4.3 28.8 7.5 43.1q.3 1.2.5 2.3c10.9 47.6 36.1 91.8 68.1 128.1q1.5 1.7 3 3.6.8.9 1.6 1.9.7.9 1.5 1.8c1.2 1.5 1.2 1.5 3.3 1.3v2c1.5 1.5 1.5 1.5 3.5 3.1 2.9 2.5 5.7 5 8.3 7.8 3.8 3.8 7.9 7.2 12.1 10.6q3.3 2.6 6.4 5.3c10 8.3 20.6 15.4 31.7 22.2 1.2.8 1.2.8 2.5 1.5 32 19.6 67.7 32.4 104.4 39.2l3.4.6c16.3 2.9 32.5 4 49.1 4q3.9-.1 7.9 0c17 0 33.6-1.5 50.2-5.1l3.8-.8q3.7-.8 7.4-1.7l8.6-1.8c37.9-8.4 75.8-27.7 106.7-50.9.8-.6.8-.6 1.7-1.3 6.5-4.8 12.8-9.9 18.8-15.4q3.1-2.8 6.2-5.5c11.4-9.9 22.1-20.8 31.3-32.8 1.2-1.5 1.2-1.5 2.5-3 44-54 65.7-121 65.8-190.1v-3.3c-.1-16.7-.5-33.1-3.3-49.6q-.2-1.4-.5-2.9c-1.4-8.2-3.1-16.1-5.8-23.9-.9-2.7-1.5-5.4-2.2-8.2-8.9-35.9-27.1-70.8-49.5-100l-1.2-1.6c-7.3-9.7-15.3-18.7-23.8-27.4-1-1-1-1-2-2.1-7.1-7.3-14.2-14.5-22.3-20.7-2.6-2.1-5.2-4.3-7.8-6.5-5.6-4.5-11.4-8.7-17.5-12.6q-1.5-1.1-3.1-2.1c-8.9-5.8-17.9-11.2-27.3-16l-2.4-1.2c-21.8-11.1-44.9-19.2-68.6-25.3l-4-1c-23.4-6.1-47-6.8-71.1-6.9q-1.7-.1-3.5-.1c-22.9-.2-45.1 2.9-67.4 8.5"/><path fill="#46a18a" d="M811.5 779.7q-1.4 1.4-2.7 2.8-.8.7-1.5 1.4l-4.2 4.2c-5.2 5.2-10.5 10.2-16.1 14.9q-1.6 1.4-3.2 2.7-11.1 9.6-22.8 18.3-1 .7-2 1.5c-11.3 8.4-23 16.2-35 23.5q-1.1.7-2.3 1.4c-11.9 7.2-24.2 13.5-36.8 19.3l-5.6 2.6c-43.1 20.2-90.9 31.9-138.3 35.7q-1.9.2-3.8.3c-44.1 3.3-88.3-1.2-131.2-11.3q-1.5-.3-3-.7c-26.3-6.1-51.6-15.8-76-27.3-1.4-.7-1.4-.7-2.9-1.3-26.1-12.5-50.5-27.8-73.5-45.4q-2-1.6-4.1-3.2c-5.4-4.1-10.5-8.4-15.5-12.8-.9-.8-.9-.8-1.8-1.5q-.8-.7-1.6-1.5c-1.5-1.2-3-2.4-4.5-3.5q-1-.9-2.1-1.8c0-.7-6.2-6.5-8.1-8.2-2.6-2.3-4.7-4.4-7.2-6.9q-.7-.8-1.5-1.5-4.9-5-9.4-10.3c-3-3.4-6-6.7-9.1-10-1.7-2.1-7-8.1-8.6-10.2q-.8-.9-1.5-1.9l-4.6-6-1.4-1.8c-39.1-51.7-63.3-109-77-172.2q-.3-1.6-.7-3.3c-2.4-11.7-4-23.4-5-35.3-.1-1.5-.1-1.5-.2-3.1-2.5-32.3-2.4-64.2 2.3-96.3q.2-1.7.5-3.5c10.1-68.6 36.8-132.1 77.7-188.1 1.8-2.3 1.5-2.4 2.8-4.4s6.6-8.4 9.2-11.3q.7-.9 1.5-1.7 2.1-2.5 4.3-5c1.1-1.2 1.1-1.2 2.2-2.5q1.7-2 3.5-3.9c1.5-1.8 1.5-1.8 3.3-4.6.7 0 6.5-6.7 8.9-9.2q.8-.7 1.5-1.5 1.6-1.5 3.1-3l4.7-4.7q8.1-8.1 16.8-15.6 1.6-1.4 3.3-2.9c8.6-7.5 17.5-14.4 26.7-21.1q1-.7 2.1-1.5c53.3-38.7 114.7-63.9 179.7-74.6 1.6-.2 1.6-.2 3.1-.5 40.1-6.4 82.3-6.7 122.4-.8l7.4 1c29 4 58 12.4 85 23.5q2.6 1 5.1 2c9 3.3 17.6 7.2 26.1 11.4q1.1.5 2.2 1.1c27.4 13.3 54.9 29.4 77.4 50.2 2.6 2.3 5.2 4.5 7.9 6.6 4.8 3.9 9.3 7.9 13.8 12q3.2 3 6.6 5.9c4.5 3.9 8.9 8.2 13.1 12.5 1.2 1.1 1.2 1.1 2.4 2.4 4.9 4.9 9.5 9.9 13.8 15.4 2.6 3.3 5.4 6.3 8.3 9.3 1.7 2.3 4.9 7.1 5.6 7.1 1.3 1.6 1.3 1.6 2.9 4q1 1.4 1.9 2.8l2.2 3.2q1.3 1.9 2.6 3.7c6 8.7 11.9 17.4 17.4 26.3l1.2 2c6.4 10.2 11.8 20.8 16.8 31.8l2.8 6c13.4 28 23.5 57.9 30.2 88.2q.3 1.2.6 2.5c5 21.9 7.4 44.3 8.7 66.7q0 1 .1 2.1c3.4 59.9-8.1 120.2-30.4 175.7l-1.2 3c-5.1 13-10.8 25.5-17.5 37.7q-2 3.6-3.9 7.2c-4.9 9.2-10.2 18.1-16 26.9q-.9 1.3-1.8 2.8-.9 1.2-1.7 2.5-.8 1.1-1.6 2.3-.6.8-1.3 1.6c-.7 0-6.2 8.1-8.4 11q-.7.8-1.4 1.7c-3.6 4.6-7.4 9.1-11.2 13.6-3.6 4.2-7.1 8.6-10.4 13-.6.5-7.8 8.2-10.1 10.4m-33.2-20.8c1.2-1.2 1.2-1.2 2.5-2.4q1.2-1.3 2.5-2.6l2.5-2.5c5-5 9.7-10.1 14.2-15.4l1.4-1.6c9.2-10.6 17.9-21.5 25.6-33.3q2.1-3.2 4.3-6.4c12.5-18.2 22.4-37.6 31.4-57.8l2.6-5.6c3.5-7.5 6.4-15.3 9-23.2q.4-1.1.7-2.2c7.7-22.9 13-46.9 16-70.9.1-1.1.1-1.1.3-2.3 1.9-15.6 2.9-31.2 2.9-46.9v-2.2c1.3-23 .9-25.5-2-43.6-.4-2.3-1.6-5.5-1.7-7.8-.6-2.6-1.2-4.2-2-8.3-1.8-9-2.3-17.8-4.4-26.8-.3-1-.3-1-.5-2-3.6-15-8.4-29.5-13.6-44.1q-.5-1.4-1-2.9c-11.1-32.1-28.1-62.6-48-90.1-.7-1-.7-1-1.5-2-5.8-8.2-11.9-15.9-18.8-23.2-2.1-2.1-4-4.3-5.9-6.6-10.2-11.7-21.5-22.8-33.8-32.2l-3.2-2.6c-22.3-17.9-46.2-32.7-71.8-45.4-1.2-.6-1.2-.6-2.5-1.3-11.5-5.7-23.2-10.5-35.2-14.9q-3.1-1.1-6.2-2.3c-1-.3-1-.3-2-.7l-4.6-1.8c-7.1-2.6-14.3-4.6-21.7-6.4q-1.8-.5-3.7-.9c-27.6-6.8-55.1-11.7-83.7-12h-3.5c-38.8-.3-75.3 2.6-112.9 12.3l-3 .8c-65.8 17-125.9 53.8-173.7 101.8l-2.7 2.7c-5.1 5.1-10 10.2-14.6 15.7q-.8.9-1.6 1.9C181.9 279.2 157 322.8 140 370q-.4 1.1-.8 2.1c-13.2 35.8-18.5 74-19.2 111.9q0 1.3-.1 2.6c-.6 27.7 2.2 55.6 9.1 82.4l1.2 5.8c5.9 28.2 16.3 55.9 29.8 81.4q1.6 2.9 3.1 5.9c8.5 16.5 18.3 32 29.4 46.9q2 2.7 3.9 5.3c10.1 13.8 21.4 26.8 33.6 38.7q4 4 7.9 8c6.7 6.8 13.6 13.1 21.1 19l5 4.2c46.8 38.2 106.7 69.1 167 77.8q2.5.5 4.9 1c23.8 4.8 47.1 6.4 71.3 6.3q5.9 0 11.8.1c13.6 0 26.6-.6 40-3.1 3.1-.5 6.2-.8 9.3-1.2 28.4-3.8 59.8-11.9 85.7-24.2q4.7-2.2 9.4-4.3c14.4-6.4 28-13.6 41.6-21.6l2.4-1.4c12.2-7.1 23.4-15.1 34.6-23.6q1-.7 2-1.5c7.1-5.4 13.8-11 20.3-17.1 3.5-3.3 11.9-10.3 14-12.5"/><path fill="#5fbca4" d="M515.7 347.6q1.1.7 2.3 1.4 1.6.9 3.2 1.9c10.2 7.8 18.1 16 20.8 29.1l.6 7.2q.1 1.9.2 3.9c.1 1.4.1 1.4.2 2.9h1.8l43.7.2q10.5 0 21.1.1 10.2 0 20.4.1h7.8c17.5 0 31.3.4 46.2 10.6q1.3.9 2.7 1.7c9.3 9.1 15.1 21.6 15.6 34.7v33.3q0 7.8.1 15.5v17.7c.1 16.8-1.9 29.8-13.8 42.8-11.6 10.8-22.2 13.6-37.7 13.5h-23.3q-9.6 0-19.1-.1h-21.8q-22.3 0-44.7-.1 0 1.5.1 3.1v4q.1 1 .1 2c.1 10.9-5.8 22.3-13.2 30.1-11.8 10.5-24.5 13.7-40 12.8-9.1-1.2-15.6-4.7-23-10l-4-2.8-13-9.2q-.9-.7-1.9-1.3-3.4-2.5-6.8-4.9-8-5.7-16-11.3-6.6-4.7-13.1-9.4l-17-12q-20.7-14.4-41.1-29.1-3.7-2.7-7.4-5.3c-11.4-7.9-18.8-17.4-23.4-30.6-2.1-13.5.3-25.1 7.4-36.9 7.3-10 18-16.6 28.1-23.6 4.8-3.3 9.5-6.7 14.3-10.2q9.1-6.6 18.4-12.9c9.3-6.3 18.4-12.9 27.5-19.5 9.3-6.7 18.5-13.4 28-19.9q5.3-3.6 10.4-7.3c15-10.8 15-10.8 22.6-13.8q1.3-.5 2.6-1.1c10.8-2.9 24.1-2.3 34.1 2.7"/><path fill="#ecae76" d="M813 446c4 5.9 3.2 13 3.2 19.9v20c.1 12.5-.5 24.7-2.2 37.1l-.4 2.8c-.7 5.4-1.6 10.8-2.6 16.2q-.2 1.2-.4 2.5c-5 26.7-15.5 52.3-27.6 76.5q-.7 1.3-1.3 2.7c-9.4 18.4-21.2 35.7-34.7 51.3q-1.2 1.5-2.5 3.1c-12 14.5-25.5 28.4-40.5 39.9q-2.6 2.2-5.1 4.3c-28.4 23.1-61.4 39.8-95.9 51.7l-2.8 1c-8 2.8-16.1 4.7-24.3 6.6q-1 .2-2.1.4c-21.8 4.9-42.7 7.2-65 7.3H506c-15.2-.1-30-.8-45-3.3q-1.6-.3-3.2-.5c-49.9-8.3-97.9-28.3-137.8-59.5q-1.7-1.3-3.3-2.5c-8.5-6.5-16.2-13.5-23.9-20.9-2.4-2.2-5-4.3-7.5-6.3q-.6-.7-1.3-1.3v-2h-2c-1.3-1.2-1.3-1.2-2.8-3.1-2.3-2.7-4.7-5.5-7.1-8.1-11.8-13.3-22.2-27.5-31-43q-1.7-2.8-3.3-5.5c-10.8-18.6-18.9-38-25.8-58.3q-.6-1.6-1.1-3.3c-.6-1.7-.6-1.7-1.2-3.3l-1-3c-.7-2.4-.7-2.4-.7-4.4h2q-.7-3.8-1.3-7.5-.2-1.1-.4-2.3-1-5.7-2.1-11.3l-.4-2q-.5-2.7-1.1-5.4-.3-2.3-.7-4.5-.3-1.6-.5-3.2c-1.7-11.3-1.8-22.5-1.7-33.9v-18.8q0-1.3.1-2.7V467c.1-2 .1-2 1.1-5h2q.3 1.5.7 3.1c1.7 7.9 3.7 15.6 6.2 23.2q.4 1 .7 2.1c12 35.1 30.8 68.3 55 96.5 3.4 3.9 3.4 3.9 3.4 6.1h2c5 5.5 5 5.5 5 8h2c1.6 1.6 1.6 1.6 3.4 3.8 1.8 2.3 3.5 4.1 5.8 5.8l1.8 1.4v2l1.6.6c3.4 1.9 6 4.6 8.7 7.2 3.4 3.3 6.7 6.3 10.6 9q1.5 1.1 3.1 2.2v2q1.1.4 2.1.7c3.3 1.5 5.8 3.3 8.6 5.5 4.4 3.5 8.9 6.5 13.7 9.3q3.7 2.1 7.2 4.3C385.2 678 427.4 692.3 472 698q1 .1 2 .3c6 .7 11.9.9 17.9.9 1.6.1 1.6.1 3.2.1 48.6.3 96.4-5.6 140.3-28 2.6-1.3 2.6-1.3 4.6-1.3l1-2c3.1-.6 3.1-.6 6-1v-2l2.6-.8c8.5-3 16.2-8.6 23.7-13.5l5.4-3.4c6.5-4 12.6-8.3 18.6-13q1.7-1.3 3.5-2.7c10.1-7.7 19.2-16.3 28.2-25.3l1.6-1.6c9.4-9.3 17.8-19.3 25.7-30q.7-.9 1.4-1.9 2.2-2.9 4.3-5.8.7-1 1.4-1.9c2.4-3.3 4.1-6.3 5.6-10.1l4-5c20.7-30.2 34.3-68 40-104"/><path fill="#966728" d="M276 712c-20.9-21.7-38.2-50.6-50-78-.5-1.1-.5-1.1-1-2.3-7.4-16.7-13-33.7-17.4-51.4q-.8-3.2-1.7-6.3c-2.4-9.2-3.8-18.5-5.2-27.9q-.2-1.8-.5-3.7c-.9-7.2-1.4-14.1-1.2-21.4 1.9 3.3 2.6 6.5 3.4 10.2q.3 1.8.7 3.7t.8 3.9c11 54.6 35.4 110.5 75.9 150 2.2 2.2 3.6 5.2 5.6 6.7 2.9 2.2 5.7 4.5 8.2 7.1 5.4 5.6 11.2 10.5 17.4 15.4q1.7 1.4 3.3 2.8c10 8.3 20.6 15.4 31.7 22.2 1.2.8 1.2.8 2.5 1.5 32 19.6 67.7 32.4 104.4 39.2l3.4.6c16.3 2.9 32.5 4 49.1 4q3.9-.1 7.9 0c17 0 33.6-1.5 50.2-5.1l3.8-.8q3.7-.8 7.4-1.7l8.6-1.8c37.9-8.4 75.8-27.7 106.7-50.9.8-.6.8-.6 1.7-1.3 6.5-4.8 12.8-9.9 18.8-15.4q3.1-2.8 6.3-5.6c11-9.6 21.3-20.1 30.2-31.7q1.2-1.5 2.5-3c30-36.8 51.7-82.4 60.5-129q.3-1.5.6-2.9c4.5-24.9 5.6-49.9 6.4-75.1h1c7.7 50.1 2.4 101-13.9 148.8-.6 1.8-.6 1.8-1.3 3.6-4 11.7-8.7 23.1-14.6 34q-.7 1.2-1.3 2.4-1.9 3.6-3.9 7.2l-1.2 2.2c-8.2 15.2-17.9 29.3-28.8 42.8-1.2 1.5-1.2 1.5-2.4 3.1-6.8 8.2-14.2 15.7-21.7 23.2q-.7.8-1.5 1.6c-9.1 9.2-18.9 17.4-29.3 25.2q-1.1.7-2.1 1.5c-24.8 18.4-52 32.7-81 43.4-1.2.5-1.2.5-2.5.9-27 9.9-56.3 16.2-85.2 16.3h-26.7q-1.5 0-3.1.1-1.4-.1-2.8-.1h-2.6c-2.1-.2-7.7-1-16.1-2.2-35.1-5-72.7-14.3-104-30q-1-.5-2.1-1c-20.3-9.9-38.9-23.1-56.1-37.6l-4.6-3.6c-10-7.8-23.8-24-33.2-33.8"/><path fill="#46a18a" d="M515.7 347.6q1.1.7 2.3 1.4 1.6.9 3.2 1.9c10.2 7.8 18.1 16 20.8 29.1l.6 7.2q.1 1.9.2 3.9c.1 1.4.1 1.4.2 2.9h1.8l43.7.2q10.5 0 21.1.1 10.2 0 20.4.1h7.8c17.5 0 31.3.4 46.2 10.6q1.3.9 2.7 1.7c9.3 9.1 15.1 21.6 15.6 34.7v33.3q0 7.8.1 15.5v17.7c.1 16.8-1.9 29.8-13.8 42.8-11.6 10.8-22.2 13.6-37.7 13.5h-23.3q-9.6 0-19.1-.1h-21.8q-22.3 0-44.7-.1 0 1.5.1 3.1v4q.1 1 .1 2c.1 10.9-5.8 22.3-13.2 30.1-11.8 10.5-24.5 13.7-40 12.8-9.1-1.2-15.6-4.7-23-10l-4-2.8-13-9.2q-.9-.7-1.9-1.3-3.4-2.5-6.8-4.9-8-5.7-16-11.3-6.6-4.7-13.1-9.4l-17-12q-20.7-14.4-41.1-29.1-3.7-2.7-7.4-5.3c-11.4-7.9-18.8-17.4-23.4-30.6-2.1-13.5.3-25.1 7.4-36.9 7.3-10 18-16.6 28.1-23.6 4.8-3.3 9.5-6.7 14.3-10.2q9.1-6.6 18.4-12.9c9.3-6.3 18.4-12.9 27.5-19.5 9.3-6.7 18.5-13.4 28-19.9q5.3-3.6 10.4-7.3c15-10.8 15-10.8 22.6-13.8q1.3-.5 2.6-1.1c10.8-2.9 24.1-2.3 34.1 2.7m-51.8 20.9c-4.8 3.5-9.7 6.8-14.6 10.1q-9.5 6.5-18.7 13.3-6.9 5.1-13.9 10-8.8 6.2-17.5 12.5-9.7 7-19.5 13.8-11.85 8.25-23.7 16.8c-1.3.9-1.3.9-2.6 1.9-7.8 5.7-13.6 12.4-15.4 22.1-1 10.1.3 18.6 6.6 26.7 3.9 4.2 8.7 7.1 13.4 10.3q3.9 2.8 7.9 5.6 8.2 5.8 16.5 11.6 10.9 7.6 21.7 15.4 9.2 6.6 18.6 13 9.5 6.5 18.7 13.3c5.4 4 10.8 7.8 16.3 11.7q5.2 3.6 10.2 7.2 1 .7 1.9 1.4 2.5 1.8 5.1 3.6c8.9 6.2 16.1 8.6 27.1 7.2 9.2-3.2 16.5-7.5 21.2-16.2 2.7-5.9 3.2-11.4 3.5-17.8.6-5.9 2.7-10.1 7.3-14 3.2-2.2 4.1-2.3 7.9-2.3h29.5q17.1-.1 34.2-.1h18.9q5-.1 10-.1 5.6.1 11.2 0h3.3c10.3-.1 19-2.8 27-9.4 7.2-7.5 10.3-16.2 10.3-26.4v-28q0-7.5.1-15v-27.3c-.1-9.2-3.5-17.3-9.4-24.4-8.3-7.9-16.8-9.4-28-9.4h-3.6q-3.8 0-7.6.1-6 0-12.1-.1h-32.2q-10.6.1-21.3 0H551c-1.7 0-1.7 0-3.4.1-6.7-.1-11.4-1.2-16.6-5.7-3.7-4.9-4.1-9.3-4.4-15.3-.7-9.2-3.2-15.9-9.6-22.7-8.2-6.8-16-8.6-26.5-8.4-10.4 1.1-18.5 8.9-26.6 14.9"/><path fill="#e9f5fd" d="M290.1 312.3c.9-1.6 5-6.1 6.9-8.3 1.2-1.4 9.8-10.5 10.3-11.3 2.1-3.4 9.2-8.7 9.8-9.1 2.5-1.9 17.7-13.3 21.2-15.2q3-1.6 5.9-3.3C356.5 258 372 252.4 387 255c2.1.4 3.4 3.6 3.3 4.5-1.2 8.3-5.4 12.8-11.2 18.9l-1.4 1.6q-2.3 2.5-4.7 5-2.8 3-5.5 5.9l-3.6 3.8c-3.5 3.7-6.7 7.4-9.9 11.3q-6.15 7.2-12.6 14.1l-1.6 1.8c-2.4 2.6-4.9 5.2-7.4 7.6-2.7 2.8-5.2 5.7-7.7 8.6q-.7.9-1.5 1.8c-3.5 4.2-6.7 8.5-9.9 13-4.7 6.4-9.7 12.6-14.6 18.9q-2.3 3-4.7 6.1c-18.1 23.4-18.1 23.4-24.6 24.5-2.4-.4-2.4-.4-4.2-2.2-6.4-11.3-1.1-28 2.1-39.6 2.7-9.5 8.1-17.7 11.4-26.9 1.1-3.2 10.3-19.5 11.4-21.4"/><path fill="#deba77" d="M525.1 96h4.9c70.9.3 146.8 31.4 203 73l2.2 1.6c13.4 10 25.9 20.6 38.1 32q1.1 1.1 2.3 2.1 1 1 2.1 2l1.8 1.8c1.5 1.5 1.5 1.5 2.5 3.5-4-1.6-6.8-4.5-9.9-7.4-6.7-6.4-13.7-12.1-21.1-17.6q-1-.8-2.1-1.6c-16.1-12-33.1-22.9-50.9-32.4-1.2-.6-1.2-.6-2.4-1.3-17.7-9.3-36.1-17-54.9-23.7l-5.4-2c-7-2.7-14.2-4.6-21.5-6.4q-1.8-.5-3.7-.9c-27.6-6.8-55.1-11.7-83.7-12h-3.5c-38.8-.3-75.3 2.6-112.9 12.3l-3 .8c-65.5 16.9-125.6 53.5-173.2 101.3q-1.3 1.2-2.6 2.5c-4.9 5-9.7 10-14.2 15.4q-.8.9-1.6 1.9C182.9 279.2 158 322.8 141 370q-.4 1.1-.8 2.1c-11.4 31-15.8 63.3-19.2 95.9h-1c-.2-9.1.4-17.9 1.4-26.9q.2-1.9.4-3.9c7.1-69.3 34.7-135.8 78.2-190.2q1.1-1.4 2.2-2.7 3.4-4.2 6.8-8.3.6-.7 1.3-1.5c7.4-8.9 15.2-17.3 23.4-25.5l5.6-5.6c8.1-8 16.3-15.5 25.5-22.2 3.1-2.3 6-4.7 8.8-7.2 25.2-22.1 54.2-38.8 86.1-48.9 3.1-1 5.9-2.2 8.8-3.6 29.4-13.8 64.4-20 96.5-23.5q1.4-.2 2.8-.3c19-2.1 38.1-2 57.3-1.7"/><path fill="#dab978" d="M523.1 95.9q4.7.1 9.4.1c70.1 1.1 144.9 31.8 200.5 73l2.2 1.6c13.4 10 25.9 20.6 38.1 32q1.1 1.1 2.3 2.1c1 1 1 1 2.1 2l1.8 1.8c1.5 1.5 1.5 1.5 2.5 3.5-4-1.6-6.8-4.5-9.9-7.4-6.7-6.4-13.7-12.1-21.1-17.6q-1-.8-2.1-1.6c-16.1-12-33.1-22.9-50.9-32.4q-1.2-.6-2.4-1.3c-17.7-9.3-36.1-17-54.9-23.7l-5.4-2c-7-2.7-14.2-4.6-21.5-6.4q-1.8-.5-3.7-.9c-27.6-6.8-55.1-11.7-83.7-12h-3.5c-34.2-.3-67 1.4-100.3 9.4-6.7 1.6-12.4 2.3-19.2 1.9-10.7-.1-21.8 2.6-32 5.4-2.5.6-4.8.7-7.4.6 41.9-27.9 110.3-29 159.1-28.1"/><path fill="#b9efe1" d="M445.1 401.6c2.7.1 5.8 3.8 6.1 6.5-.7 8.5-9.4 13.5-15.6 18.8-39.7 33.1-40.5 30.7-58.3 33.5-1.5.2-4.2-.1-4.6-4.9-1-9.3 7.2-11.9 13.9-17.9l4.4-3.6q1.7-1.4 3.3-2.8c36.8-30.2 40.9-30 50.8-29.6"/><path fill="#f2dfb6" d="M284.2 165.4q2.6-2 5.1-4c17.7-13.7 37.8-24.5 58.7-32.4l2-.8c19.2-7.3 41.4-11.9 62-11.2-2.2 2.2-3 2.4-5.9 3.2q-1.2.3-2.5.7-1.3.3-2.7.7c-58.5 16.2-111 47.9-155.9 88.4l-2-1c4.4-6 8.9-11.9 13.4-17.8l2-2.4 1.6-1.8c.7 0 16.8-16 24.2-21.6"/><path fill="#b9efe1" d="M571.6 414.6h6.8c7.8 0 15.3.4 22.9 1.8q1.1.1 2.1.3c5.5 1.1 9.3 2.9 13.6 6.3-.4 1.9-.4 1.9-1 4-11.4 7.5-26.6 7.3-39.7 7.3h-2.2c-9.1 0-17.9-.2-26.8-2.1q-1.1-.2-2.3-.4c-4.8-1.1-8.1-2.9-12-5.8.1-2.3.1-2.3 1-5 11.8-5.9 24.7-6.5 37.6-6.4m-86.5-37.2c2.4 3.3 2.7 5.3 2.4 9.3-1.1 4.9-4.4 7.8-8.4 10.6-4.8 2.8-9.6 3.7-15.1 2.7-2.6-1.4-2.6-1.4-4-4-1-4.2-.9-7.5 1.4-11.3 6.2-7.5 14.2-11.7 23.7-7.3m164.7 38.9c4.9 2.6 4.9 2.6 6.2 4.7.5 2.9.5 2.9 0 6-2.9 3.5-5 5.8-9.6 6.3-9.5.3-9.5.3-13.1-2.3-2.2-2.9-2.7-3.7-3-7.1.7-3.9.7-3.9 3-6.3 5.6-3.3 10.4-3.4 16.5-1.3"/><path fill="#f4dba8" d="m285 174 2 2-5.8 4.6q-.8.6-1.7 1.3c-1.4 1.1-3 2.1-4.5 3.1l-3-1 3-1v-2c2.2-1.7 2.2-1.7 5-3.6q1.4-1 2.8-1.9c1.1-.8 1.1-.8 2.2-1.5"/><path fill="#e7b67f" d="M203 462h2c.3 3 .7 5.9 1 9h-2l-1 2z"/><path fill="#ecb881" d="m622 677 2 1c-2.5 2.7-4.6 4.6-8 6 .2-1.8.2-1.8 1-4 2.4-1.8 2.4-1.8 5-3"/></svg>