<svg version="1.2" xmlns="http://www.w3.org/2000/svg" viewBox="0 0 992 1062" width="992" height="1062"><style>.a{fill:#ddf3f7}.b{fill:#def3f7}.c{fill:#d9f2f6}.d{fill:#d6f2f5}.e{fill:#dff4f7}.f{fill:#dbf3f7}</style><path class="a" d="m229 866c8.5 6.7 15.2 13.8 19 24q0.8-0.2 1.6-0.4c10.4-2.6 19.6-2.4 29.4 2.4 6.9 4.8 11.5 10 14 18 1.3-0.1 1.3-0.1 2.6-0.2 10-0.5 17.6 1.2 25.3 7.9 1.6 1.7 2.9 3.4 4.1 5.3q0.6 0.9 1.2 1.9c2.9 5.1 4 10.2 3.8 16.1-1.6 4.8-3.8 7.3-8 10-16.3 7.9-35.6 7.8-53.4 9.1q-1.6 0.1-3.3 0.2c-25.5 1.7-51 1.9-76.5 1.8q-6.7 0-13.3 0c-35.1 0.1-35.1 0.1-52.5-1.1-1.6-0.1-1.6-0.1-3.3-0.2-30.9-2.1-30.9-2.1-38.7-9.8-2.2-8.2-0.6-16.6 3.5-24 1.4-2.4 3-4.7 4.5-7q1 0 2 0 0-1 0-2c8.6-7.8 20.1-10.5 31.4-10.2 2.3 0.2 4.4 0.6 6.6 1.2q0-1.8 0.1-3.6c1.1-10.1 7.8-21.3 14.9-28.4q1 0 2 0 0-1 0-2c6.4-6.3 13.8-10.5 22-14q1.4-0.6 2.8-1.3c17.7-6.8 42.6-4.8 58.2 6.3z"/><path class="b" d="m529 93c8.4 6.5 15.3 13.6 19.3 23.6 1.3 3.2 2.6 5.6 4.7 8.4 3.6 1.1 6.6 1.1 10.4 1 8.6 0 17.2 4.4 23.6 10 6.5 7.5 9.6 14.7 9.3 24.6-0.5 3.7-1.8 5.7-4.3 8.4-9.2 6.6-20.7 7.6-31.7 8.6q-1.9 0.2-4 0.4c-145.8 13.3-145.8 13.3-180.3-9-3.3-2.8-4.8-4.8-5.2-9.2-0.2-8.7 1.9-15.1 7.3-21.9 6.5-6.6 15.9-10.7 25.1-11.2 4.7-0.9 5.6-2.3 8.3-5.9 3.2-3.8 7.7-5.9 12.5-6.8 7.3-0.5 13.9 0.1 21 2 0.4-0.9 0.4-0.9 0.8-1.9 4.8-10.3 11.3-17.4 21.2-23.1q1-0.6 2-1.1c18.2-9.9 43-8.5 60 3.1z"/><path class="b" d="m845.4 151.7c5.5 4.6 10.4 10.4 12.6 17.3q0 2 0 4 1.4-0.5 2.9-1c7.4-2.1 14.3-1.5 21.1 2 3 2.1 3 2.1 5 4q0 1 0 2 1 0 2 0 1 1.5 2 3 0.9-0.2 1.9-0.4c10.1-2.2 17.8-2.6 27.1 2.4 2.8 2.4 2.8 2.4 5 5q1.3 1.3 2.6 2.6c5.2 6.5 7.1 14.7 6.8 23-0.8 4.9-3.2 7.5-7.1 10.5-3.7 2.1-6.4 2.6-10.6 3.1q-1.1 0.1-2.1 0.2-3.3 0.3-6.6 0.6-1.8 0.2-3.6 0.3c-37.7 2.6-75.7 2.3-113.4 0.8q-3-0.1-6-0.2-5.5-0.3-10.9-0.6c-1.6 0-1.6 0-3.2-0.1-8.5-0.6-16.8-3.2-23-9.3-3.9-4.9-4.8-9.7-4.5-15.8 1.8-9.4 7.1-17.3 14.6-23.1 5.8-3.6 10.9-5.1 17.8-5.1q1.4 0.1 2.9 0.1c1.2 0 1.2 0 2.3 0q0.2-1.5 0.3-3.1c1.7-9.5 7-17.2 14.5-23.3 13.8-9.4 36.1-8.2 49.6 1.1z"/><path class="c" d="m992 528c0 28.7 0 57.4 0 87-14.2-0.1-28.4-0.2-43-0.4-4.4 0-8.8 0-13.4-0.1-17.3-0.1-34.6-0.3-51.9-1.4q-1.9-0.1-3.8-0.2c-9.3-0.6-18.7-1.7-25.9-7.9-3.8-5.4-5.4-9.4-4.7-15.9 2.1-9.4 6.7-17.4 14.6-22.9 7.1-4.1 14.7-5.5 22.8-3.5q3.7 1.1 7.3 2.3 0.2-1 0.5-2.1c2.7-5.2 7.2-8.7 12.3-11.3 6.8-1.2 13.4-0.8 20.2 0.4 0.5-1.1 0.5-1.1 1.1-2.2 6-11.7 13.8-18.7 26.1-23.6 13.5-4.2 23.9-1.7 37.8 1.8z"/><path class="d" d="m221.5 142.5c7.2 5.1 10.3 11.4 13.5 19.5q1.4-0.1 2.7-0.2c7.5-0.3 12.6-0.2 18.6 4.5 1.7 1.7 1.7 1.7 3.8 5.1q0.9 1.3 1.9 2.6c3.4 0.3 3.4 0.3 5.8 0.1 6.5-0.3 12.3 1.8 17.2 5.9 3.9 4.6 5.4 9 5 15-1.8 4.2-3.9 6.2-7.9 8.3-11.6 4.3-24.5 4.3-36.7 4.8q-1.4 0.1-2.7 0.2c-31.4 1.4-62.8 1.4-94.1-0.2q-1.2 0-2.4-0.1c-28.2-1.4-28.2-1.4-36.2-8q-0.8-0.6-1.7-1.3c-3-3.9-1.8-10-1.3-14.7 2-6.7 6.5-12 11.9-16.4 5.5-2.8 12.2-2.2 18.1-1.6 2.9 1 2.9 1 5 2q0.4-0.9 0.7-1.8c2.9-5 6.3-7.1 11.8-8.7 4.2-0.8 8.3-0.2 12.5 0.5q0.5-0.8 1-1.7c5.4-8.7 11.9-15.5 21.9-18.7 11.3-2.3 21.7-1 31.6 4.9z"/><path class="e" d="m75.3 390.4c7.7 4.6 13.3 10.3 16.7 18.6q0.6 2.5 1 5c1-0.2 1-0.2 1.9-0.5 10.2-1.7 19.7 0 28.4 5.6 5.9 4.3 9.4 10 11.7 16.9 0.7 7.2 0.4 12.2-4 18-6.7 7.1-17.6 7.5-26.9 8.1q-1.7 0.1-3.4 0.3c-28.1 1.8-56.3 2.3-84.4 1.2-1.5-0.1-1.5-0.1-3-0.2-4.2-0.2-8.2-0.5-12.3-1.4-0.5 1-0.5 1-1 2 0-17.5 0-35 0-53q1 0.5 2 1c1.3-0.5 1.3-0.5 2.7-0.9 5.6-1.8 10.6-1.1 16.3-0.1q0.6-1.1 1.3-2.2c11.4-18.7 31.8-28.8 53-18.4z"/><path class="f" d="m710 877.7c6.1 3.8 9.9 7.8 13 14.3q0 1.5 0 3c1-0.5 1-0.5 2-1 7-0.8 12.6-0.6 18.5 3.6 1.5 1.4 1.5 1.4 2.8 4.2q0.8 1.1 1.7 2.2c2.7 0.2 5.4 0.1 8.1-0.1 5.1 0.2 8.8 2.1 12.4 5.5 4.6 5.1 6 9.8 5.8 16.5-0.5 3.5-1.5 4.8-4.3 7.1-8.3 4.1-16.5 4.8-25.7 5.2q-2.1 0.1-4.2 0.2-6.6 0.3-13.1 0.6-2 0.1-4 0.2c-15.7 0.6-31.3 0.9-47 0.9q-1.1 0-2.2 0c-35.3 0.1-35.3 0.1-45.4-7.5-3.3-3.6-4.2-6-4.8-10.8 0.8-7.5 3.1-13 8.7-18.2 7.3-6 14.3-7.9 23.7-7.6q2.5 0.4 5 1 0.1-1 0.1-2c2.5-8.4 9.5-13.8 16.9-18 9.3-4 22.9-3.7 32 0.7z"/></svg>