<svg version="1.2" xmlns="http://www.w3.org/2000/svg" viewBox="0 0 509 512" width="509" height="512"><path fill="#f5d2a0" d="m316 22q1.3 0.3 2.6 0.7c31.7 8.4 62.3 24.1 87.4 45.3q1.4 1.1 2.9 2.3c14.6 11.9 28 25.4 39.1 40.7q1.3 1.7 2.5 3.4c22.3 29.9 37.5 65.8 43.5 102.6 0.3 1.7 0.3 1.7 0.6 3.5 8.9 57.8-3.7 121.8-37.7 170q-0.9 1.2-1.9 2.5-1.1 1.5-2.2 3c-5 6.8-10.4 13.4-15.8 20q-0.8 1-1.6 2-1.6 2.1-3.4 4-1 0-2 0-0.5 1.5-1 3-1 0-2 0 0 1 0 2c-1.4 1.4-1.4 1.4-3.3 3-3.3 2.8-6.4 5.7-9.6 8.6-17 15.5-37.3 27.7-58.1 37.4q-1.6 0.7-3.2 1.5c-16.2 7.4-34.1 13.7-51.8 16.5q-1.1 0.2-2.3 0.4c-66.1 10.8-132.2-2.2-187.2-40.8-6-4.5-11.7-9.2-17.3-14.1-2.9-2.5-2.9-2.5-6.2-4.5q0-1 0-2c-0.8-0.3-0.8-0.3-1.7-0.7-3-1.7-5.1-3.8-7.6-6.3q-1.3-1.3-2.7-2.7c-2-2.3-2-2.3-2-4.3q-1 0-2 0c-2.8-3-5.2-6.2-7.7-9.4q-1.9-2.3-3.7-4.6c-8.9-11.2-17-23-23.1-35.9q-1.7-3.4-3.4-6.7c-9.8-18.8-16-38.8-20.3-59.5-0.2-1.1-0.2-1.1-0.5-2.2-2.8-14.4-3.7-28.7-3.6-43.3q0-1.2 0-2.5c0.2-48.7 15-96.1 43.3-135.9q0.8-1.1 1.6-2.2c8-11.1 16.9-21.1 26.4-30.8q1.5-1.6 3-3.1c6-6.1 12.2-11.7 19-16.9q0.8-0.6 1.6-1.3c31.5-24.3 69.1-41.3 108.4-47.7 1.8-0.3 1.8-0.3 3.6-0.6 33.2-5.1 66.9-3 99.4 5.6z"/><path fill="#b38942" d="m315 26q1.3 0.3 2.6 0.7c31.7 8.4 62.3 24.1 87.4 45.3q1.4 1.1 2.9 2.3c14.6 11.9 28 25.4 39.1 40.7q1.3 1.7 2.5 3.4c22.3 29.9 37.5 65.8 43.5 102.6 0.3 1.7 0.3 1.7 0.6 3.5 8.9 57.8-3.7 121.8-37.7 170q-0.9 1.2-1.9 2.5-1.1 1.5-2.2 3c-5 6.8-10.4 13.4-15.8 20q-0.8 1-1.6 2-1.6 2.1-3.4 4-1 0-2 0-0.5 1.5-1 3-1 0-2 0 0 1 0 2c-1.4 1.4-1.4 1.4-3.3 3-3.3 2.8-6.4 5.7-9.6 8.6-17 15.5-37.3 27.7-58.1 37.4q-1.6 0.7-3.2 1.5c-16.2 7.4-34.1 13.7-51.8 16.5q-1.1 0.2-2.3 0.4c-66.1 10.8-132.2-2.2-187.2-40.8-6-4.5-11.7-9.2-17.3-14.1-2.9-2.5-2.9-2.5-6.2-4.5q0-1 0-2c-0.8-0.3-0.8-0.3-1.7-0.7-3-1.7-5.1-3.8-7.6-6.3q-1.3-1.3-2.7-2.7c-2-2.3-2-2.3-2-4.3q-1 0-2 0c-2.8-3-5.2-6.2-7.7-9.4q-1.9-2.3-3.7-4.6c-8.9-11.2-17-23-23.1-35.9q-1.7-3.4-3.4-6.7c-9.8-18.8-16-38.8-20.3-59.5-0.2-1.1-0.2-1.1-0.5-2.2-2.8-14.4-3.7-28.7-3.6-43.3q0-1.2 0-2.5c0.2-48.7 15-96.1 43.3-135.9q0.8-1.1 1.6-2.2c8-11.1 16.9-21.1 26.4-30.8q1.5-1.6 3-3.1c6-6.1 12.2-11.7 19-16.9q0.8-0.6 1.6-1.3c31.5-24.3 69.1-41.3 108.4-47.7 1.8-0.3 1.8-0.3 3.6-0.6 33.2-5.1 66.9-3 99.4 5.6zm-99 53q-1.6 0.4-3.2 0.8c-30.1 7.7-56.8 19.8-79.8 41.2q-2.1 1.9-4.3 3.7c-15.8 14-28.1 31.6-37.7 50.3q-0.9 1.6-1.7 3.3c-7.8 14.8-11.7 30.4-15.3 46.7q-0.3 1.2-0.5 2.3c-0.5 2.6-0.6 4.9-0.7 7.5q0 1.4 0 2.8 0 1.5 0 3-0.1 1.5-0.1 3.1 0 3.3 0 6.6 0 3.4-0.1 6.7c-0.1 13.9 0.7 26.5 4.4 40q0.7 2.8 1.3 5.5c4.6 17.5 12.1 34.8 22.7 49.5 0.6 0.9 0.6 0.9 1.3 1.8 6.7 9.3 13.7 17.9 21.7 26.2q1.1 1.2 2.3 2.5c23.9 25.2 57.2 41 90.7 48.5q1.1 0.2 2.2 0.5c30.1 6.5 64.1 3.3 92.8-7.5 1.3-0.5 1.3-0.5 2.6-0.9 16.5-6.5 32.5-15.1 46.4-26.1 0.8-0.6 0.8-0.6 1.6-1.3 37.8-30 63.2-73 69-121.3 0.6-6.8 0.5-13.5 0.5-20.3q0-3.4 0-6.9 0-2.2 0-4.4c0-1 0-1 0-2.1 0.4-7.3 0.4-7.3-2.1-13.7q-0.6-3.4-1.2-6.8c-5.6-31.1-19.8-58.7-40.8-82.2q-1.8-2.2-3.7-4.3-1.6-1.9-3.3-3.7-0.8-0.9-1.6-1.8c-26-27.7-66.1-46.4-103.4-51.2-1.1-0.1-1.1-0.1-2.2-0.3-18.6-2.1-39.5-2.4-57.8 2.3z"/><path fill="#5fbca4" d="m260.1 126.6c5.2 2.3 9.2 6.1 13.3 10 2.6 2.4 5.3 4.6 8 6.8 5 4 9.6 8.2 14.3 12.5 2.3 2.2 2.3 2.2 5.3 4.1q0 1 0 2 1 0 2 0c-0.1-1.9-0.1-1.9-0.2-3.8q0-2.4-0.1-4.9c-0.1-1.2-0.1-1.2-0.1-2.5q-0.1-1.2-0.1-2.4 0-1.1-0.1-2.2c0.9-3.6 2.7-5 5.6-7.2 2.9-0.5 5.3-0.7 8.2-0.7q1.2 0 2.4 0 2.4 0 4.9 0 3.7 0 7.5-0.1 2.4 0 4.8 0 1.1 0 2.3 0c3.9 0.1 5.8 0.7 8.9 3.1 3.2 4.6 2.7 9.9 2.6 15.3q0 1.6 0 3.3 0 3.6-0.1 7.1 0 5.3 0 10.7 0 3.4 0 6.9 0 1.6 0 3.2c-0.2 9.2-0.2 9.2-3.5 13.2q0.8 0.3 1.6 0.7c3.2 1.7 5.8 4 8.5 6.3q0.8 0.7 1.7 1.5c4.7 4 9.2 8.1 13.8 12.3q2.4 2.2 5.1 4.3c4.1 3.4 7 7.7 7.5 13.1 0.3 7.1-0.9 12.3-5.8 17.6-5.5 4.9-10.2 6.8-17.6 6.7-3.3-0.6-5.3-1.7-8.1-3.5q-1.3-0.9-2.7-1.7-1-0.6-2-1.3 0 1.7 0 3.6 0.2 16.5 0.3 33.1 0 8.6 0.1 17.1 0.1 8.2 0.1 16.5 0 3.1 0 6.3 0.1 4.4 0.1 8.8c0 1.3 0 1.3 0 2.6 0 6.8-2.3 11.6-7.1 16.5-4.5 4-8.7 5.7-14.7 5.8q-1.5 0.1-3 0.1-1.6 0-3.3 0-1.6 0-3.3 0-3.6 0.1-7.1 0.1-5.4 0-10.8 0.1-3.4 0-6.8 0.1-1.6 0-3.3 0c-4.7 0-7.4-0.2-11.4-2.8-3.5-5.4-2.5-12.7-2.5-18.9q0-2.2-0.1-4.4 0-5.8 0-11.6 0-5.9-0.1-11.8-0.1-11.6-0.1-23.2c-3.4-1.7-7.2-1.1-10.9-1.1q-1.3 0-2.7 0-2.8 0-5.6 0-4.3 0-8.6 0-2.7 0-5.4 0-1.3 0-2.6 0c-3.9-0.4-3.9-0.4-7.2 1.1q-0.1 3-0.1 6.1-0.1 1.9-0.1 3.9 0 1.1 0 2.2 0 3.3 0 6.6-0.1 9.3-0.1 18.7 0 5.7-0.1 11.4 0 2.2 0 4.4 0 3-0.1 6.1c0 1.7 0 1.7 0 3.5-0.6 3.7-1.9 5.4-4.5 8.1-2.5 1.2-4.1 1.2-6.9 1.2q-1.5 0-3 0.1-7 0.1-14 0.1-3.6 0-7.3 0.1-5.3 0.1-10.6 0.1-1.6 0.1-3.3 0.1c-7.4 0-12.4-1.6-17.9-6.7-1.7-2.3-2.8-4.4-4-7q-0.5-1-1-2-0.1-4.5-0.1-8.9 0-1.4 0-2.9 0-4.6 0-9.2 0-3.2 0-6.4 0-8.4 0-16.8 0-8.6 0.1-17.1 0-16.9 0-33.7-1 0.6-2 1.3-1.3 0.8-2.6 1.7-1.3 0.8-2.7 1.6c-5 2.6-10.4 2.5-15.7 0.7-5.8-2.9-10.6-8.4-13-14.3-0.8-5.9-0.7-11.7 2.4-16.9 6-7.7 14.2-13.7 21.8-19.7 3.8-3.2 7.4-6.6 11-10 3.3-3.1 6.7-6 10.2-8.8 4.4-3.6 8.6-7.3 12.7-11.2 4.6-4.4 9.4-8.5 14.5-12.4 3.7-3 7.1-6.3 10.6-9.5 3.6-3.2 7.4-6.2 11.1-9.3 2.6-2.2 5.2-4.4 7.7-6.7 5.2-4.7 10.5-9.1 16-13.5q1.5-1.3 3-2.6c5.2-2.4 10.6-2.3 16.1-0.8z"/><path fill="#46a18a" d="m315 26q1.3 0.3 2.6 0.7c31.7 8.4 62.3 24.1 87.4 45.3q1.4 1.1 2.9 2.3c14.6 11.9 28 25.4 39.1 40.7q1.3 1.7 2.5 3.4c22.3 29.9 37.5 65.8 43.5 102.6 0.3 1.7 0.3 1.7 0.6 3.5 8.9 57.8-3.7 121.8-37.7 170q-0.9 1.2-1.9 2.5-1.1 1.5-2.2 3c-5 6.8-10.4 13.4-15.8 20q-0.8 1-1.6 2-1.6 2.1-3.4 4-1 0-2 0-0.5 1.5-1 3-1 0-2 0 0 1 0 2c-1.4 1.4-1.4 1.4-3.3 3-3.3 2.8-6.4 5.7-9.6 8.6-17 15.5-37.3 27.7-58.1 37.4q-1.6 0.7-3.2 1.5c-16.2 7.4-34.1 13.7-51.8 16.5q-1.1 0.2-2.3 0.4c-66.1 10.8-132.2-2.2-187.2-40.8-6-4.5-11.7-9.2-17.3-14.1-2.9-2.5-2.9-2.5-6.2-4.5q0-1 0-2c-0.8-0.3-0.8-0.3-1.7-0.7-3-1.7-5.1-3.8-7.6-6.3q-1.3-1.3-2.7-2.7c-2-2.3-2-2.3-2-4.3q-1 0-2 0c-2.8-3-5.2-6.2-7.7-9.4q-1.9-2.3-3.7-4.6c-8.9-11.2-17-23-23.1-35.9q-1.7-3.4-3.4-6.7c-9.8-18.8-16-38.8-20.3-59.5-0.2-1.1-0.2-1.1-0.5-2.2-2.8-14.4-3.7-28.7-3.6-43.3q0-1.2 0-2.5c0.2-48.7 15-96.1 43.3-135.9q0.8-1.1 1.6-2.2c8-11.1 16.9-21.1 26.4-30.8q1.5-1.6 3-3.1c6-6.1 12.2-11.7 19-16.9q0.8-0.6 1.6-1.3c31.5-24.3 69.1-41.3 108.4-47.7 1.8-0.3 1.8-0.3 3.6-0.6 33.2-5.1 66.9-3 99.4 5.6zm-110 15q-2.5 0.5-4.9 0.8c-9.9 1.7-19.4 5.4-28.7 9.3-2.6 1-5.3 1.8-8 2.7-18.6 6.1-34.4 17.2-48.9 29.9-2.2 1.9-4.4 3.6-6.7 5.4-13.1 10.7-24.9 23.1-34.8 36.9q-0.8 1-1.5 2.1c-27.4 37.8-42.9 80.1-42.5 126.9q0.5 0 1 0 0.1 1.5 0.1 3c0.8 18.2 1.5 36.2 5.9 54 0.4 1.8 0.4 1.8 0.9 3.7 1.1 4.9 2.5 9.6 4.1 14.3 0.6 1.8 0.6 1.8 1.1 3.6 2.4 7.8 2.4 7.8 6 15.2 2.2 3.8 3.6 7.6 5 11.8 0.8 2.5 0.8 2.5 2.9 4.4q1.1 2.4 2.1 4.9 1.6 3.7 3.4 7.4 0.6 1.3 1.2 2.6c1.3 2.4 1.3 2.4 4.3 4.1q1 2.9 2.1 5.9c3 6.9 9.5 11.2 15.2 15.8 3.1 2.6 5.6 5.4 8.1 8.4 5 5.9 10.5 10.4 16.8 14.8 3.6 2.7 6.8 5.6 10 8.6 1.7 1.7 1.7 1.7 3.8 1.5 0.5 1.5 0.5 1.5 1 3 3.8 2.3 3.8 2.3 8 3q0 1 0 2 1 0 2 0 0.5 2 1 4 0.8 0.1 1.7 0.3c5.5 1.1 9.6 2.7 14.3 5.7q1 0.5 2 1c0.5 1.5 0.5 1.5 1 3 4.2 2.6 8.7 3.8 13.4 5.2 2.5 0.8 4.8 1.7 7.2 2.9 3.7 1.7 7.2 2.6 11.1 3.4 4.8 1.1 9.4 2.8 14 4.5 4 1.2 7.9 1.7 12 2.1q1.2 0.1 2.3 0.2 2.3 0.2 4.7 0.5 2.2 0.2 4.4 0.5c33.9 4 73.2 2 104.9-11.3q0.5-1 1-2c2.4-0.9 4.7-1.7 7.1-2.5q1-0.3 2-0.7c4.6-1.4 9.2-2.7 13.9-3.8q0-1 0-2c1.1-0.4 1.1-0.4 2.2-0.9 2.4-0.9 4.6-1.9 6.8-3.1q0-1 0-2c1.5-0.4 1.5-0.4 2.9-0.7 6.1-1.8 11.6-3.8 16.1-8.3q3.5-2 6.9-3.6c2.4-1.6 2.9-2.9 4.1-5.4q2-1 4-2 1.7-1.3 3.3-2.7 1-0.8 1.9-1.5 0.9-0.8 1.9-1.7 0.9-0.8 1.9-1.6c4.4-3.8 4.4-3.8 8-8.5q0-1 0-2 0.8-0.3 1.6-0.6c4.1-2.4 7.7-5.5 9.3-9.9 1.2-2.7 2-3.4 4.2-5.1 6.3-5.1 11-11.9 13.9-19.4q2.2-3.9 4.8-7.8c1.4-2.1 1.4-2.1 1.2-4.2q1 0 2 0 0.4-1 0.8-2.1c0.5-1.3 0.5-1.3 1-2.7q0.5-1.3 1-2.7c1.2-2.5 2.3-3.7 4.2-5.5 2.1-4.4 3.6-8.8 5.1-13.4 1-2.9 2.2-5.8 3.3-8.6 3.5-9 5.8-18.4 7.1-27.9 0.5-3.1 0.5-3.1 1.5-4.1 2.9-13.1 3.3-26.1 3.2-39.4 0-1.2 0-1.2 0-2.4 0.3-18.6 0.3-18.6-3.4-36.7-1.2-3.8-1.7-7.6-2.3-11.4-0.8-4.8-1.6-9.4-2.5-14.1q-1 0-2 0c-0.1-1-0.1-1-0.2-2-1-6.7-3-11.7-6.2-17.7-3-6.1-4.7-12.7-6.6-19.3q-1 0-2 0c-0.4-1.4-0.4-1.4-0.8-2.7-1.1-3.1-2.3-4.8-4.2-7.3q-0.7-1.8-1.5-3.7-0.7-1.6-1.5-3.3-1.5-0.5-3-1c-0.1-1.1-0.1-1.1-0.2-2.2-1-3.7-3.1-5.2-5.8-7.8q-1-2.5-2-5c-3.1-4.3-6.3-7.1-10.6-10.2-3.1-2.3-5.9-4.8-8.7-7.4q-0.8-0.7-1.6-1.4c-2.7-2.5-5-5-7.1-8-13.8-17.7-35.4-29.8-55-40-0.9-0.5-0.9-0.5-1.9-1-16.3-8.6-35.4-13.2-53.5-16.5q-3.6-0.7-7.1-1.5c-24.9-4.9-57.4-5.3-81.5 3z"/><path fill="#eeb77e" d="m430 228q0.5 0 1 0c1.1 7.1 1.2 14.1 1.2 21.2q0 3.4 0 6.7c0.2 48.6-20.9 92.6-54.6 126.8-10.4 10.4-21.7 19.1-34.6 26.3q-1.1 0.6-2.2 1.2c-10.6 5.9-21.2 10.9-32.8 14.8q-1.6 0.5-3.2 1.1c-6.4 2.1-12.9 3.7-19.4 5.1q-1.2 0.2-2.3 0.5c-36.2 7.5-76.4 1.2-109.1-15.7q-1.5-0.7-3-1.4c-25.8-12.2-48.3-32.8-65-55.6q-0.9-1.2-1.9-2.5c-7.5-10.3-13.4-21.6-18.7-33.2-0.6-1.1-0.6-1.1-1.1-2.3-1.9-4.2-2.4-6.4-1.3-11-0.7-3.4-0.7-3.4-1.8-7.1-3.7-12.4-4.5-24.2-4.3-37.1q0-2.4 0-4.7 0-5.5 0.1-11.1 1 0.5 2 1 1 3.2 1.9 6.5c1.6 5.8 3.4 11.1 6.1 16.5q0.9 1.8 1.7 3.6c6.7 13.7 13.9 26.4 23.3 38.4q0.9 1.3 1.9 2.6c3.4 4.5 6.7 7.9 11.1 11.4q2.5 2.5 5 5c6.7 6.6 14 12 21.7 17.4 4.1 2.9 7.8 5.9 11.3 9.6 2.2 1.3 2.2 1.3 4 2q0 1 0 2 11.2 0.2 22.4 0.3 5.2 0 10.4 0.1 6 0.1 12 0.1c1.9 0 1.9 0 3.8 0.1q1.7 0 3.5 0c1.5 0 1.5 0 3.1 0 3.9-0.8 5.4-2.4 7.8-5.6 0.7-3.1 0.7-3.1 0.6-6.6q0-2 0.1-4 0-2.1-0.1-4.3 0-2.2 0.1-4.4 0-5.7 0-11.5 0-9.3 0.1-18.6 0-3.2-0.1-6.4 0.1-2 0.1-4c0-1.7 0-1.7 0-3.5 0.2-2.7 0.2-2.7 2.2-4.7 3-0.2 5.9-0.3 8.8-0.3q1.4 0 2.7 0 2.8 0 5.6 0 4.2 0.1 8.5 0 2.7 0 5.4 0 1.3 0 2.6 0c6.1 0.1 6.1 0.1 9.4 2.3 0.4 2.7 0.4 2.7 0.4 6.2q0 2 0 4c0 1 0 1 0 2.1q0 3.3 0 6.6 0 9.3 0 18.6 0 5.7 0.1 11.5 0 3.2 0 6.4 0 2 0 4 0 1.7 0 3.5c0.6 3.8 1.7 5.5 4.5 8.1 2.4 0.7 2.4 0.7 5 0.6q1.5 0 3 0.1 1.6-0.1 3.3-0.1c1.6 0 1.6 0 3.3 0q3.5 0 7.1 0 5.3 0 10.7 0 3.4 0 6.8 0 1.6 0 3.2 0c7-0.1 13-1 18.1-6.1 1.2-1.5 2.4-3 3.5-4.5q1-1 2-2 1.5 0 3 0c2.2-1.4 4.3-2.7 6.4-4.2q0.9-0.7 1.8-1.4c5.7-4.2 10.8-8.8 15.9-13.6 2.4-2.3 4.7-4.4 7.2-6.5 18.3-16 31.8-39.7 40-62.4 0.7-1.9 0.7-1.9 2.2-5 2.6-5.9 3.2-12.5 4.2-18.8q0.3-2.1 0.7-4.1 0.8-5 1.6-10z"/><path fill="#31957f" d="m260.1 126.6c5.2 2.3 9.2 6.1 13.3 10 2.6 2.4 5.3 4.6 8 6.8 5 4 9.6 8.2 14.3 12.5 2.3 2.2 5.3 5.4 5.3 6.1q1 0 2 0c-0.1-1.9-0.1-1.9-0.2-3.8q0-2.4-0.1-4.9c-0.1-1.2-0.1-1.2-0.1-2.5q-0.1-1.2-0.1-2.4 0-1.1-0.1-2.2c0.9-3.6 2.7-5 5.6-7.2 2.9-0.5 5.3-0.7 8.2-0.7q1.2 0 2.4 0 2.4 0 4.9 0 3.7 0 7.5-0.1 2.4 0 4.8 0 1.1 0 2.3 0c3.9 0.1 5.8 0.7 8.9 3.1 3.2 4.6 2.7 9.9 2.6 15.3q0 1.6 0 3.3 0 3.6-0.1 7.1 0 5.3 0 10.7 0 3.4 0 6.9 0 1.6 0 3.2c-0.2 9.2 3.9 17.9 6.6 20.2q0.8 0.7 1.7 1.5c4.7 4 9.2 8.1 13.8 12.3q2.4 2.2 5.1 4.3c4.1 3.4 7 7.7 7.5 13.1 0.3 7.1-0.9 12.3-5.8 17.6-5.5 4.9-10.2 6.8-17.6 6.7-3.3-0.6-5.3-1.7-8.1-3.5q-1.3-0.9-2.7-1.7-1-0.6-2-1.3 0 1.7 0 3.6 0.2 16.5 0.3 33.1 0 8.6 0.1 17.1 0.1 8.2 0.1 16.5 0 3.1 0 6.3 0.1 4.4 0.1 8.8c0 1.3 0 1.3 0 2.6 0 6.8-2.3 11.6-7.1 16.5-4.5 4-8.7 5.7-14.7 5.8q-1.5 0.1-3 0.1-1.6 0-3.3 0-1.6 0-3.3 0-3.6 0.1-7.1 0.1-5.4 0-10.8 0.1-3.4 0-6.8 0.1-1.6 0-3.3 0c-4.7 0-7.4-0.2-11.4-2.8-3.5-5.4-2.5-12.7-2.5-18.9q0-2.2-0.1-4.4 0-5.8 0-11.6 0-5.9-0.1-11.8-0.1-11.6-0.1-23.2c-3.4-1.7-7.2-1.1-10.9-1.1q-1.3 0-2.7 0-2.8 0-5.6 0-4.3 0-8.6 0-2.7 0-5.4 0-1.3 0-2.6 0c-3.9-0.4-3.9-0.4-7.2 1.1q-0.1 3-0.1 6.1-0.1 1.9-0.1 3.9 0 1.1 0 2.2 0 3.3 0 6.6-0.1 9.3-0.1 18.7 0 5.7-0.1 11.4 0 2.2 0 4.4 0 3-0.1 6.1c0 1.7 0 1.7 0 3.5-0.6 3.7-1.9 5.4-4.5 8.1-2.5 1.2-4.1 1.2-6.9 1.2q-1.5 0-3 0.1-7 0.1-14 0.1-3.6 0-7.3 0.1-5.3 0.1-10.6 0.1-1.6 0.1-3.3 0.1c-7.4 0-12.4-1.6-17.9-6.7-1.7-2.3-2.8-4.4-4-7q-0.5-1-1-2-0.1-4.5-0.1-8.9 0-1.4 0-2.9 0-4.6 0-9.2 0-3.2 0-6.4 0-8.4 0-16.8 0-8.6 0.1-17.1 0-16.9 0-33.7-1 0.6-2 1.3-1.3 0.8-2.6 1.7-1.3 0.8-2.7 1.6c-5 2.6-10.4 2.5-15.7 0.7-5.8-2.9-10.6-8.4-13-14.3-0.8-5.9-0.7-11.7 2.4-16.9 6-7.7 14.2-13.7 21.8-19.7 3.8-3.2 7.4-6.6 11-10 3.3-3.1 6.7-6 10.2-8.8 4.4-3.6 8.6-7.3 12.7-11.2 4.6-4.4 9.4-8.5 14.5-12.4 3.7-3 7.1-6.3 10.6-9.5 3.6-3.2 7.4-6.2 11.1-9.3 2.6-2.2 5.2-4.4 7.7-6.7 5.2-4.7 10.5-9.1 16-13.5q1.5-1.3 3-2.6c5.2-2.4 10.6-2.3 16.1-0.8zm-16.8 10.2q-0.9 0.7-1.8 1.5c-4.6 3.8-8.9 7.7-13.2 11.8-5.4 5-11.2 9.6-17.1 14q-1.1 0.9-2.2 1.9c0 0.7-7.4 7-10.1 9.6-4 3.7-8 7.4-12.3 10.8-4.4 3.5-8.5 7.3-12.6 11.1-5 4.7-10.1 9.1-15.4 13.4q-5.3 4.4-10.2 9-3.4 3-6.8 6c-1 0.9-1 0.9-1.9 1.7-1.7 1.4-1.7 1.4-4.7 3.4q0 1 0 2-1 0-2 0c-1.7 2.6-2 4.1-2.1 7.3 1.5 5.1 3.9 8.3 8.1 11.7 2.9 1.5 4.8 1.8 8 1 2.6-1.6 4.8-3.4 7.1-5.4 2.6-2.4 5.3-4.6 8.1-6.8q1.3-1 2.7-2.1 1-0.9 2.1-1.7 0 0.8 0 1.7 0 20.5 0.1 41 0.1 9.9 0.1 19.9 0 9.5 0.1 19.1 0 3.6 0 7.3 0 5.1 0 10.2c0 1.5 0 1.5 0 3.1 0.1 4.4 0.2 7.7 3 11.2 3.8 3.5 6.1 4.8 11.3 4.7q1.3 0 2.7 0 1.5 0 2.9 0 1.5 0 3 0 4.8 0 9.5-0.1 3.3 0 6.5 0 7.9 0 15.8-0.1c0-1.2 0-1.2 0-2.4q0.1-11.2 0.2-22.4 0.1-5.7 0.1-11.5 0.1-5.5 0.2-11.1 0-2.1 0-4.2 0-3 0.1-6 0-1.6 0-3.4c0.5-3.4 1.3-5.2 3.4-8 5.5-4 9.7-4.6 16.4-4.5q1.3 0 2.7 0 2.8 0 5.6 0 4.2 0 8.5 0 2.7 0 5.4 0 1.2 0 2.5-0.1c5.8 0.1 9.2 1.2 13.9 4.6 2.9 3.9 3.4 6.7 3.4 11.4q0.1 2 0.1 3.9 0 2.1 0 4.2 0 2.1 0.1 4.3 0 5.6 0.1 11.2 0 5.8 0.1 11.5 0.1 11.2 0.2 22.5 9.7 0.1 19.4 0.2 3.3 0 6.6 0 4.7 0.1 9.4 0.1 1.5 0 3 0c6.9 0.1 6.9 0.1 12.6-3.3 3.6-5.5 3.4-10.4 3.4-16.7q0-1.6 0.1-3.2 0-5.3 0-10.5 0-3.7 0.1-7.3 0-9.6 0.1-19.2 0-9.8 0.1-19.6 0.1-19.3 0.2-38.5 2.6 2.2 5.3 4.3 1.5 1.2 3 2.4c2 1.7 4 3.5 5.9 5.2 3.3 2.5 5.7 3.5 9.8 4.1 3.9-1.2 5.6-2.6 8.3-5.6 2.1-4.2 3.1-7.7 2.7-12.4-3.1-5.4-8.3-8.8-13.1-12.6-2.7-2.3-5.3-4.5-7.9-6.9-3.4-3.1-6.8-6-10.4-8.9-4.5-3.7-8.8-7.5-13.1-11.5-3.3-3-6.6-5.8-10-8.6-5.1-4.1-9.9-8.5-14.7-12.9-4.6-4.3-9.3-8.3-14-12.3q-1.8-1.5-3.6-3-0.9-0.8-1.8-1.6-5.1-4.4-10.1-9c-4.4-4.1-8.9-8.1-13.6-11.9q-1.4-1.1-2.8-2.2c-6.7-3.7-11.2-1.4-16.6 3.2z"/><path fill="#996c30" d="m432 252q0.5 0 1 0 0.1 7.3 0.1 14.6 0 2.4 0.1 4.9c0.1 13.8-0.9 27.1-4.1 40.6-0.2 1.2-0.2 1.2-0.5 2.3-2.5 10.7-5.8 20.7-10.6 30.6q-0.9 1.9-1.8 3.7c-9.2 19.2-21.6 34.9-36.2 50.3q-1 1-1.9 2.1c-28.8 29.8-73.6 49.3-114.9 50.1q-4.2 0.1-8.4 0.1-1 0-2.1 0c-46.5 0.2-87.8-18.7-121.8-49.7q-0.9-0.7-1.7-1.5c-2.6-2.4-4.1-3.8-5.2-7.1q-1 0-2 0c-19-20.4-37.8-51-42-79 0.4-2.3 0.4-2.3 1-4q0.4 1 0.8 2c5.6 13.8 11.5 27.8 20.2 40q0.6 0.9 1.3 1.8c6.7 9.3 13.8 18 21.7 26.2q1 1.1 2.1 2.3c23.5 24.8 57 40.3 89.9 47.7q1.1 0.2 2.2 0.5c30.1 6.5 64.1 3.3 92.8-7.5 1.3-0.5 1.3-0.5 2.6-0.9 16.5-6.5 32.6-15.1 46.4-26.1q0.8-0.6 1.6-1.3c29.8-23.7 52.5-55.6 62.4-92.7 0.3-1.2 0.3-1.2 0.7-2.4 4-15.8 5.5-31.4 6.3-47.6z"/><path fill="#f5d2a0" d="m239.2 292.7c1.3 0 1.3 0 2.6 0q1.4 0 2.7 0 2.8 0 5.6 0 4.2 0.1 8.5 0 2.7 0 5.4 0 1.3 0 2.6 0c6.1 0.1 6.1 0.1 9.4 2.3 0.4 2.7 0.4 2.7 0.4 6.2q0 2 0 4c0 1 0 1 0 2.1q0 3.3 0 6.6 0 9.3 0 18.6 0 5.7 0.1 11.5 0 3.2 0 6.4 0 2 0 4 0 1.7 0 3.5c0.6 3.8 1.7 5.5 4.5 8.1 2.4 0.7 2.4 0.7 5.1 0.6 1.5 0 1.5 0 3 0q1.6 0 3.3-0.1c1.6 0 1.6 0 3.3 0q5.4 0 10.7-0.1 3.6 0 7.2-0.1 6.6 0 13.2-0.1 1.3 0 2.7 0c2.6-0.2 5-0.6 7.5-1.2q-0.5 1-1 2-3 0.7-6.1 1.3c-5.4 1-10.2 2.5-15.3 4.6-7 3-14.1 5.1-21.6 6.7q-2.9 0.6-5.8 1.3c-10.4 2.3-20.8 2.4-31.3 2.4-1.1 0-1.1 0-2.2 0-10.4 0.1-20.4-0.8-30.7-2.3q-1.2-0.2-2.5-0.3c-11.5-1.5-22.1-5-33.1-8.9-4.4-1.5-8.8-2.7-13.4-3.8q0-0.5 0-1 0.9 0 1.9 0 9.8 0 19.6-0.2 3.7 0 7.3 0 5.3 0 10.6-0.1 1.6 0 3.3 0c1.5 0 1.5 0 3.1 0q1.3-0.1 2.7-0.1c3.7-0.9 5.2-2.6 7.5-5.6 0.7-3.1 0.7-3.1 0.6-6.6q0-2 0.1-4 0-2.1-0.1-4.3 0-2.2 0.1-4.4 0-5.7 0-11.5 0-9.3 0.1-18.6 0-3.2-0.1-6.4 0.1-2 0.1-4c0-1.7 0-1.7 0-3.5 0.5-5.5 3.7-4.9 8.4-5z"/><path fill="#d8b179" d="m251 35.6c1.2 0 1.2 0 2.5 0 23 0 45.3 3.5 67.2 10.7q3.4 1.1 6.9 2.1c11.6 3.5 21.9 8.6 32.4 14.6q0.9 0.5 1.9 1.1c15 8.7 31.3 19.2 42.1 32.9-3.5-1.6-6.3-3.7-9.3-6-7-5.3-14.3-10.2-21.7-15q-1.4-0.9-2.8-1.8c-16.1-9.9-34.4-17.4-52.5-22.7-1.5-0.5-1.5-0.5-3.1-0.9-16.2-4.6-33.1-7.7-50-7.8q-1.3 0-2.6 0-2.7 0-5.5 0-4.1 0-8.2 0c-9.6-0.1-18.8 0.3-28.3 2.2q-1.8 0.3-3.6 0.6c-18.1 3.3-36.8 8.2-53.4 16.4q-1.9 0.9-3.9 1.8c-29.9 14.4-59.7 34.9-79.1 62.3-1.8 2.6-3.7 5-5.7 7.5-14.9 18.7-27 42.4-33.3 65.4q-0.6 1.7-1.1 3.5c-3.9 11.9-5.8 23.8-7.5 36.1-0.4 2.4-0.4 2.4-1.4 5.4q-0.3 2.8-0.6 5.7-0.1 1.5-0.2 3-0.1 1.1-0.2 2.3-0.5 0-1 0c-0.3-16.9 0.9-32.4 5.4-48.8q0.9-3.5 1.8-7c11.2-43.6 40.4-87.2 76.4-114.4 2.8-2.1 5.4-4.4 8-6.6 15.8-13.2 33.3-21.8 52.9-28q5.2-1.8 10.5-3.9c7.3-2.8 14.3-4.6 22-5.8 2.5-0.4 4.9-0.9 7.3-1.5 12.5-2.8 25-3.4 37.7-3.4z"/><path fill="#fcf2e4" d="m184 125c0.6 3.8 0.6 5.9-1.3 9.2-4.8 6.2-10.2 11.7-16.2 16.7-3.2 2.8-6 5.8-8.7 9-1.8 2.1-3.7 4.2-5.6 6.3-5.1 5.7-9.6 11.7-14.2 17.8q-3.6 4.7-7.1 9.3-0.9 1.1-1.7 2.3c-3 3.8-6 7.4-9.3 10.9q-0.9 1-1.9 2.1c-2.5 1.8-4 1.7-7 1.4-3.9-7.7-0.5-19.2 2-27q0.4-1.4 0.9-2.8c7.9-21.9 25.9-40.8 46.3-51.6q1.9-0.8 3.8-1.6 1.1-0.4 2.2-0.9c5.5-2.1 12.3-3.9 17.8-1.1z"/><path fill="#48b099" d="m318.8 144.9q1.7 0 3.5 0 1.8 0 3.7 0c1.8 0 1.8 0 3.7 0 1.8 0 1.8 0 3.5 0q1.7 0 3.3 0c2.5 0.1 2.5 0.1 3.5 1.1q0.1 2.2 0.1 4.4 0 1.4 0 2.9 0 1.5 0 3.1 0 1.5 0 3.1 0 5 0 10.1 0 3.4-0.1 6.7 0 8.4 0 16.7c-2.8-1.4-5-2.7-7.4-4.8q-0.9-0.8-1.8-1.7-1-0.8-2-1.7-1.9-1.7-3.8-3.3-0.9-0.9-1.9-1.8c-2.1-1.8-2.1-1.8-4.6-3.2-3.7-2.4-6.1-4-7.2-8.4-0.2-3.4-0.1-6.6 0.1-10q0-1.7 0.1-3.5c0.3-9.7 0.3-9.7 7.2-9.7z"/><path fill="#a4e6d6" d="m235 165c1.3 4.4 1.3 4.4 0.1 7-11 13.3-23.5 24.6-37.7 34.3q-0.9 0.6-1.9 1.2c-12.4 8.3-12.4 8.3-18.5 7.5-1-2.5-1.1-3.7-0.2-6.2 10.1-16.3 37.1-46.2 58.2-43.8z"/><path fill="#fbf3e5" d="m225.4 102.8c3.1 1.7 4.7 3.3 6.6 6.2 0.6 3.8 0.1 6.3-1.9 9.6-4.1 5.2-9.7 8-16.2 8.8-7 0.2-10.7-0.9-16.2-5.2-1.7-2.2-1.7-2.2-2.2-5 0.8-5 2.5-8.4 6.3-11.8 6.9-4.5 15.8-5.2 23.6-2.6z"/><path fill="#f7e8ce" d="m190 49q0 1.5 0 3-1.8 0.6-3.6 1.1c-11.3 3.7-11.3 3.7-22 8.7-2.3 1.2-4.6 2.1-7.1 3-5.3 2.1-10 4.7-14.9 7.7q-1.2 0.8-2.6 1.6c-11.5 7.1-22.6 14.8-33 23.6-1.8 1.3-1.8 1.3-3.8 1.3 1.5-4.6 4.1-7.7 7.3-11.2q0.8-0.8 1.6-1.7c5.5-5.8 11.6-10.5 18.1-15.1q0.8-0.6 1.6-1.2c17.1-12 37.3-20.8 58.4-20.8z"/><path fill="#9fe7d5" d="m256 147c1.9 1.2 1.9 1.2 3 3 0 3.6-0.9 4.9-3.3 7.7-3.2 2.7-5.1 4.1-9.3 4.7-2.4-0.4-2.4-0.4-4.3-2.1-1.1-2.3-1.1-2.3-1.1-4.7 1.3-3.4 3.2-5.2 6-7.6 3.3-1.1 5.6-1.3 9-1z"/></svg>