<svg version="1.2" xmlns="http://www.w3.org/2000/svg" viewBox="0 0 1097 976" width="1097" height="976"><path fill="#f4ca94" d="M494.3 66.8c1.9-.1 1.9-.1 3.9-.1h14.4c21.7 0 42.9.6 64.4 4.3q1.9.3 3.9.6c35 5.9 70.1 16.1 102.1 31.4q2.6 1.2 5.1 2.4c13.6 6.4 27.1 12.8 39.9 20.6l2 1.2c9.1 5.5 17.6 11.3 26 17.8q3 2.2 5.9 4.4c5.5 4.1 10.8 8.5 16 12.9 2.7 2.4 5.6 4.7 8.5 7 11 9 22.1 19 31.6 29.7v2h2c1.5 1.5 1.5 1.5 3.2 3.5q4.7 5.5 9.5 10.8c1.3 1.7 1.3 1.7 1.3 3.7h2c1.6 1.8 3 3.6 4.4 5.6q.7.8 1.4 1.7l2.8 3.8q2 2.7 4 5.3c11.5 15.3 22.2 31.5 31.3 48.5l2.4 4.4c7.4 13.6 13.8 27.4 19.7 41.7q.7 1.7 1.5 3.5c3.6 8.8 6.7 17.7 9.5 26.8q.3 1 .6 2.1c9.9 31.8 16.4 65.1 18.5 98.4l.2 2c5.1 83-15 171.3-59.3 242.2q-.9 1.5-1.9 3c-8.9 14.4-18.9 28.1-29.4 41.3-2 2.5-3.9 5-5.7 7.7h-2l-.6 1.6c-2 3.4-4.7 6.1-7.4 9q-1.6 1.7-3.3 3.4-.7.8-1.4 1.5c-1.5 1.7-1.5 1.7-3.3 4.5h-2l-2 4h-2l-.8 1.8c-1.2 2.3-2.4 3.6-4.3 5.3q-.9.9-1.9 1.8l-2 1.8q-1 .9-2.1 1.9-2.9 2.7-5.9 5.4l-2.8 2.6C743 846.5 681.1 878.3 617 895q-1.6.4-3.3.9c-33 8.5-66 12.3-100.1 12.3h-8.5c-13.2.1-26.1-.8-39.1-2.2q-1.7-.2-3.5-.3c-55.9-5.8-112-24.1-160.5-52.7q-1-.6-2.1-1.2c-18.1-10.7-35.6-22.5-51.9-35.8q-1.4-1.2-2.9-2.4c-6.3-5-12.2-10.2-18.1-15.6q-1.6-1.4-3.1-2.8c-9.8-9-19.3-18.1-27.9-28.2q-1.4-1.6-2.7-3.1c-15.9-18.3-29.7-37.6-42.6-58.2l-3.6-5.6c-3.1-4.8-6-9.6-8.5-14.8l-1.8-3.6c-.4-.9-.4-.9-.9-1.8q-1.4-2.8-2.8-5.5c-9.8-19.2-17.8-38.8-24.1-59.4l-.8-2.6C90.5 555.2 84.8 492.3 93 433q.2-1.5.4-3.1c6.9-49.2 22.4-99.4 47.6-142.5q2.6-4.4 5-9c11.8-21.5 26.2-40.8 41.8-59.7q2.4-2.9 4.7-5.8 1.2-1.5 2.4-3.1 1.1-1.4 2.3-2.8l1.8-2h2q.3-.8.7-1.6c1.8-3.3 4.3-5.7 6.9-8.3q.8-.8 1.7-1.6 1.7-1.8 3.4-3.5 2.7-2.6 5.3-5.3l3.4-3.4 1.6-1.6c3.8-3.7 3.8-3.7 6-3.7v-2q2.3-2.1 4.7-3.9c3.1-2.6 6.3-5.1 9.3-7.7 8.6-7.5 17.6-14 27-20.4l2-1.4c37.3-25.4 77.7-44.7 121-57.6l2.8-.8C421 74.9 446 71.1 471 68q1.1-.1 2.1-.3c7.1-.8 14.1-.9 21.2-.9"/><path fill="#b2863e" d="M494.3 66.8c1.9-.1 1.9-.1 3.9-.1h14.4c21.7 0 42.9.6 64.4 4.3q1.9.3 3.9.6c35 5.9 70.1 16.1 102.1 31.4q2.6 1.2 5.1 2.4c13.6 6.4 27.1 12.8 39.9 20.6l2 1.2c9.1 5.5 17.6 11.3 26 17.8q3 2.2 5.9 4.4c5.5 4.1 10.8 8.5 16 12.9 2.7 2.4 5.6 4.7 8.5 7 11 9 22.1 19 31.6 29.7v2h2c1.5 1.5 1.5 1.5 3.2 3.5q4.7 5.5 9.5 10.8c1.3 1.7 1.3 1.7 1.3 3.7h2c1.6 1.8 3 3.6 4.4 5.6q.7.8 1.4 1.7l2.8 3.8q2 2.7 4 5.3c11.5 15.3 22.2 31.5 31.3 48.5l2.4 4.4c7.4 13.6 13.8 27.4 19.7 41.7q.7 1.7 1.5 3.5c3.6 8.8 6.7 17.7 9.5 26.8q.3 1 .6 2.1c9.9 31.8 16.4 65.1 18.5 98.4l.2 2c5.1 83-15 171.3-59.3 242.2q-.9 1.5-1.9 3c-8.9 14.4-18.9 28.1-29.4 41.3-2 2.5-3.9 5-5.7 7.7h-2l-.6 1.6c-2 3.4-4.7 6.1-7.4 9q-1.6 1.7-3.3 3.4-.7.8-1.4 1.5c-1.5 1.7-1.5 1.7-3.3 4.5h-2l-2 4h-2l-.8 1.8c-1.2 2.3-2.4 3.6-4.3 5.3q-.9.9-1.9 1.8l-2 1.8q-1 .9-2.1 1.9-2.9 2.7-5.9 5.4l-2.8 2.6C743 846.5 681.1 878.3 617 895q-1.6.4-3.3.9c-33 8.5-66 12.3-100.1 12.3h-8.5c-13.2.1-26.1-.8-39.1-2.2q-1.7-.2-3.5-.3c-55.9-5.8-112-24.1-160.5-52.7q-1-.6-2.1-1.2c-18.1-10.7-35.6-22.5-51.9-35.8q-1.4-1.2-2.9-2.4c-6.3-5-12.2-10.2-18.1-15.6q-1.6-1.4-3.1-2.8c-9.8-9-19.3-18.1-27.9-28.2q-1.4-1.6-2.7-3.1c-15.9-18.3-29.7-37.6-42.6-58.2l-3.6-5.6c-3.1-4.8-6-9.6-8.5-14.8l-1.8-3.6c-.4-.9-.4-.9-.9-1.8q-1.4-2.8-2.8-5.5c-9.8-19.2-17.8-38.8-24.1-59.4l-.8-2.6C90.5 555.2 84.8 492.3 93 433q.2-1.5.4-3.1c6.9-49.2 22.4-99.4 47.6-142.5q2.6-4.4 5-9c11.8-21.5 26.2-40.8 41.8-59.7q2.4-2.9 4.7-5.8 1.2-1.5 2.4-3.1 1.1-1.4 2.3-2.8l1.8-2h2q.3-.8.7-1.6c1.8-3.3 4.3-5.7 6.9-8.3q.8-.8 1.7-1.6 1.7-1.8 3.4-3.5 2.7-2.6 5.3-5.3l3.4-3.4 1.6-1.6c3.8-3.7 3.8-3.7 6-3.7v-2q2.3-2.1 4.7-3.9c3.1-2.6 6.3-5.1 9.3-7.7 8.6-7.5 17.6-14 27-20.4l2-1.4c37.3-25.4 77.7-44.7 121-57.6l2.8-.8C421 74.9 446 71.1 471 68q1.1-.1 2.1-.3c7.1-.8 14.1-.9 21.2-.9M456 174q-2.5.5-5 .8c-12.6 2.1-24.7 5.3-36.8 9.1q-1.5.5-3.1 1c-29.4 9.5-57.5 24.6-82.1 43.1l-1.6 1.2q-5.8 4.3-11.4 8.8c-1.5 1.2-1.5 1.2-3.1 2.5-8 6.5-15.4 13.8-22.7 21.1q-.7.7-1.5 1.4c-6.7 6.7-12.9 13.6-18.7 21q-.7.9-1.5 1.8c-15.2 19.2-28.1 40-38.5 62.2q-.6 1.2-1.2 2.5c-11.7 25-19.3 51.3-23.8 78.5l-.4 2.4c-2.3 13.8-3.1 27.4-3 41.4v9.6c0 12 .8 23.7 2.7 35.6.5 3.6.9 7.1 1.2 10.7.6 6.9 2.2 13.4 3.7 20.1q.5 1.9.9 3.8c1.8 7.6 4 14.9 6.7 22.3q1.5 3.9 2.8 7.8c4.8 14.6 11.2 28.7 18.4 42.3q.7 1.3 1.3 2.6c11 20.6 26.2 40.7 42.2 57.7 2.7 2.9 5.3 5.9 7.9 8.9 7 7.9 15.1 15.3 23.7 21.4 1.9 1.4 1.9 1.4 4.2 3.7 3 3 6.2 5.4 9.6 7.9q.9.7 1.9 1.4c15.5 12.8 15.5 12.8 33.2 19.4v2c8.1 4.5 16.1 8.7 24.9 11.8 2.4.9 4.7 2 7 3.2 3.9 1.9 7.8 3.5 11.8 4.9q1.1.3 2.2.7c5.8 2 11.7 3.9 17.5 5.7q1.2.3 2.5.7c4.8 1.4 9.5 2.6 14.4 3.5q4.4.8 8.7 1.8 1.5.3 3.1.6 3.2.7 6.3 1.3 1.5.4 3.1.7l2.8.6c5.4 1 10.8 1.7 16.3 2.1q1.1 0 2.3.1c8.9.4 17.9.5 26.9.5h2.7c12.6 0 25-.2 37.5-2.2 1.5-.2 1.5-.2 3.1-.5 17.5-2.9 35.3-6 51.9-12.5 3.8-1.4 7.4-2.8 11.3-3.9 5.1-1.5 9.9-3.8 14.7-6.1q2.7-1.3 5.5-2.5 1.4-.6 2.7-1.3l5.6-2.4c5.5-2.5 10.7-5.2 15.8-8.4 3.4-2 6.9-3.7 10.4-5.4v-2c1.3-.3 1.3-.3 2.6-.7 3.9-1.5 6.9-3.5 10.3-6l1.8-1.4q2.7-2 5.3-3.9 1.1-.8 2.3-1.7c4.8-3.5 9.4-7.3 13.9-11 3.4-2.8 6.8-5.3 10.2-7.9l1.6-1.4v-2q1-.4 1.9-.8c2.4-1.1 2.4-1.1 3.1-4.2l3-1v-2c.8-.3.8-.3 1.7-.6 3.1-1.9 5.4-4.4 7.9-7.1q.7-.9 1.6-1.8c4.6-5.1 8.8-10.4 13-15.9q2.9-3.8 5.9-7.4c5.2-6.3 9.8-12.3 13.5-19.5 1.6-3 3.4-5.6 5.3-8.4 4.4-6.5 7.8-13.4 11.2-20.5l3.6-7.2c3.3-6.6 6.5-13.2 7.3-20.6h2q.5-1.4.9-2.9l.6-2q.7-2.1 1.4-4.3 1.7-5.6 3.5-11.1c2-6.1 3.9-11.9 4.3-18.3.4-3.3 1.3-6.3 2.2-9.5 4.8-18.6 5.6-37.5 5.5-56.6v-10.9c0-20.8-1.5-41.6-6.4-61.9q-.4-1.6-.8-3.3c-5.9-25.6-15.9-49.6-27.2-73.2h-2l-.2-2c-1.1-4-3-7.2-5.1-10.7-.7-1.2-.7-1.2-1.4-2.3-5-8.3-10.5-16.2-16.3-24l-1.4-1.8c-5.5-7.5-11.3-14.4-17.6-21.2l-4.4-5c-7.2-7.9-14.6-15.2-23-21.9-2.3-1.9-4.6-3.9-6.8-5.9-25.1-22.4-55.8-38.2-87-50.1q-4-1.6-7.9-3.2c-4.9-2-9.9-3.5-15-4.9q-1.3-.4-2.5-.7-4.2-1.2-8.4-2.3l-3.6-1c-10.2-2.7-20.3-4.4-30.8-5.7q-1.2-.2-2.6-.4c-48.9-6.9-48.9-6.9-94 3.1"/><path fill="#46a18a" d="M494.3 66.8c1.9-.1 1.9-.1 3.9-.1h14.4c21.7 0 42.9.6 64.4 4.3q1.9.3 3.9.6c35 5.9 70.1 16.1 102.1 31.4q2.6 1.2 5.1 2.4c13.6 6.4 27.1 12.8 39.9 20.6l2 1.2c9.1 5.5 17.6 11.3 26 17.8q3 2.2 5.9 4.4c5.5 4.1 10.8 8.5 16 12.9 2.7 2.4 5.6 4.7 8.5 7 11 9 22.1 19 31.6 29.7v2h2c1.5 1.5 1.5 1.5 3.2 3.5q4.7 5.5 9.5 10.8c1.3 1.7 1.3 1.7 1.3 3.7h2c1.6 1.8 3 3.6 4.4 5.6q.7.8 1.4 1.7l2.8 3.8q2 2.7 4 5.3c11.5 15.3 22.2 31.5 31.3 48.5l2.4 4.4c7.4 13.6 13.8 27.4 19.7 41.7q.7 1.7 1.5 3.5c3.6 8.8 6.7 17.7 9.5 26.8q.3 1 .6 2.1c9.9 31.8 16.4 65.1 18.5 98.4l.2 2c5.1 83-15 171.3-59.3 242.2q-.9 1.5-1.9 3c-8.9 14.4-18.9 28.1-29.4 41.3-2 2.5-3.9 5-5.7 7.7h-2l-.6 1.6c-2 3.4-4.7 6.1-7.4 9q-1.6 1.7-3.3 3.4-.7.8-1.4 1.5c-1.5 1.7-1.5 1.7-3.3 4.5h-2l-2 4h-2l-.8 1.8c-1.2 2.3-2.4 3.6-4.3 5.3q-.9.9-1.9 1.8l-2 1.8q-1 .9-2.1 1.9-2.9 2.7-5.9 5.4l-2.8 2.6C743 846.5 681.1 878.3 617 895q-1.6.4-3.3.9c-33 8.5-66 12.3-100.1 12.3h-8.5c-13.2.1-26.1-.8-39.1-2.2q-1.7-.2-3.5-.3c-55.9-5.8-112-24.1-160.5-52.7q-1-.6-2.1-1.2c-18.1-10.7-35.6-22.5-51.9-35.8q-1.4-1.2-2.9-2.4c-6.3-5-12.2-10.2-18.1-15.6q-1.6-1.4-3.1-2.8c-9.8-9-19.3-18.1-27.9-28.2q-1.4-1.6-2.7-3.1c-15.9-18.3-29.7-37.6-42.6-58.2l-3.6-5.6c-3.1-4.8-6-9.6-8.5-14.8l-1.8-3.6c-.4-.9-.4-.9-.9-1.8q-1.4-2.8-2.8-5.5c-9.8-19.2-17.8-38.8-24.1-59.4l-.8-2.6C90.5 555.2 84.8 492.3 93 433q.2-1.5.4-3.1c6.9-49.2 22.4-99.4 47.6-142.5q2.6-4.4 5-9c11.8-21.5 26.2-40.8 41.8-59.7q2.4-2.9 4.7-5.8 1.2-1.5 2.4-3.1 1.1-1.4 2.3-2.8l1.8-2h2q.3-.8.7-1.6c1.8-3.3 4.3-5.7 6.9-8.3q.8-.8 1.7-1.6 1.7-1.8 3.4-3.5 2.7-2.6 5.3-5.3l3.4-3.4 1.6-1.6c3.8-3.7 3.8-3.7 6-3.7v-2q2.3-2.1 4.7-3.9c3.1-2.6 6.3-5.1 9.3-7.7 8.6-7.5 17.6-14 27-20.4l2-1.4c37.3-25.4 77.7-44.7 121-57.6l2.8-.8C421 74.9 446 71.1 471 68q1.1-.1 2.1-.3c7.1-.8 14.1-.9 21.2-.9m-40.2 42.7c-1.1.2-1.1.2-2.1.3l-6.2 1q-1.7.3-3.5.5c-3.2.7-6.2 1.6-9.3 2.7q-2.8.4-5.7.8c-6.7.9-12.9 2.8-19.3 5-4.5 1.4-9 2.8-13.6 3.8-4.3 1-8 2.4-12 4.3-2.8 1.3-5.6 2.2-8.5 3.2-36.2 12.7-70.9 33.4-100.8 57.4q-3.9 3.1-7.9 6.1c-8.9 7-16.9 15-24.9 23l-2.7 2.7c-5.1 5.1-10 10.2-14.6 15.7q-1.4 1.6-2.7 3.2-9.6 11.1-18.3 22.8-.8 1-1.5 2c-11.8 15.9-21.9 32.5-31.3 49.8q-1.8 3.2-3.5 6.4c-5.4 9.8-9.8 19.9-13.7 30.3q-1.5 3.7-2.9 7.3c-3.2 7.7-5.9 15.1-7.4 23.3-.7 2.9-.7 2.9-2.1 6-7 15.9-9.2 35-11.5 52.2q-.1 1.1-.3 2.3c-2.2 16.7-3 33.3-3 50.2v7.8c-.1 29.4 4.8 59.3 13.6 87.3.9 3.1 1.7 6.1 2.5 9.2 1.7 6.2 3.4 12.2 5.9 18.2q1.5 3.3 2.8 6.8c12.2 32.2 29.4 61.8 49.4 89.8q.8 1.2 1.7 2.5l1.6 2.2 1.4 2q.7.7 1.3 1.4h2l.8 2.2c1.3 2.9 2.6 4.6 4.8 6.9 3.9 4.3 7.6 8.8 11.2 13.3 2.3 2.7 4.7 5.1 7.2 7.6q1.4 1.4 2.8 2.9c5.1 5.1 10.1 10.1 15.6 14.7 1.6 1.4 1.6 1.4 4 3.8 1.5 1.8 1.5 1.8 3.6 1.6l1 3c1.7 1.7 1.7 1.7 4 3.4q1.3 1 2.7 2.1l1.6 1.2q2.9 2.2 5.8 4.5c23 17.7 47.6 33.4 73.9 45.8q1.1.5 2.3 1.1c36.1 16.9 74 27.5 113.5 32.7q1.2.1 2.5.3c16.3 2.1 32.6 3.1 49.1 3h3.5c19.8-.1 19.8-.1 39.3-2.6 3.1-.6 6.2-.8 9.3-.9 5.3-.4 10.1-1.4 15.2-2.8 3.8-.9 7.6-1.6 11.5-2.2 8.8-1.4 17.3-3.9 25.8-6.6q2.1-.6 4.2-1.3 4-1.2 8-2.5l7.2-2.2c6.8-2 13-4.5 19.4-7.5 3.1-1.4 6.1-2.6 9.3-3.7 9.1-3.5 17.4-8.2 25.9-12.8q1.2-.7 2.4-1.3c9.1-4.9 18-10 26.6-15.7q2.3-1.5 4.7-3 2.5-1.7 5-3.3c1.2-.8 1.2-.8 2.5-1.6 1.1-.8 1.1-.8 2.2-1.5q1.1-.7 2.1-1.4.8-.6 1.5-1.2v-2q1-.3 2.1-.7c3.6-1.6 6.9-3.6 9.9-6.3v-2q.8-.4 1.7-.7c2.9-1.6 5.3-3.6 7.9-5.8 2.7-2.3 5.4-4.5 8.4-6.5v-2q.8-.4 1.7-.8c2.7-1.4 4.6-3.1 6.9-5.1q1.1-1.1 2.3-2.1c1-1 1-1 2.1-2l1.8-1.6c1.4-1.3 1.4-1.3 1.2-3.4q.8-.3 1.7-.7c3-1.7 5-3.9 7.3-6.5l1.4-1.6c7.6-8.4 15-16.9 21.8-25.9l4-5c5.2-6.7 10-13.5 14.6-20.5l1.6-2.6c3.1-4.6 5.9-9.4 8.5-14.3 1.2-2.2 2.5-4.3 3.8-6.4 7.3-12.1 13.4-24.5 18.5-37.6 1.2-2.8 2.4-5.6 3.5-8.5 3.9-9 6.9-18.2 9.8-27.6q.6-1.8 1.2-3.7c3.9-12.5 6.6-25.1 9-38q.6-3.1 1.1-6.1c4-20.9 5.4-41.2 5.4-62.5q.1-4.6.1-9.2c.1-13.2-1-25.9-3-39-.4-2.9-.6-5.9-.8-8.8-1.7-24-9.5-49.3-17.6-71.9l-2.6-7.6q-.8-2.2-1.6-4.5l-.6-2c-1.5-4.1-3.2-7.9-5.2-11.7q-2.7-5.4-4.8-11.1c-6.2-16-15.2-30.9-24.7-45.1-2.3-3.4-4.4-7-6.4-10.6h-2c-.4-1.1-.4-1.1-.7-2.1-1.5-3.3-3.2-5.8-5.4-8.6-3.8-5.1-3.8-5.1-4.9-7.3h-2q-.3-.8-.7-1.6c-1.8-3.3-4.2-6-6.7-8.8q-1.4-1.7-2.9-3.4l-1.4-1.6c-1.2-1.5-2.4-3-3.5-4.5q-.9-1-1.8-2.1h-2q-.3-.8-.7-1.7c-1.7-3-3.8-5.1-6.3-7.5q-1.3-1.4-2.7-2.8c-2-2.2-2-2.2-4.3-2v-2c-1.3-1.4-1.3-1.4-3.2-2.9q-1.1-1-2.2-1.9L775 202q-1.4-1.2-2.9-2.5c-11.4-9.9-23.6-18.9-36.2-27.5q-2.7-1.9-5.4-3.9c-5.1-3.7-10.3-6.7-16.1-9.4-4.2-2-8.2-4.3-12.2-6.6-7.1-4.2-14.5-7.6-21.9-11q-2.5-1.2-4.9-2.5c-8.7-4.5-17.6-7.6-27-10.6l-4.8-1.6q-4.7-1.5-9.4-3.1-5.1-1.6-10.1-3.3c-15.4-5.1-31-8-47.1-10q-1.3-.2-2.7-.4c-1.1-.1-1.1-.1-2.4-.3-1.9-.3-1.9-.3-3.9-1.3-37.2-6.4-76.8-4.1-113.9 1.5"/><path fill="#5fbca4" d="M472.8 542.2c-3.6-1.5-6.8-3.5-10.1-5.5l-2-1.2c-3.4-2-6.9-3.5-10.1-5.6-5.1-3.2-23.2-12.9-26.1-14.6-1.1-.6-7.3-4.8-8.5-5.4-3.8-2-13-8.8-13.7-8.9-6.3-3.3-9.8-10.9-12.1-17.3-1.6-11.7.1-20.5 7.3-30 2.4-2.6 15-10 19.9-13.5 3.6-2.5 7-3.8 10.7-6.2 5.2-3.3 29.9-16.3 29.9-17 2.4-1.2 4.6-2.9 7-4.1 1.8-.8 3.6-2.2 5.3-3.1 5.4-2.8 9-5.2 10.5-6 2.2-1.3 10.6-6.3 11.9-7.1 2.3-1.2 6.3-3.2 6.9-3.5q1-.5 2.1-1 1-.5 2.1-1c2.4-1.3 4.8-2.8 7.2-4.2 1.9-1.1 3.8-2.7 5.7-3.7 1.4-.8 2.2-1.3 3.6-2.1 2.4-1.2 7.5-4.5 8.6-4.9 2.2-1 6.9-4.6 10.4-6 3.4-1.6 10-5.6 11.7-6.3 2.8-1.4 5.6-2.9 8.4-4.4q1.1-.6 2.3-1.1c3.3-1.8 6.5-3.6 9.6-5.7 8.8-5.9 21.8-6.3 31-1.5 2 1.1 1.9 1.5 7.4 5 6.4 3.9 6.1 8.1 8.4 12.8 2.1 4.4 3.8 14.7 3.8 15.6v14.9c0 5.5.1 11.3.1 16.8 0 4.6.1 8.7.1 13.2 0 10.9-.4 21.8-.4 32.7 0 11.1-.6 21.6-.6 32.8 0 9.5-.1 19.3-.1 28.9 0 5.7-.1 11.8-.1 17.5 0 5.4.1 10.8.1 16.1 0 2-.3 15.7-.3 16.5 0 4.1-.7 7.3-2.7 10.9-1 .7-1.3 2-2.3 2.6-.3.6-7.1 9.6-11.7 12.1-1.1.7-3.7 1.8-4.9 2.6-7.3 3.6-16.6 2.2-24.3.2-6.1-2.3-17.9-11.7-20.6-12.9-3.2-1.6-5.9-2.2-8.5-4.6-3.5-3-5.1-3.6-9.4-5.6-4.2-2.1-8.1-4.9-12.2-7l-2.2-1.2c-4-2-7.4-4.3-10.9-7.2-1.8-1.1-1.8-1.1-3.7-1.9-1-.5-1-.5-2.1-1q-1.1-.6-2.2-1.1c-11.6-5.6-21.3-13.1-23.3-13.7-1.6-1-6.1-3.8-6.9-4.1"/><path fill="#98692c" d="M821 462h1c5.4 28.5 5.2 60.3 1 89q-.3 1.8-.5 3.7-1 6.3-1.9 12.6l-.4 2c-1 6.6-2.1 13-4.4 19.3-1 3-1.8 6-2.6 9.1-2.1 7.4-4.8 14.4-7.7 21.6q-.7 1.7-1.4 3.6-1.4 3.4-2.8 6.9l-2.4 6c-2.8 7.1-6.1 13.6-9.8 20.2q-1.7 3-3.3 6.1c-4.8 8.7-9.9 16.9-15.8 24.9q-.7.9-1.4 1.9c-7.1 9.8-14.6 19-22.6 28.1q-1.1 1.3-2.3 2.7c-9.2 10.3-18.8 19.7-29.7 28.3q-1.6 1.4-3.3 2.7c-10.3 8.6-21.4 16-32.7 23.3l-2.2 1.4c-4 2.6-8.1 4.8-12.4 6.9q-6.3 3.15-12.6 6.6c-14.3 8-30 13.6-45.8 18.1q-1.4.5-2.9.9c-14.9 5-30.5 8.1-46.1 9.7-3 .3-3 .3-6 1.4-24.8 3.4-51.6 2.2-76.3-1.3q-1.1-.1-2.2-.3c-10.4-1.4-20.4-3.7-30.5-6.4l-6.4-1.6c-8-2-15.9-4.4-23.6-7.4q-1.4-.5-2.8-1.1c-15-5.6-29.2-12.1-43.2-19.9-1-.6-1-.6-2.1-1.2-24.8-13.8-47.1-31.8-67.1-51.9q-1.3-1.2-2.6-2.5c-21-21.1-40.2-46.5-53.2-73.4-1.1-2.1-2.2-4.1-3.4-6.2-2.7-4.7-4.5-9.5-6.4-14.6q-1.65-4.2-3.6-8.4c-5.8-12.5-9.3-25.8-12.6-39.1q-.3-1.4-.7-2.8-.3-1.2-.6-2.5c-.7-2.4-.7-2.4-1.7-4.8-1.2-3.2-1.7-6.2-2.3-9.6q-.1-1-.3-2l-.6-4.2-1-6.4c-1.5-9.1-2.3-18.2-2.8-27.4 1.9 2.8 2.4 4 2.9 7.3q.2 1.2.4 2.5.3 1.4.5 2.8c1.7 9.2 3.8 18.1 6.5 27.1q1.1 3.7 2.2 7.5c2.3 7.9 4.5 15.6 8.2 23 1.3 2.8 2.6 5.7 3.8 8.5 12.9 30.2 31.5 58.6 54 82.6q3.2 3.5 6.4 7.1c7.4 8.6 16 16.2 25.1 23 2 1.6 2 1.6 3.8 3.5 2.8 2.7 5.9 4.9 9 7.2q1 .7 2 1.5c10.7 7.7 21.2 14.9 33.2 20.4v2l2.6.8c3.6 1.3 6.9 2.9 10.3 4.6 3.7 2 7.5 3.9 11.5 5.3 2.6.9 4.9 1.9 7.3 3.2 4 2 7.9 3.5 12 5q1.1.3 2.2.7c5.8 2 11.7 3.9 17.5 5.7q1.2.3 2.5.7c4.8 1.4 9.5 2.6 14.4 3.5q4.4.8 8.7 1.8 1.5.3 3.1.6 3.2.7 6.3 1.3 1.5.4 3.1.7l2.8.6c5.4 1 10.8 1.7 16.3 2.1q1.1 0 2.3.1c8.9.4 17.9.5 26.9.5h2.7c12.6 0 25-.2 37.5-2.2 1.5-.2 1.5-.2 3.1-.5 17.5-2.9 35.3-6 51.9-12.5 3.8-1.4 7.4-2.8 11.3-3.9 5.1-1.5 9.9-3.8 14.7-6.1q2.7-1.3 5.5-2.5 1.4-.6 2.7-1.3l5.6-2.4c5.6-2.5 10.8-5.2 16-8.4 7.1-4.4 7.1-4.4 10.2-4.4v-2q2.6-1.7 5.3-3.1c14.1-8 27.2-18.5 39-29.5 1.7-1.4 1.7-1.4 3.7-1.4v-2c1.4-1.3 1.4-1.3 3.2-2.8 10.7-8.7 19.6-19.7 28-30.6q2.9-3.7 5.9-7.4c5.2-6.3 9.8-12.3 13.5-19.5 1.6-3 3.4-5.6 5.3-8.4 4.4-6.5 7.8-13.4 11.2-20.5 1.2-2.4 2.4-4.8 3.7-7.2 3.3-6.6 6-13.5 8.2-20.6h2q.1-1.6.3-3.3c.8-6.8 3.5-13.3 5.8-19.8 1.9-5.3 3.3-10.2 3.7-15.9.3-3.1 1.2-6.1 2.1-9.1 5.3-20 6.1-41.1 6.7-61.6q0-2.4.1-4.8.2-5.7.3-11.5"/><path fill="#46a18a" d="M542 609.4q-1.5-.8-3-1.7-7.4-4.2-14.8-8.6c-6.7-3.9-13.4-7.8-20.1-11.6q-8.1-4.6-16.1-9.5c-5.4-3.3-10.8-6.5-16.3-9.5q-5.6-3.1-11.3-6.3-1-.6-2.2-1.3-2.6-1.4-5.2-2.9c0-.7-8-4.6-11-6.4q-1.5-.9-3.1-1.8-1.4-.9-2.9-1.8-1.4-.8-2.9-1.6c-.7-.5-10.7-6.2-13.8-8.1-.9-.5-.9-.5-1.9-1.1q-6.5-3.8-13.1-7.8c-3.7-2.2-7.6-4.1-11.2-6.4-1.8-1.1-6-6-8-8-.6-.6-4.7-6.3-6-8.5q-.5-.9-1.1-1.8c-4.4-7.6-5.3-14.7-5.3-23.4q0-1.2-.1-2.5c0-4.9 1.2-7.7 2.5-10.3.4-.9 1.4-3.6 1.7-4.6 1.4-5.5 10.1-17.8 10.1-16.8.1 1 12.3-8.8 17.6-11.7 2.9-1.6 5.7-3.4 8.6-5.1 9.4-5.9 19-11.2 28.8-16.5 5.9-3.2 11.7-6.7 17.4-10.2 2.7-1.6 5.5-3.1 8.3-4.5 7.9-4.1 15.5-8.5 23.1-13.2 5.6-3.5 11.4-6.8 17.3-9.9 7.3-3.9 14.4-8.1 21.4-12.5 5.3-3.3 10.8-6.1 16.5-8.9 3.4-1.7 6.5-3.5 9.6-5.7 17.7-12.3 43.5-15 61.4-1.6q2.1 1.8 4.1 3.7c1.1.9 1.1.9 2.1 1.8 5.5 5 8.3 10.3 10.9 17.2.5 1.2.5 1.2 1.1 2.4 2.1 5.9 2 12 2.1 18.1v16.9q.1 9.8.1 19.6v35q.1 20.2.1 40.4.1 14.2.1 28.4 0 8.5.1 17v21.8c.1 11.5 2 21.9-5.3 31-1.2 1.6-19.5 20.3-31.3 25.4-16.7 4.7-31.4-1.4-46-9l-4-2c0-.7-6.6-4.3-9-5.6m-116.1-93.7q1.6.9 3.2 1.9c2.8 1.6 7.4 4.2 9 5q2 1.1 4.1 2.2 1 .5 2 1.1c4.8 2.5 9.4 5.4 14.1 8.1 13.3 7.6 23.6 12.3 25.9 13.7 4.8 3 12.5 8.7 17.1 11.1 6 3 9.7 4.9 15.2 8.7 4.3 2.9 10.8 6.7 15.4 9 7.3 3.6 13.7 7.5 20.8 12 2 1.3 12 8.1 15.3 9.3 1 .4 5 2.8 6 3.2q1.2.6 2.4 1.1c8.2 2.8 17.7 1.9 25.3-1.8 4.2-2.2 7.3-5.3 10.3-8.8 2.9-3.6 3.9-4.6 5.5-7.4 2.1-3.5 2.6-8.3 2.6-12.3q.1-1.3.1-2.6v-34.3q0-3.4.1-6.8v-32.2q0-18.5.1-37v-28.7q0-8.6.1-17.1v-22c.4-14.1.4-14.1-4.5-27.1-.5-.5-1.6-2.6-2-3.3-.8-1.6-.4-.9-2.2-2.8-2-2.3-12.9-8.1-16.8-8.9-8.5-.8-17 1.3-25.3 4.9-1.5.6-6.8 4.3-10.6 6.2q-1.1.5-2.1 1c-3.1 1.5-5.9 3.5-9 5-2.5 1.3-9.2 5.6-10.9 6.4-3.5 1.7-6.8 3.5-10.1 5.5-1 .3-14.6 8.1-19.1 11.1-3.2 2.1-17.8 9.6-20.8 11.6-3 1.9-20 11.2-24.4 14.2-1.7 1.1-31 18.6-35.4 21.2-2.6 1.5-5.2 2.9-7.9 4.2-5.5 2.4-11 7.6-13.1 8.5-7.3 3.5-11.2 8.5-14.4 15.9-2.3 8.2-2.4 17.3 1.3 25q1.4 2.2 2.8 4.3l2 3c2.2 2.2 10.9 8 12.9 9 1.1.6 11.8 7.9 15 9.7"/><path fill="#fdf8ed" d="M342.1 268.1c5.9-4.4 12-6.7 18.9-9.1q2.2-.8 4.3-1.7c3.9-1.4 7.7-2.4 11.7-3.3 1.2-.3 1.2-.3 2.5-.7 4.8-.6 9-.3 13 2.4 2.1 3.2 2.2 4.5 1.5 8.3-3.8 8-10.7 14.2-16.7 20.6-2.5 2.7-4.9 5.5-7.3 8.4q-8.8 10.4-18.2 20.4c-7.1 7.6-14.1 15.1-19.9 23.8-2.9 4.3-6.3 8-9.8 11.8-.6.7-9.8 14.8-12.4 17.9q-.7.9-1.5 1.9-4.3 5.4-8.9 10.6c-1.5 1.8-2.8 3.6-4.2 5.5-11.1 14.9-12.2 14-19.1 18.1-2.9 1.7-3.3.3-6-1-5.9-9.9-3.4-22.6-.8-33.2 1.7-6.7 3.9-13.1 6.8-19.4 1.2-2.5 10.7-24.7 12.5-28.7 1.5-2.7 9.5-12.4 10.1-13.3.4-.8 4.1-4.4 4.4-5.4.7 0 9.5-10 13.7-13.4 2.4-1.9 22.7-18.3 25.4-20.5"/><path fill="#e0c085" d="M585.1 102.4q3.6.7 7.2 1.3c13.9 2.5 27.4 7.2 40.8 11.7q2.3.7 4.7 1.5c23.4 7.4 45.4 19.1 67.2 30.1v2l2.2.8c9.7 4.1 18.3 10.8 26.8 16.8q2.8 2 5.6 3.9c9 6.2 17.2 13.2 25.4 20.5q1.3 1.2 2.6 2.3 3.7 3.3 7.4 6.7l1.8 1.6 6 5.6c1 .9 1 .9 1.9 1.8 3.8 3.4 7.1 7 10.3 11-3.2-1.4-5.6-3.2-8.2-5.5l-2.2-1.8C783 211 783 211 783 209q-.8-.3-1.7-.7c-3-1.7-5.2-3.9-7.7-6.3-6.2-5.8-12.8-11-19.6-16-1.1-.8-1.1-.8-2.3-1.7-23.2-17.4-48.5-32.6-75.2-44.2-2.1-.9-4.1-1.9-6.2-3-4-2-8-3.5-12.3-4.9-1.1-.4-1.1-.4-2.2-.7q-3.6-1.2-7.1-2.4-2.5-.8-4.9-1.6-4.8-1.6-9.6-3.1-5.1-1.7-10.1-3.4c-15.4-5.1-31-8-47.1-10q-1.3-.2-2.7-.4c-1.1-.1-1.1-.1-2.4-.3-1.9-.3-1.9-.3-3.9-1.3-37.2-6.4-76.8-4.1-113.9 1.5-1.1.2-1.1.2-2.1.3l-6.2 1q-1.7.3-3.5.5c-3.2.7-6.2 1.6-9.3 2.7q-2.8.4-5.7.8c-6.7.9-12.9 2.8-19.3 5-4.5 1.4-9 2.8-13.6 3.8-4.3 1-8 2.4-12 4.3-2.8 1.3-5.6 2.2-8.5 3.2-36.2 12.7-70.9 33.4-100.8 57.4q-3.9 3.1-7.8 6.1c-8.8 6.8-16.7 14.6-24.5 22.5q-1.3 1.2-2.6 2.5c-4.9 5-9.7 10.1-14.2 15.4q-1.4 1.6-2.7 3.2-9.6 11.1-18.3 22.8-.8 1-1.5 2c-11.8 15.9-21.9 32.5-31.3 49.8q-1.8 3.2-3.5 6.4c-5.4 9.8-9.8 19.9-13.7 30.3q-1.5 3.7-2.9 7.3c-3.2 7.7-5.9 15.1-7.4 23.3-.7 2.9-.7 2.9-2.1 6-12.5 28.1-13.8 64.6-15.6 94.9h-1c-.3-32.1-.3-32.1 1.5-40.4.8-4.4.9-8.8 1-13.3.2-4.4 1-8.1 2.5-12.3q.7-3.1 1.3-6.3c4.8-25.1 11.6-49.3 21.7-72.7q.5-1.2.9-2.4c6.2-15.3 13.4-30.6 22.1-44.6q1.2-1.9 2.4-3.9 3.2-5.1 6.4-10.3 1.6-2.4 3.1-4.8c4.3-7 9.1-13.5 14.1-20q.6-.8 1.3-1.7c5.5-7.2 11.1-14 17.2-20.6 1.9-2.1 3.8-4.2 5.6-6.3 4.3-4.9 8.9-9.5 13.5-14.1l4.4-4.4c9.5-9.5 9.5-9.5 14-12.9h2v-2q2.6-2.1 5.4-4.1c4-2.9 7.9-5.9 11.5-9.3 5.8-5.3 11.9-10 18.1-14.6l2.4-1.8c17.1-12.3 35.8-23.1 55.6-30.2q2.6-1.1 5.1-2.1c6-2.4 12.4-4.9 18.9-4.9v-2q6.4-2.2 12.9-4.3l3.6-1.2c11.7-3.9 23.1-7.5 35.3-9.4 5-.8 9.9-2 14.8-3.3 45.3-10.5 97.2-8.2 142.5.6"/><path fill="#fadbae" d="M552.6 171.3q1.2.1 2.5.3c10.9 1.4 21.3 3.5 31.9 6.4q1.5.4 3.1.8c28.4 7.6 56.1 19 81.3 34.2q1.2.7 2.3 1.3 1 .7 2 1.3.9.6 1.8 1.1c1.8 1.6 2.6 3.1 3.5 5.3-2.8-.6-5.1-1.5-7.6-2.8q-1-.6-2.1-1.1l-2.2-1.2q-2.3-1.3-4.6-2.5-1.1-.6-2.3-1.2c-11.8-6.3-23.8-11.4-36.2-16.2q-1.8-.7-3.7-1.4c-14.5-5.4-29.4-8.7-44.6-11.8q-1.8-.4-3.7-.7-5.5-1.1-11-2.1-1.6-.3-3.3-.6c-11.9-1.9-23.8-1.7-35.8-1.7q-5.6 0-11.2-.1c-19.4 0-38.6 1.2-57.5 5.7q-5.4 1.2-10.8 2.1c-7 1.4-13.6 3.4-20.4 5.6q-2 .6-4.1 1.3-1 .3-2.1.6-2 .6-4.1 1.3c-8.5 2.6-16.6 6-24.6 9.9q-1.5.7-3.1 1.5c-18.5 8.9-18.5 8.9-35.9 19.8q-4 2.8-8 5.5-5.1 3.4-10.1 7-.9.7-1.8 1.3c-2.9 2.1-5.8 4.3-8.5 6.6-2.7 2.2-2.7 2.2-4.7 2.2v2h-2v2c-3.5 3-3.5 3-6 3v2c-1.4 1.3-1.4 1.3-3.2 2.8-3.1 2.6-6 5.3-8.8 8.2l-1.8 1.8q-1 .9-2 1.9-.8.9-1.7 1.7c-1.6 1.6-1.6 1.6-2.5 3.6h-2q-.4.8-.7 1.7c-1.6 2.8-3.5 4.9-5.7 7.2-2.4 2.6-4.5 4.9-6.3 7.9q-.6 1.1-1.3 2.2h-2q-.4.9-.9 1.7-1.5 3.2-3.1 6.3h-2q-.4.9-.9 1.8c-1 2-2.1 3.9-3.3 5.8q-.6 1-1.3 2-.6 1.1-1.3 2.1c-.7 1.1-.7 1.1-1.3 2.1s-.6 1-1.3 2.1q-.6 1-1.3 2-1.3 2.1-2.6 4.1c-4.6 7.3-8.5 14.9-12.5 22.6q-1.1 2.2-2.3 4.4c-7.4 14.3-12.1 29.7-16.9 45q-.5 1.5-.9 3c-9.6 31.2-12 63.6-13.1 96l-3-1c-.6-73.8 12.2-144.2 59.6-203.3q2.1-2.6 4.2-5.3c14.3-18.8 31.3-37.1 50.2-51.4q1.4-1.1 2.9-2.3c21.4-17 45.2-30.5 70.1-41.7l3.6-1.6c8.5-3.6 17.3-6.3 26-9.1q1.8-.6 3.7-1.1c10.8-3.4 21.4-6.1 32.7-7.2l1-1c31.3-6.3 64.1-5.7 95.6-1.8z"/><path fill="#fcf9f0" d="M471 221c0 .7 6 8.6 6.4 12.6-.9 5.8-4.4 11.2-8.4 15.4-4.1 2.9-8.3 5.1-13 7q-1.3.6-2.7 1.1c-3 1.2-10.5 2.4-11.2 2.5-5.5.4-12.9-2.1-19.8-6.3-3.9-2.5-8.4-16.9-5-22.9 10.8-15.4 28.8-20.1 45.7-15.4 3.4 1 6.4 4.3 8 6"/><path fill="#e3c285" d="M267 183c0 3 0 3-2.1 5.2l-1.3 1.3c-1.9 1.8-3.6 3.7-5.3 5.7l-1.8 2c-1.6 1.7-1.6 1.7-2.5 3.8h-2q-.4.9-.8 1.7c-1.2 2.3-1.2 2.3-2.8 4.3-1.5 1.9-1.5 1.9-1.8 3.9-.7 2.6-1.8 3.6-3.7 5.5q-1 .9-2 1.9-1 .9-2 2l-4.2 4-2 2c-3.1 3.1-5.9 6.3-8.7 9.7q-1.2 1.4-2.5 2.9c-6.4 7.5-12.6 15.2-18.5 23.1q-.8 1-1.5 2c-11.8 15.9-21.9 32.5-31.3 49.8q-1.8 3.2-3.5 6.4c-5.4 9.8-9.8 19.9-13.7 30.3q-1.5 3.7-2.9 7.3c-3.2 7.7-5.9 15.1-7.4 23.3-.7 2.9-.7 2.9-2.1 6-12.5 28.1-13.8 64.6-15.6 94.9h-1c-.3-32.1-.3-32.1 1.5-40.4.8-4.4.9-8.8 1-13.3.2-4.4 1-8.1 2.5-12.3q.7-3.1 1.2-6.3c4.9-25.1 11.7-49.3 21.8-72.7q.5-1.2.9-2.4c6.2-15.3 13.4-30.6 22.1-44.6q1.2-1.9 2.4-3.9 3.2-5.1 6.4-10.3 1.6-2.4 3.1-4.8c4.3-7 9.1-13.5 14.1-20q.6-.8 1.3-1.7c5.5-7.2 11.1-14 17.2-20.6 1.9-2.1 3.8-4.2 5.6-6.3 4.3-4.9 8.9-9.5 13.5-14.1l4.4-4.4c9.5-9.5 9.5-9.5 14-12.9h2v-2c1.7-1.5 1.7-1.5 4-3.1 1.1-.8 1.1-.8 2.2-1.7z"/><path fill="#faedd0" d="M408 118v2c-4.2 2-8.3 3.4-12.9 4.4-4.5 1.1-8.5 2.5-12.7 4.5-2.8 1.3-5.6 2.2-8.5 3.2-36.2 12.7-70.9 33.4-100.8 57.4q-3.9 3.1-7.9 6.1c-5.5 4.4-11 9-15.9 14.2-1.3 1.2-1.3 1.2-3.3 1.2 1.4-4 3.2-6.9 6-10h2l.8-2.2c1.3-3 2.8-4.9 5-7.3l2-2.2c10-10.5 20.6-19.8 32.2-28.3l2.4-1.8c16.1-11.6 34-22.4 52.7-29.2 2.6-.9 5.2-2 7.7-3.1 15.9-6.3 34.2-9.3 51.2-8.9"/><path fill="#b9efe1" d="M516 410c-.1 5.4-2.3 8.2-5.8 11.9-7.7 7.3-17.1 12.7-26.2 18.1l-3.2 2c-6.9 4-13.9 7.6-21.2 10.9q-1.2.5-2.5 1.1c-7.3 3.3-14 5.5-22.1 5-1-1-1-1-1.5-3.6 1.1-7.7 9.5-13.8 15.5-18.4 3.6-2.4 7.3-4.7 11-7q1-.7 2.1-1.3c4.8-3.2 9.8-5.8 15-8.3q3.5-1.7 7-3.5c8.1-4.1 23-11.3 31.9-6.9m26-25c2.8 1.4 3.9 2.5 6 5 .9 3.3.5 5-1.1 8-3.1 4.3-5.7 8.8-10.9 10-5.1 1.2-7.3 1.7-13 0-3.3-1-3-3.8-3.6-7.3 1.1-6.5 5.6-10 10.5-14.2 4.2-2 7.6-2.4 12.1-1.5"/><path fill="#e5bd7b" d="M140 382c-.5 6.3-1.7 12.1-3.3 18.2-7 26.7-10 54.3-11.7 81.8h-1c-.3-32.1-.3-32.1 1.5-40.4.8-4.4.9-8.8 1-13.3.2-4.4 1-8.1 2.5-12.3q.7-3.4 1.4-6.7.4-2 .7-4 .3-1 .5-2.1l.4-2.2q.2-1.2.5-2.4.7-3.8 1.5-7.5.2-1.2.5-2.4c.4-2.2.4-2.2 1.5-5.7 3-1 3-1 4-1"/><path fill="#e1ba74" d="M729 164c13.3 7.4 24.7 16.9 36 27 1.3 1.2 1.3 1.2 2.6 2.3q3.7 3.3 7.4 6.7l1.8 1.6 6 5.6q1 .9 1.9 1.8c3.8 3.4 7.1 7 10.3 11-3.2-1.4-5.6-3.2-8.3-5.5q-1-.9-2.1-1.8C783 211 783 211 783 209q-.8-.3-1.7-.7c-3-1.7-5.2-3.9-7.7-6.3-6.2-5.8-12.8-11-19.6-16q-1.1-.8-2.3-1.7-3.8-2.8-7.5-5.6l-2.4-1.8c-4.8-3.5-9.7-6.8-14.8-9.9l2-1z"/><path fill="#e2bc7b" d="M149 345h3l-1 4 2 1q-1.2 3.3-2.3 6.6-.4.9-.7 1.9c-1.1 3.1-2.3 6.1-3.6 9.1-1.8 4.4-2.7 9-3.7 13.7q-.3 1.3-.7 2.7l-2 1-1-2-2 1c.6-6.7 2.2-12.6 4.3-18.9q.5-1.4.9-2.9c1.9-5.9 4.1-11.6 6.8-17.2"/><path fill="#d9af67" d="M128 419h1l.4 2.8c.5 3 .5 3 1.2 5.1.5 2.7.1 4.9-.3 7.7q-.3 1.7-.5 3.4-.3 1.8-.6 3.7c-2 13.4-3.3 26.8-4.2 40.3h-1c-.3-32-.3-32 1.5-40.4.8-4.4.9-9 1.1-13.5.2-3.3.4-6 1.4-9.1"/><path fill="#956325" d="M821 462h1c1.9 11.4 2.2 22.4 2 34l-3-2c-.3-2.5-.3-4.7-.3-7.2v-2.1q.1-3.4.1-6.8 0-2.3.1-4.6 0-5.7.1-11.3"/><path fill="#9e6f35" d="M214 566c1.7 2.6 2.7 4.5 3.6 7.4q.4 1.2.8 2.3c.6 2.3.6 2.3.6 6.3l-5 2c-1-3.6-2-7.3-3-11l2-1c.7-3 .7-3 1-6"/><path fill="#f8d9a8" d="M313 240c0 3 0 3-1.4 4.6q-.9.9-1.9 1.7-1 1-2.1 2t-2.3 2.1q-2.3 2.1-4.7 4.3c-1.1 1.1-1.1 1.1-2.3 2.2-3.4 3.1-6.6 6.3-9.9 9.6q-.8.8-1.6 1.7L283 272l-2-1q5.1-5.2 10.3-10.4l3.5-3.5c11.9-12 11.9-12 18.2-17.1"/><path fill="#9b6e33" d="M204 524c2 2.9 2.4 4.4 3.1 7.8.2 1.4.2 1.4.5 2.8q.3 1.4.5 2.9.3 1.4.6 2.9c1.3 7.2 1.3 7.2 1.3 10.6h-2l-1 3q-.8-5.5-1.5-11.1-.2-1.5-.4-3.1c-.7-5.3-1.3-10.4-1.1-15.8"/><path fill="#d8b065" d="M772 199c4.2 1.7 7.2 4.7 10.4 7.7q.8.8 1.7 1.6c3.9 3.7 7.5 7.5 10.9 11.7-3.2-1.4-5.6-3.2-8.3-5.5q-1-.9-2.1-1.8C783 211 783 211 783 209l-1.8-.8c-2.4-1.3-4-2.8-5.9-4.8q-1-.9-1.9-1.8C772 200 772 200 772 199"/><path fill="#e9c282" d="m145 359 2 2c-.4 3.1-.4 3.1-1 6h-2c-.9-2.6-1.1-3.6-.1-6.3q.6-.8 1.1-1.7"/><path fill="#dbb97e" d="M407 112c-1 1.6-1 1.6-3 3-2.8 0-5.3-.5-8-1 4-2.7 6.4-3.5 11-2"/><path fill="#b08a4d" d="M267 285h2c-1.4 3.4-3.3 5.5-6 8 .6-3.3 1.7-5.5 4-8"/></svg>