<svg version="1.2" xmlns="http://www.w3.org/2000/svg" viewBox="0 0 505 529" width="505" height="529"><path fill="#f5d2a0" d="m364 64q1 0.5 2 1c15.4 8.2 29.4 18.1 42.4 29.6q1.7 1.5 3.5 3c26.9 23.3 48.7 52.5 62.3 85.5q1 2.5 2.2 4.9c7.9 17.9 12.4 36.8 15.6 56q0.2 1.2 0.4 2.4c3.7 23.7 2.8 49.1-1.4 72.6-0.2 1.3-0.2 1.3-0.4 2.6-6.6 38.4-23 73.1-46 104.3q-0.8 1-1.6 2.1c-1.3 1.7-2.6 3.4-4 5q-1 0-2 0-0.3 0.8-0.6 1.6c-2 3.4-4.6 6.1-7.3 9q-0.8 0.8-1.7 1.7-2.2 2.4-4.4 4.7-0.8 0.8-1.6 1.7c-1.4 1.3-1.4 1.3-3.4 1.3q0 1 0 2c-2.4 2.6-5.3 4.7-8 7q-0.7 0.6-1.5 1.3c-50.9 43.2-116 61-181.9 56.2-27.7-2.4-55.8-9.7-80.6-22.5q-2-1-4.1-2c-8-3.8-15.5-8-22.9-13-1.4-0.9-1.4-0.9-2.8-1.8-16.2-10.5-30.2-23.1-43.8-36.6q-1-1.1-2.1-2.1-0.9-1-1.9-2c-0.9-0.9-0.9-0.9-1.8-1.8-4.6-4.9-4.6-4.9-4.6-7.7q-1 0-2 0c-2.2-2.3-4-5-5.8-7.6q-0.9-1.2-1.8-2.5c-22.5-32-37.8-68.1-43.4-106.9q-0.2-1-0.3-2.1c-8.5-58.6 6.7-121.8 41.3-169.9 0.7-0.9 0.7-0.9 1.3-1.8 6.2-8.6 12.7-16.7 20-24.3 1.9-2 3.6-3.9 5.3-6 2-2.5 4.1-4.6 6.5-6.6q0.9-0.9 1.9-1.8c1.9-1.5 3.8-2.5 6-3.5q0-1 0-2c1.3-1.3 1.3-1.3 3.2-2.7q1-0.8 2.1-1.6 1.1-0.8 2.3-1.7 1.1-0.9 2.3-1.8c7.2-5.3 14.5-10.4 22.1-15.2q1-0.6 2.1-1.3c30-18.8 64.8-30.1 99.9-33.7q1.4-0.2 2.9-0.3c46.7-4.6 94.8 5.1 136.1 27.3z"/><path fill="#b38942" d="m364 64q1 0.5 2 1c15.4 8.2 29.4 18.1 42.4 29.6q1.7 1.5 3.5 3c26.9 23.3 48.7 52.5 62.3 85.5q1 2.5 2.2 4.9c7.9 17.9 12.4 36.8 15.6 56q0.2 1.2 0.4 2.4c3.7 23.7 2.8 49.1-1.4 72.6-0.2 1.3-0.2 1.3-0.4 2.6-6.6 38.4-23 73.1-46 104.3q-0.8 1-1.6 2.1c-1.3 1.7-2.6 3.4-4 5q-1 0-2 0-0.3 0.8-0.6 1.6c-2 3.4-4.6 6.1-7.3 9q-0.8 0.8-1.7 1.7-2.2 2.4-4.4 4.7-0.8 0.8-1.6 1.7c-1.4 1.3-1.4 1.3-3.4 1.3q0 1 0 2c-2.4 2.6-5.3 4.7-8 7q-0.7 0.6-1.5 1.3c-50.9 43.2-116 61-181.9 56.2-27.7-2.4-55.8-9.7-80.6-22.5q-2-1-4.1-2c-8-3.8-15.5-8-22.9-13-1.4-0.9-1.4-0.9-2.8-1.8-16.2-10.5-30.2-23.1-43.8-36.6q-1-1.1-2.1-2.1-0.9-1-1.9-2c-0.9-0.9-0.9-0.9-1.8-1.8-4.6-4.9-4.6-4.9-4.6-7.7q-1 0-2 0c-2.2-2.3-4-5-5.8-7.6q-0.9-1.2-1.8-2.5c-22.5-32-37.8-68.1-43.4-106.9q-0.2-1-0.3-2.1c-8.5-58.6 6.7-121.8 41.3-169.9 0.7-0.9 0.7-0.9 1.3-1.8 6.2-8.6 12.7-16.7 20-24.3 1.9-2 3.6-3.9 5.3-6 2-2.5 4.1-4.6 6.5-6.6q0.9-0.9 1.9-1.8c1.9-1.5 3.8-2.5 6-3.5q0-1 0-2c1.3-1.3 1.3-1.3 3.2-2.7q1-0.8 2.1-1.6 1.1-0.8 2.3-1.7 1.1-0.9 2.3-1.8c7.2-5.3 14.5-10.4 22.1-15.2q1-0.6 2.1-1.3c30-18.8 64.8-30.1 99.9-33.7q1.4-0.2 2.9-0.3c46.7-4.6 94.8 5.1 136.1 27.3zm-150 33q-1.4 0.3-2.9 0.7c-14.8 3.6-28.5 8.5-42.1 15.3q-1.6 0.8-3.2 1.6c-12.4 6.4-23.8 14.7-34.2 24q-2.4 2.1-4.8 4.2c-6.6 5.8-12.4 12.1-17.8 19.2q-0.6 0.8-1.3 1.7c-16 20.5-28.1 44.6-33.3 70.2q-0.6 2.9-1.2 5.9c-2.2 11.1-2.8 21.9-2.7 33.2q0 1.3 0 2.7c0.2 38.9 13.3 77.3 38.5 107.3q1.2 1.5 2.5 3c21.5 26.2 49.9 46.9 82.5 57q1.5 0.5 3 1c17.7 5.9 35.1 7.8 53.6 7.6q1.6 0 3.2 0c16.5 0 31.4-1.4 47.2-6.6q2.2-0.6 4.3-1.2c9.5-2.9 18.1-7.2 26.7-11.8q1-0.5 2.1-1.1c8.8-4.7 17-9.8 24.9-15.9q1.2-0.9 2.4-1.9c10-7.7 19.7-16.2 27.6-26.1 1.1-1.4 1.1-1.4 2.3-2.8 18.7-23.1 32.1-52.8 36.7-82.2q0.3-1.9 0.6-3.8c4.5-30.9 2.3-64.3-11.4-92.7-1.2-2.4-2.1-4.8-3-7.3-7.5-19.1-21.4-35.4-35.2-50.2q-1.1-1.2-2.2-2.4c-29.9-31.4-76.6-50.8-119.6-51.9-14.5-0.3-29-0.1-43.2 3.3z"/><path fill-rule="evenodd" fill="#eeb77e" d="m195.4 392.2q2.8 0.9 5.5 1.8c15.6 5 32.1 6.4 48.3 6.3q3.3-0.1 6.6 0c7.5 0 14.9-0.3 22.3-1.2q1.1-0.1 2.1-0.2c13.3-1.7 26-6.9 38.5-11.7 3.3-1.2 3.3-1.2 6.3-1.2q0-1 0-2 1.7-0.6 3.5-1.2c4.6-1.7 8.5-4 12.5-6.7q1.1-0.8 2.2-1.5c13.7-9.1 26.1-19.1 37.8-30.6q1.3-1.2 2.6-2.5c23.8-24.3 41.1-59.5 43.4-93.5q0.5 0 1 0c7.8 41.4-5.7 90-28.8 124.3-4.6 6.5-9.7 12.6-15.1 18.5-2 2.1-3.8 4.2-5.7 6.4-3.5 4-7.3 7.4-11.4 10.8q-1.5 1.2-3 2.5c-16.7 13.7-35.7 24.2-56 31.5q-1.7 0.6-3.4 1.2c-17.3 6.1-33.5 8.4-51.9 8.2q-4.7 0-9.5 0c-15.3-0.1-28.6-2-43.2-6.4-1.8-0.5-1.8-0.5-3.6-1-41.4-11.7-76.1-40.4-99.4-76-0.6-0.9-0.6-0.9-1.1-1.7-6.7-10.2-11.5-21-15.9-32.3q-0.7-1.7-1.4-3.5c-1.6-4.2-2.6-7-2.6-11.5q1 0 2 0-0.3-1.2-0.6-2.4c-4.1-17.1-4.7-33-4.4-50.6q1 0 2 0 0.4 1.5 0.8 3c1.2 4 2.5 7.8 4 11.7q0.4 1 0.8 2.1 0.8 2.1 1.6 4.2 1 2.6 2 5.1c7.1 18.1 18.3 34.1 30.8 48.9q0.8 1 1.6 2c3.7 4.5 7.9 8.2 12.4 12q1.3 1.1 2.7 2.3c6.5 5.6 12.4 11.8 19.4 16.7 0.5 0.4 9.2 5.8 19 10.3 9.8 4.4 24.4 7.6 25.3 7.9z"/><path fill="#46a18a" d="m364 64q1 0.5 2 1c15.4 8.2 29.4 18.1 42.4 29.6q1.7 1.5 3.5 3c26.9 23.3 48.7 52.5 62.3 85.5q1 2.5 2.2 4.9c7.9 17.9 12.4 36.8 15.6 56q0.2 1.2 0.4 2.4c3.7 23.7 2.8 49.1-1.4 72.6-0.2 1.3-0.2 1.3-0.4 2.6-6.6 38.4-23 73.1-46 104.3q-0.8 1-1.6 2.1c-1.3 1.7-2.6 3.4-4 5q-1 0-2 0-0.3 0.8-0.6 1.6c-2 3.4-4.6 6.1-7.3 9q-0.8 0.8-1.7 1.7-2.2 2.4-4.4 4.7-0.8 0.8-1.6 1.7c-1.4 1.3-1.4 1.3-3.4 1.3q0 1 0 2c-2.4 2.6-5.3 4.7-8 7q-0.7 0.6-1.5 1.3c-50.9 43.2-116 61-181.9 56.2-27.7-2.4-55.8-9.7-80.6-22.5q-2-1-4.1-2c-8-3.8-15.5-8-22.9-13-1.4-0.9-1.4-0.9-2.8-1.8-16.2-10.5-30.2-23.1-43.8-36.6q-1-1.1-2.1-2.1-0.9-1-1.9-2c-0.9-0.9-0.9-0.9-1.8-1.8-4.6-4.9-4.6-4.9-4.6-7.7q-1 0-2 0c-2.2-2.3-4-5-5.8-7.6q-0.9-1.2-1.8-2.5c-22.5-32-37.8-68.1-43.4-106.9q-0.2-1-0.3-2.1c-8.5-58.6 6.7-121.8 41.3-169.9 0.7-0.9 0.7-0.9 1.3-1.8 6.2-8.6 12.7-16.7 20-24.3 1.9-2 3.6-3.9 5.3-6 2-2.5 4.1-4.6 6.5-6.6q0.9-0.9 1.9-1.8c1.9-1.5 3.8-2.5 6-3.5q0-1 0-2c1.3-1.3 1.3-1.3 3.2-2.7q1-0.8 2.1-1.6 1.1-0.8 2.3-1.7 1.1-0.9 2.3-1.8c7.2-5.3 14.5-10.4 22.1-15.2q1-0.6 2.1-1.3c30-18.8 64.8-30.1 99.9-33.7q1.4-0.2 2.9-0.3c46.7-4.6 94.8 5.1 136.1 27.3zm-143.9-8.4q-3.8 0.7-7.7 1.2c-14.1 2.3-26.7 5.8-39.9 11.2-2.4 1-4.7 1.7-7.2 2.4-20.1 5.9-36.6 17.1-52.1 30.9-2.6 2.2-5.3 4.3-8 6.4-11.7 9.2-22.2 20.5-31.2 32.3q-1.1 1.4-2.2 2.8c-14.5 18.7-26.2 39.8-33.8 62.2q-0.7 1.8-1.3 3.7c-7.3 20.4-10.2 41.6-9.7 63.3q0.5 0 1 0 0 1.3 0.1 2.7 0.1 5 0.2 9.9 0.1 2.2 0.1 4.3c0.3 11.1 1.5 21.4 4.6 32.1q1.1 5 2 10 1 0 2 0 0 1 0 2c0.3 6.9 1.7 13.1 3.9 19.6q0.4 1.2 0.8 2.4c1.5 4.4 1.5 4.4 4.3 8q0.7 2.5 1.4 4.9c1.9 6.3 4.9 11.8 8.4 17.2 1.8 2.8 2.9 5.9 4.2 8.9q1 1.5 2 3c2 3 2 3 3.4 6.4 3.5 7.8 9.1 13.3 15.4 19 7 6.4 13.3 13.1 19.5 20.3 5.1 5.9 9.2 9.8 16.7 12.3q0 1 0 2 1.7 1 3.4 2 0.9 0.6 1.9 1.1c1.7 1.1 1.7 1.1 3.7 0.9q0 1 0 2 1 0 2 0 0 1 0 2c3 0.3 5.9 0.7 9 1 0.5 1.5 0.5 1.5 1 3q3 1.5 6 3c1 1.5 1 1.5 2 3 1.9 0.5 1.9 0.5 4 0.5 2.1 0.1 2.1 0.1 4 0.5 1 1.5 1 1.5 2 3 2.5 1 4.9 1.8 7.4 2.6q2.5 0.8 4.9 1.6c1.4 0.4 1.4 0.4 2.8 0.8q4.7 1.6 9.4 3.3c13.1 4.6 25.7 8.4 39.5 9.7 1 0.1 1 0.1 2.1 0.2 25.8 2.3 56.9 4.1 81.9-4.2q0-1 0-2 1.4-0.1 2.8-0.3c5.3-0.7 10.1-2.7 15-4.5q1.4-0.5 2.8-1.1c10.9-3.7 10.9-3.7 21.1-8.7 2.3-1.4 2.3-1.4 5.4-2.1 5.6-1.5 10.2-5.1 14.9-8.3q1.1-0.8 2.3-1.6c0.9-0.7 0.9-0.7 1.7-1.4q0-1 0-2c0.8-0.1 0.8-0.1 1.6-0.3 8.3-2.6 16.4-10.3 23.2-15.6q0.9-0.7 1.9-1.5c1.5-1.1 2.9-2.4 4.3-3.6q0-1 0-2c0.9-0.4 0.9-0.4 1.7-0.7 7-3.9 15.9-13.1 19.3-20.5 1-1.8 1-1.8 4-2.8 1.6-2.1 1.6-2.1 3.1-4.7 2.7-4.4 5.4-8.5 8.3-12.6 3.7-5.2 7-10.6 10-16.2 1.4-2.5 2.6-4.5 4.6-6.5q1-2.5 1.9-5.1 0.6-1.5 1.1-3 0.5-1.5 1-2.9 0.7-1.9 1.4-3.8 0.8-2.1 1.6-4.2 0.6-1.6 1.2-3.2c4.1-11.1 6.7-22.1 9.1-33.7 0.8-3.4 1.7-6.7 2.7-10.1 1.2-4.2 1.2-8.2 1.3-12.5q0-1.3 0-2.6 0.1-4.1 0.1-8.3c0-1.4 0-1.4 0-2.8 0-19.1-1.1-38.7-7.8-56.8-0.7-2.2-1.1-4.3-1.4-6.6-1-5.4-3-10.4-5-15.5-1.4-3.8-2.8-7.6-3.9-11.5-1-3.7-2.5-7-4.3-10.4q-0.8-2-1.5-4c-2.4-6.5-2.4-6.5-6.5-12q-1.1-2.5-2-5-0.6-1.4-1.1-2.8c-0.5-1.1-0.5-1.1-0.9-2.2q-1 0-2 0-0.4-1.1-0.8-2.2c-1.8-4.1-4.1-7-7.7-9.7-2.9-2.4-4.5-5-6.5-8.1-1.1-1.1-1.1-1.1-2.2-2.2-2.6-2.6-5-5.3-7.4-8.1-5.7-6.8-11.5-13.1-18.4-18.7-0.8-0.6-0.8-0.6-1.5-1.3-21.7-17.7-45-30.7-71.5-39.7q-1.1-0.4-2.3-0.8c-18-6.1-38.3-10.3-57.3-10.4q-1.1 0-2.1 0-3.4 0-6.7 0c-1.2 0-1.2 0-2.4 0-10.1 0-20.1 0.1-30.1 1.8z"/><path fill="#5fbca4" d="m290 172.4c12.1 7.3 21.9 19.4 31.8 29.3q2.4 2.5 4.8 4.9 4.4 4.4 8.8 8.8c5.2 5.2 5.2 5.2 10.4 10.3 2.8 2.9 5.6 5.7 8.2 8.8 3.1 3.6 6.4 6.9 9.8 10.2q0.8 0.8 1.6 1.6 3.2 3.1 6.4 6.3c13.4 12.9 13.4 12.9 14.7 21.9-0.1 12.3-3.2 18.7-11.5 27.5q-1.9 2.1-3.8 4.2c-7.7 8.4-15.7 16.5-23.7 24.5q-1 1.1-2.1 2.2-5.7 5.7-11.4 11.4-4.6 4.7-9.3 9.4-5.6 5.7-11.3 11.4-2.2 2.2-4.3 4.4c-15.8 16.1-15.8 16.1-26.6 18.2-10.1 0-15.2-3.4-22.3-10.3q-1.6-1.7-3.2-3.4-1.1-1.2-2.3-2.5c-3.5-5.2-4.6-11.3-3.7-17.5 2.2-8.4 6.7-13.5 12.9-19.4q1.3-1.3 2.6-2.6 4.1-4.1 8.3-8.1 4.1-4.1 8.3-8.1 2.5-2.6 5.1-5.1c4.3-4.1 8.4-8.4 12.3-13 1.7-2 3.6-3.8 5.5-5.6q1-1 2-1.9 2-2 4.1-3.9c1-0.9 1-0.9 2-1.9q0.8-0.8 1.7-1.7c1.4-1.6 1.4-1.6 1.1-3.4-1.4-3.4-3.9-5.7-6.5-8.2-0.8-0.8-0.8-0.8-1.7-1.7q-1.9-1.9-3.8-3.8-3-2.9-6-5.9-7.5-7.4-14.9-14.7-6.3-6.2-12.6-12.5-3-2.9-5.9-5.8-1.9-1.8-3.7-3.6-0.8-0.8-1.6-1.6c-6.1-6.1-8.3-11.9-8.4-20.3 0-7.6 2-12.5 7.2-18.2 8.7-8.2 18.5-16.2 31-10.6z"/><path fill="#5fbca4" d="m190.8 172.7c5.5 2.6 9.5 6 13.7 10.3q1 1.1 2.1 2.1 3.5 3.5 6.9 7 2.4 2.4 4.8 4.8 5.1 5.1 10.1 10.2 6.4 6.4 12.9 12.9 6.2 6.2 12.3 12.4 1.2 1.2 2.4 2.4 3.3 3.3 6.6 6.7 1 0.9 2 1.9c3.8 3.8 7.4 7.8 10.9 11.9 1.3 1.5 2.7 2.9 4.2 4.3 7 7.2 7.7 13.1 7.6 22.9-1.3 16.4-20.4 29.8-31.2 40.7-1.3 1.2-1.3 1.2-2.6 2.6q-6.8 6.8-13.6 13.5-7 7-14 14.1-5.4 5.4-10.8 10.8-2.5 2.6-5.1 5.2-3.6 3.6-7.2 7.2-1.1 1-2.1 2.1c-4.5 4.4-8.4 7.9-14.9 8.7q-1.6 0-3.2 0-1.6 0-3.3 0c-7.5-0.9-12-4.5-17-9.7q-0.9-0.8-1.8-1.7c-5.1-5.3-7.9-9.8-7.9-17.4 0.4-10.7 5.1-16.3 12.4-23.6q4.1-3.8 8.2-7.4c2.2-2 4.1-4 6-6.2 5.3-6.3 11.2-11.9 17.1-17.6 4.6-4.6 9-9.2 13.2-14.1 1.9-2.2 3.9-4.2 5.9-6.2q1.1-1 2.1-2 0.7-0.8 1.5-1.5c-5.2-6.4-11-12.1-16.9-17.9q-2.8-2.8-5.5-5.5-7.9-7.8-15.8-15.6-4.8-4.8-9.6-9.6-1.9-1.8-3.7-3.6-2.6-2.5-5.1-5.1-0.8-0.7-1.5-1.5c-5.9-5.9-8-11.8-8.2-20 0.1-9.1 3.3-13.5 9.6-20 8.1-7.7 16.9-12.8 28.5-8.5z"/><path fill="#976131" d="m430 269c2.4 3.7 2.3 5.4 2.3 9.8q0 1 0 2 0 2.2 0 4.3-0.1 3.2 0 6.4c0 9-0.7 17.6-2.3 26.5q-0.3 1.5-0.5 3c-2.5 13.3-6.1 25.6-11.5 38q-0.5 1.3-1.1 2.6c-7.6 18.1-18.7 33.3-31.6 47.9q-1.7 1.9-3.3 3.9c-16.8 19.8-40.6 33.2-64 43.6-0.9 0.4-0.9 0.4-1.9 0.8-3.2 1.5-6.2 2.6-9.7 3.3-2.4 0.4-4.6 1-7 1.8-27.7 9-59.2 8.9-87.4 2.1q-1.2-0.3-2.5-0.6c-36.1-8.7-72.3-31.1-95.5-60.4q-1.2-1.5-2.5-3.1c-4.2-5.3-8.2-10.6-11.3-16.6-2-3.8-4.2-7.4-6.4-11-4.6-8.2-8.1-16.4-11-25.4q-0.6-1.5-1.1-3.1c-2-6-3.3-11.5-3.7-17.8 3.2 1.6 3.5 4.9 4.6 8.1 6.4 17.5 15.5 33.5 27.4 47.9q1.2 1.5 2.5 3.1c21.2 25.7 49.4 46 81.5 55.9q1.5 0.5 3 1c17.7 5.9 35.1 7.8 53.6 7.6q1.6 0 3.2 0c16.5 0 31.4-1.4 47.2-6.6q2.2-0.6 4.3-1.2c9.5-2.9 18.1-7.2 26.7-11.8q1-0.5 2.1-1.1c8.8-4.7 17-9.8 24.9-15.9q1.2-0.9 2.5-1.9c9.6-7.5 18.9-15.6 26.5-25.1q1.1-1.4 2.3-2.8c26.8-33.2 37.4-73.4 39.7-115.2z"/><path fill="#46a18a" d="m290 172.4c12.1 7.3 21.9 19.4 31.8 29.3q2.4 2.5 4.8 4.9 4.4 4.4 8.8 8.8c5.2 5.2 5.2 5.2 10.4 10.3 2.8 2.9 5.6 5.7 8.2 8.8 3.1 3.6 6.4 6.9 9.8 10.2q0.8 0.8 1.6 1.6 3.2 3.1 6.4 6.3c13.4 12.9 13.4 12.9 14.7 21.9-0.1 12.3-3.2 18.7-11.5 27.5q-1.9 2.1-3.8 4.2c-7.7 8.4-15.7 16.5-23.7 24.5q-1 1.1-2.1 2.2-5.7 5.7-11.4 11.4-4.6 4.7-9.3 9.4-5.6 5.7-11.3 11.4-2.2 2.2-4.3 4.4c-15.8 16.1-15.8 16.1-26.6 18.2-10.1 0-15.2-3.4-22.3-10.3q-1.6-1.7-3.2-3.4-1.1-1.2-2.3-2.5c-3.5-5.2-4.6-11.3-3.7-17.5 2.2-8.4 6.7-13.5 12.9-19.4q1.3-1.3 2.6-2.6 4.1-4.1 8.3-8.1 4.1-4.1 8.3-8.1 2.5-2.6 5.1-5.1c4.3-4.1 8.4-8.4 12.3-13 1.7-2 3.6-3.8 5.5-5.6q1-1 2-1.9 2-2 4.1-3.9c1-0.9 1-0.9 2-1.9q0.8-0.8 1.7-1.7c1.4-1.6 1.4-1.6 1.1-3.4-1.4-3.4-3.9-5.7-6.5-8.2-0.8-0.8-0.8-0.8-1.7-1.7q-1.9-1.9-3.8-3.8-3-2.9-6-5.9-7.5-7.4-14.9-14.7-6.3-6.2-12.6-12.5-3-2.9-5.9-5.8-1.9-1.8-3.7-3.6-0.8-0.8-1.6-1.6c-6.1-6.1-8.3-11.9-8.4-20.3 0-7.6 2-12.5 7.2-18.2 8.7-8.2 18.5-16.2 31-10.6zm-25 14.6q-1.1 1.2-2.3 2.5c-2.9 4.2-2.4 8.5-1.7 13.5 1.6 3.4 1.6 3.4 4 6 0.6 0.8 0.6 0.8 1.3 1.6 3.1 3.9 3.1 3.9 6.7 7.4q1 0 2 0 0 1 0 2 1 0 2 0 0 1 0 2c1.6 1.6 1.6 1.6 3.6 3.2 4 3.4 7.5 7 11.1 10.9 8 8.7 16.4 17.1 24.8 25.5q1 1 2 2 5.8 5.7 11.5 11.4c-1.6 3.9-4 6.2-7 9.1q-0.7 0.8-1.5 1.5-2.3 2.3-4.7 4.6-3.1 3.1-6.2 6.1-0.7 0.8-1.5 1.5c-3.3 3.3-6.4 6.7-9.4 10.3-4.1 4.6-8.6 8.9-13 13.2-3.6 3.5-7.1 7.1-10.4 10.9-2 2.5-4.1 4.6-6.6 6.6-6.1 4.7-6.1 4.7-9.6 11.4-0.2 7.2 1.7 11.3 6.6 16.6 4.3 4.5 7.6 7.4 14 7.8 6.4-0.2 9.9-3.3 14.3-7.6q2.5-2.8 4.9-5.6c2.5-2.8 5.3-5.4 8.1-7.9 6.5-6 12.9-12.2 19.2-18.5q1.6-1.7 3.3-3.4 3.4-3.4 6.9-6.9 4.4-4.3 8.7-8.7 3.5-3.4 6.9-6.8 1.6-1.7 3.2-3.3c15.4-14.1 15.4-14.1 21.4-33.2-1.7-7.2-7.2-12.7-12.3-17.7q-1-1-2-2-3.2-3.2-6.4-6.4-2.3-2.2-4.5-4.5-5.9-5.8-11.9-11.7-9.4-9.4-18.9-18.8-3.3-3.3-6.6-6.5-2-2.1-4-4.1-0.9-0.9-1.9-1.8c-3.7-3.7-7.2-7.5-10.6-11.5-1.8-2-3.7-3.9-5.7-5.6q-1-0.9-2-1.8c-3.8-2.8-8.2-2.9-12.8-2.9-5.7 1.2-9.2 5.4-13 9.6z"/><path fill="#46a18a" d="m190.8 172.7c5.5 2.6 9.5 6 13.7 10.3q1 1.1 2.1 2.1 3.5 3.5 6.9 7 2.4 2.4 4.8 4.8 5.1 5.1 10.1 10.2 6.4 6.4 12.9 12.9 6.2 6.2 12.3 12.4 1.2 1.2 2.4 2.4 3.3 3.3 6.6 6.7 1 0.9 2 1.9c3.8 3.8 7.4 7.8 10.9 11.9 1.3 1.5 2.7 2.9 4.2 4.3 7 7.2 7.7 13.1 7.6 22.9-1.3 16.4-20.4 29.8-31.2 40.7-1.3 1.2-1.3 1.2-2.6 2.6q-6.8 6.8-13.6 13.5-7 7-14 14.1-5.4 5.4-10.8 10.8-2.5 2.6-5.1 5.2-3.6 3.6-7.2 7.2-1.1 1-2.1 2.1c-4.5 4.4-8.4 7.9-14.9 8.7q-1.6 0-3.2 0-1.6 0-3.3 0c-7.5-0.9-12-4.5-17-9.7q-0.9-0.8-1.8-1.7c-5.1-5.3-7.9-9.8-7.9-17.4 0.4-10.7 5.1-16.3 12.4-23.6q4.1-3.8 8.2-7.4c2.2-2 4.1-4 6-6.2 5.3-6.3 11.2-11.9 17.1-17.6 4.6-4.6 9-9.2 13.2-14.1 1.9-2.2 3.9-4.2 5.9-6.2q1.1-1 2.1-2 0.7-0.8 1.5-1.5c-5.2-6.4-11-12.1-16.9-17.9q-2.8-2.8-5.5-5.5-7.9-7.8-15.8-15.6-4.8-4.8-9.6-9.6-1.9-1.8-3.7-3.6-2.6-2.5-5.1-5.1-0.8-0.7-1.5-1.5c-5.9-5.9-8-11.8-8.2-20 0.1-9.1 3.3-13.5 9.6-20 8.1-7.7 16.9-12.8 28.5-8.5zm-22.8 12.3q-0.9 1-1.9 1.9c-3.6 4.2-4.8 7.4-4.6 12.8 1.3 5.8 4.5 9.6 8.6 13.7q0.8 0.8 1.5 1.6 2.5 2.4 5 4.9 1.8 1.7 3.5 3.4 4.6 4.6 9.2 9.1 7.3 7.3 14.6 14.5 2.6 2.6 5.1 5.1 1.6 1.5 3.2 3.1 1.3 1.3 2.7 2.7c2.1 2.2 2.1 2.2 3.1 4.2q1 0 2 0 0.4 0.9 0.7 1.8c1.9 3.2 4.6 5.1 7.5 7.4 2.1 2.1 2.6 2.9 2.8 5.8-1.6 2.2-1.6 2.2-4.1 4.5q-1.2 1.2-2.6 2.5-1.3 1.3-2.7 2.6-2.7 2.6-5.4 5.2-1.2 1.1-2.4 2.3c-2 1.7-2 1.7-1.8 3.9-0.9 0.4-0.9 0.4-1.8 0.8-2.4 1.3-3.7 2.7-5.5 4.8-3.6 4.3-7.3 8.3-11.1 12.3-1 1.1-1 1.1-2 2.2q-7.8 8.2-15.8 16.2-1 1.1-2.1 2.2c-3.4 3.4-6.9 6.5-10.7 9.5-2 3.9-1.6 9-0.3 13.1 0.7 1.7 1.5 3.3 2.3 4.9q1 0 2 0 0.4 0.9 0.8 1.8c2.1 3.9 5.3 6.2 9.2 8.2 5.8 1.2 9.9 0 15-3 2.8-2.3 5.3-4.9 7.8-7.5q1.2-1.1 2.3-2.3 3.8-3.7 7.6-7.5 2.6-2.6 5.2-5.2 5.5-5.5 11-11 7-7.1 14-14.1 5.4-5.4 10.8-10.8 2.6-2.6 5.2-5.2 3.6-3.6 7.3-7.3 1-1 2.1-2.1c9.8-9.8 9.8-9.8 13-22.8 0.1-1.5 0.1-1.5 0.1-3.1-0.8-5.9-5-9.9-9.1-14q-1.4-1.3-2.8-2.7-1.4-1.4-2.8-2.8c-5.6-5.5-11.1-10.9-16.2-16.9-2.1-2.4-4.5-4.6-7-6.7-3.1-2.7-6-5.5-8.6-8.6-4-4.5-8.1-8.8-12.4-13q-1.1-1.2-2.3-2.4-2.5-2.4-4.9-4.9-3.8-3.7-7.6-7.5-2.4-2.4-4.8-4.8-1.1-1.1-2.3-2.3-1-1-2.1-2.1-0.9-0.9-1.8-1.8c-4.4-4.1-7.8-4.2-13.6-4.1-5.3 0.9-8.4 3.7-12.1 7.5z"/><path fill="#d8af77" d="m251.6 53.8c1.1-0.1 1.1-0.1 2.2-0.1 10.8 0.1 21.3 0.5 31.9 2.8 2.6 0.6 5.2 1 7.8 1.5 21.7 3.9 43.3 11 62.5 22q1 0.5 1.9 1.1c16.4 9.4 30.7 20.8 45.1 32.9q-0.5 1.5-1 3c-0.8-0.8-0.8-0.8-1.6-1.5-8-7.7-17-13.6-26.4-19.5q-1-0.7-2.1-1.3c-36.6-23.1-80.6-35.9-123.9-33.7q-1.8 0.1-3.7 0.2c-15.4 0.6-30.4 1.7-45.3 5.8q-1.9 0.5-3.9 0.9c-9.3 2.4-18.2 5.5-27.1 9.1-1.1 0.4-1.1 0.4-2.2 0.9-34 14-65.2 36.9-87.8 66.1-1.1 1.3-1.1 1.3-2.1 2.7-10.7 13.7-19.5 28.6-26.9 44.3q-0.7 1.4-1.4 2.8c-4 8.4-6.9 17.3-9.6 26.2q-0.5 1.6-1 3.2c-2.6 8.6-4.3 17.2-5.7 26.2-0.3 1.9-0.3 1.9-0.6 3.9-1 6.2-2 12.4-2.7 18.7q-0.5 0-1 0c-1.9-54.4 22.8-106.8 59.3-146.1 7.7-8.1 15.3-16.1 24.2-22.9 2.7-2.2 5.4-4.5 8.1-6.8 16.5-13.8 35.7-23.6 56.4-29.3 3.4-1 6.7-2.2 10-3.5 9.5-3.4 19.1-5.3 29.1-7 1-0.2 1-0.2 2.1-0.4 11.7-1.9 23.5-2.2 35.4-2.2z"/><path fill="#fdf2e4" d="m181 142c2 2 2 2 2.2 5-1 5.9-6.2 9.9-10.2 14-0.8 0.9-0.8 0.9-1.6 1.8-1.1 1.1-2.2 2.2-3.4 3.2q-1 0-2 0-1 2-2 4-1 0-2 0-0.3 0.8-0.6 1.6c-1.9 3.3-4.4 5.8-7 8.5-5.1 5.4-9.8 11-14.4 16.9q-1.9 2.4-3.9 4.8-3.3 4.2-6.5 8.4c-11.4 15.1-11.4 15.1-15.6 17.8-2.7-0.3-2.7-0.3-5-1-2.6-7.7-0.8-14.6 1.9-21.9 1.2-3.2 1.2-3.2 2-7 1-4.3 2.8-7.9 5-11.8q0.6-1 1.2-2.1c11.4-19.3 37.1-47.1 61.9-42.2z"/><path fill="#faf3e3" d="m224.5 120.9c2 1.1 3.8 2.4 5.5 4.1 0.4 4.5 0.4 7.1-1.5 11.2-4.2 4.7-9.6 8.5-16 9-9.9 0.2-9.9 0.2-14.5-3.2-2.8-3-3.3-5.5-3.1-9.4 0.7-4.6 2.6-6.7 6.2-9.4q0.9-0.6 1.9-1.2 0.9-0.6 1.8-1.1c5.6-2.2 14-2 19.7 0z"/><path fill="#f6e2c1" d="m189 67q0 1 0 2-1.1 0.3-2.2 0.7c-30.3 10.3-57.6 25.4-82 46-1.8 1.3-1.8 1.3-3.8 1.3 3.9-12 17.2-20.9 27-28q1.6-1.2 3.2-2.3c17-11.7 37-20.1 57.8-19.7z"/><path fill="#b9efe1" d="m289 198c9.6 1.1 16.8 7.2 23.1 14.1 1.9 2 1.9 2 4.3 3.7 3 2.6 5.4 5.4 7.8 8.5 0.7 0.8 0.7 0.8 1.4 1.7 3.1 3.9 4.1 7 4.4 12-6.5 0.5-10.1-3.2-15-7q-1.6-1.2-3.2-2.4c-8.6-6.9-18.8-16.1-22.8-26.6q0-2 0-4z"/><path fill="#b9efe1" d="m187 194c9.1 1 16.2 6.7 22.3 13.3 1.8 1.8 3.6 3.3 5.6 4.9 6.5 5.6 13.3 12.9 14.1 21.8-5.6-0.4-9.2-1.9-13.6-5.3q-0.9-0.6-1.8-1.3c-9.6-7.2-23.8-18.5-26.3-30.7q-0.1-1.3-0.3-2.7z"/><path fill="#b9efe1" d="m339.1 243.6c4.4 0.6 7.1 3 9.9 6.4 1 3.8 1 3.8 1 7-1 1-1 1-3.8 1.4-4.2-0.5-5.5-2.1-8.2-5.4-2.1-3.2-2.3-4.3-2-8 1-1 1-1 3.1-1.4z"/><path fill="#b9efe1" d="m235 242c3.4-0.4 6-0.6 9 1.1 3.2 2.6 4.8 4.2 6 8.2q0 1.3 0 2.7c-1 1-1 1-4.2 1.5-4-0.5-4.6-0.8-7.2-3.6-2.4-3.2-3.4-5.8-3.6-9.9z"/></svg>