<svg version="1.2" xmlns="http://www.w3.org/2000/svg" viewBox="0 0 1024 1054" width="1024" height="1054"><path fill="#f4ce99" d="M494.3 81.8q1.2-.1 2.5-.1c78.2.1 156.4 21.4 223.2 62.3l2 1.2c16 9.7 30.9 20.4 45.2 32.3 2.5 2.1 5 4.1 7.5 6.1 4.6 3.8 9 7.7 13.3 11.8 2.3 2.1 4.4 3.9 7 5.6v2l1.6.6c3.4 2 6 4.7 8.7 7.5l1.8 1.8c3.5 3.6 7 7.3 10.2 11.2 2 2.2 4 4.4 5.9 6.5 5.1 5.7 9.8 11.6 14.4 17.6q2 2.5 3.9 5c43.3 55.6 70.8 119.9 84.5 188.8q.3 1.3.5 2.7C940 512.2 933.1 584.8 912 650l-.8 2.6c-18.8 57.9-50.3 108-89.8 153.8q-1.9 2.1-3.7 4.3l-1.8 2.2-1.6 1.8C813 816 813 816 811 816v2h-2v2h-2v2h-2v2h-2v2h-2v2c-1.3 1.3-1.3 1.3-3.3 2.9q-4.6 3.9-9 8.1c-10 9.3-20.7 17.8-31.7 26q-1 .8-2 1.5c-11 8.2-22.2 15.6-34 22.5q-1.3.7-2.6 1.5c-10.6 6.2-21.4 12.2-32.5 17.6q-2.8 1.3-5.6 2.7c-55.1 27.3-118.5 40.9-179.8 40.5H489c-15.1 0-30-.6-45-2.3l-3.8-.4c-73.1-8.5-147.4-36.7-205.4-82.2q-2.6-2.1-5.3-4c-9.8-7.5-19.4-15.2-28.4-23.7-2.1-1.9-4.2-3.7-6.4-5.4q-.9-.6-1.7-1.3v-2h-2v-2q-.9-.4-1.7-.8c-2.7-1.4-4.4-3.1-6.5-5.2q-1.1-1-2.2-2.1C179 818 179 818 179 816h-2c-1.3-1.3-1.3-1.3-2.9-3.3-3-3.5-6.2-6.9-9.3-10.3-5.5-6-10.5-12.2-15.4-18.6q-2-2.6-4.1-5.2c-13.9-17.2-25.5-36.3-36.3-55.6q-1-1.7-1.9-3.4c-28.6-51.9-44.5-111.4-48.9-170.3q-.3-3-.5-6C53.4 493.1 60.5 440 76 392.1q1.5-4.6 2.9-9.1c6.7-21.4 15.5-42.2 26.1-62l1.2-2.2c14.1-26.7 30.7-51.5 49.8-74.8l2.6-3.2q2.2-2.7 4.5-5.4l4-5.2q.9-1.1 1.9-2.2h2l.8-1.8c1.2-2.2 2.3-3.6 4.1-5.3q.9-.9 1.7-1.8 1-.9 1.9-1.9 1-.9 2-1.9l4.1-4.1 6.3-6.3 4-4 1.9-1.9c10.1-10 10.1-10 13.2-10v-2c2-1.7 4.1-3.4 6.2-5q.9-.7 1.9-1.5l4-3q2.6-2 5.1-4c14.2-11.1 29-21.1 44.6-30.2q2.8-1.7 5.7-3.4 5.2-3 10.5-5.9l2.6-1.4c52.1-28.5 110.3-45 169.4-49.6q1.7-.1 3.5-.3c9.9-.7 19.8-.9 29.8-1z"/><path fill="#b18440" d="M497.3 81.8q1.2-.1 2.5-.1c78.2.1 156.4 21.4 223.2 62.3l2 1.2c16 9.7 30.9 20.4 45.2 32.3 2.5 2.1 5 4.1 7.5 6.1 4.6 3.8 9 7.7 13.3 11.8 2.3 2.1 4.4 3.9 7 5.6v2l1.6.6c3.4 2 6 4.7 8.7 7.5l1.8 1.8c3.5 3.6 7 7.3 10.2 11.2 2 2.2 4 4.4 5.9 6.5 5.1 5.7 9.8 11.6 14.4 17.6q2 2.5 3.9 5c43.3 55.6 70.8 119.9 84.5 188.8q.3 1.3.5 2.7C943 512.2 936.1 584.8 915 650l-.8 2.6c-18.8 57.9-50.3 108-89.8 153.8q-1.9 2.1-3.7 4.3l-1.8 2.2-1.6 1.8C816 816 816 816 814 816v2h-2v2h-2v2h-2v2h-2v2h-2v2c-1.3 1.3-1.3 1.3-3.3 2.9q-4.6 3.9-9 8.1c-10 9.3-20.7 17.8-31.7 26q-1 .8-2 1.5c-11 8.2-22.2 15.6-34 22.5q-1.3.7-2.6 1.5c-10.6 6.2-21.4 12.2-32.5 17.6q-2.8 1.3-5.6 2.7c-55.1 27.3-118.5 40.9-179.8 40.5H492c-15.1 0-30-.6-45-2.3l-3.8-.4c-73.1-8.5-147.4-36.7-205.4-82.2q-2.6-2.1-5.3-4c-9.8-7.5-19.4-15.2-28.4-23.7-2.1-1.9-4.2-3.7-6.4-5.4q-.9-.6-1.7-1.3v-2h-2v-2q-.9-.4-1.7-.8c-2.7-1.4-4.4-3.1-6.5-5.2q-1.1-1-2.2-2.1C182 818 182 818 182 816h-2c-1.3-1.3-1.3-1.3-2.9-3.3-3-3.5-6.2-6.9-9.3-10.3-5.5-6-10.5-12.2-15.4-18.6q-2-2.6-4.1-5.2c-13.9-17.2-25.5-36.3-36.3-55.6q-1-1.7-1.9-3.4c-28.6-51.9-44.5-111.4-48.9-170.3q-.3-3-.5-6C56.4 493.1 63.5 440 79 392.1q1.5-4.6 2.9-9.1c6.7-21.4 15.5-42.2 26.1-62l1.2-2.2c14.1-26.7 30.7-51.5 49.8-74.8l2.6-3.2q2.2-2.7 4.5-5.4l4-5.2q.9-1.1 1.9-2.2h2l.8-1.8c1.2-2.2 2.3-3.6 4.1-5.3q.9-.9 1.7-1.8 1-.9 1.9-1.9 1-.9 2-1.9l4.1-4.1 6.3-6.3 4-4 1.9-1.9c10.1-10 10.1-10 13.2-10v-2c2-1.7 4.1-3.4 6.2-5q.9-.7 1.9-1.5l4-3q2.6-2 5.1-4c14.2-11.1 29-21.1 44.6-30.2q2.8-1.7 5.7-3.4 5.2-3 10.5-5.9l2.6-1.4c52.1-28.5 110.3-45 169.4-49.6q1.7-.1 3.5-.3c9.9-.7 19.8-.9 29.8-1zM448 192.1c-1 .2-1 .2-2.1.3q-5.7 1-11.4 2.1-1.6.4-3.3.7c-8.2 1.6-16.2 3.5-24.2 5.9q-1.1.3-2.2.7c-30.7 9.4-60.4 23-86.8 41.3q-.9.6-1.9 1.3c-11.7 8.1-22.6 17.1-33.1 26.7q-1.5 1.4-3.1 2.8c-14.9 13.4-27.6 28.5-39.7 44.5q-1.7 2.4-3.6 4.8c-16.1 21.6-29.3 46.6-38.6 71.9-.6 1.6-.6 1.6-1.3 3.3-21.2 56.4-25.3 121.4-11.3 180q.9 3.8 1.7 7.6c4.9 21.9 13.1 43 22.9 63.1q.6 1.2 1.2 2.5c9.9 20.3 22.3 39.2 36.8 56.5q.7.8 1.4 1.7c12.7 15.4 26.8 30.1 42.6 42.3q2.8 2.4 5.6 4.7c18.5 15.4 38.9 28.1 60.6 38.4q2.6 1.3 5.1 2.6c53.3 26.3 118.6 35.8 177.3 26.7q3.2-.5 6.4-.8c73.2-7.8 149.4-52.7 195.8-109.2l4.2-5.4q1.4-1.7 2.9-3.5c6.9-8.5 13.2-17.2 19.1-26.5q.5-.9 1.1-1.7c15.2-24.1 26.9-49.9 34.9-77.3l1-3.2c3.3-9.7 5.2-19.7 7-29.8q.3-1.8.7-3.6c3.3-18.3 4.8-36.2 4.7-54.8v-2.8c0-18.7-1.5-37.1-5.2-55.5l-.4-2c-2-9.9-4.2-19.6-7.2-29.3q-1-3.2-1.9-6.5c-2.2-7.7-4.5-15.2-7.7-22.5q-.6-1.6-1.3-3.2c-8.5-20.4-18.8-40.8-31.7-58.8q-.7-1-1.5-2.1c-7.7-10.8-15.7-21.1-24.5-30.9q-.7-.8-1.5-1.6c-7.3-8.2-14.8-16.2-23.1-23.4l-5.4-4.6c-46.2-40.8-104.3-65.6-165-74.4q-1.7-.3-3.5-.5c-12.2-1.8-24.3-1.8-36.6-1.8q-5.3 0-10.5-.1c-14.7 0-28.9 1-43.4 3.4"/><path fill="#5fbca4" d="M496.3 80.8q1.2-.1 2.5-.1c78.2.1 156.4 21.4 223.2 62.3l2 1.2c16 9.7 30.9 20.4 45.2 32.3 2.5 2.1 5 4.1 7.5 6.1 4.6 3.8 9 7.7 13.3 11.8 2.3 2.1 4.4 3.9 7 5.6v2l1.6.6c3.4 2 6 4.7 8.7 7.5l1.8 1.8c3.5 3.6 7 7.3 10.2 11.2 2 2.2 4 4.4 5.9 6.5 5.1 5.7 9.8 11.6 14.4 17.6q2 2.5 3.9 5c43.3 55.6 70.8 119.9 84.5 188.8q.3 1.3.5 2.7C942 511.2 935.1 583.8 914 649l-.8 2.6c-18.8 57.9-50.3 108-89.8 153.8q-1.9 2.1-3.7 4.3l-1.8 2.2-1.6 1.8C815 815 815 815 813 815v2h-2v2h-2v2h-2v2h-2v2h-2v2c-1.3 1.3-1.3 1.3-3.3 2.9q-4.6 3.9-9 8.1c-10 9.3-20.7 17.8-31.7 26q-1 .8-2 1.5c-11 8.2-22.2 15.6-34 22.5q-1.3.7-2.6 1.5c-10.6 6.2-21.4 12.2-32.5 17.6q-2.8 1.3-5.6 2.7c-55.1 27.3-118.5 40.9-179.8 40.5H491c-15.1 0-30-.6-45-2.3l-3.8-.4c-73.1-8.5-147.4-36.7-205.4-82.2q-2.6-2.1-5.3-4c-9.8-7.5-19.4-15.2-28.4-23.7-2.1-1.9-4.2-3.7-6.4-5.4q-.9-.6-1.7-1.3v-2h-2v-2q-.9-.4-1.7-.8c-2.7-1.4-4.4-3.1-6.5-5.2q-1.1-1-2.2-2.1C181 817 181 817 181 815h-2c-1.3-1.3-1.3-1.3-2.9-3.3-3-3.5-6.2-6.9-9.3-10.3-5.5-6-10.5-12.2-15.4-18.6q-2-2.6-4.1-5.2c-13.9-17.2-25.5-36.3-36.3-55.6q-1-1.7-1.9-3.4c-28.6-51.9-44.5-111.4-48.9-170.3q-.3-3-.5-6C55.4 492.1 62.5 439 78 391.1q1.5-4.6 2.9-9.1c6.7-21.4 15.5-42.2 26.1-62l1.2-2.2c14.1-26.7 30.7-51.5 49.8-74.8l2.6-3.2q2.2-2.7 4.5-5.4l4-5.2q.9-1.1 1.9-2.2h2l.8-1.8c1.2-2.2 2.3-3.6 4.1-5.3q.9-.9 1.7-1.8 1-.9 1.9-1.9 1-.9 2-1.9l4.1-4.1 6.3-6.3 4-4 1.9-1.9c10.1-10 10.1-10 13.2-10v-2c2-1.7 4.1-3.4 6.2-5q.9-.7 1.9-1.5l4-3q2.6-2 5.1-4c14.2-11.1 29-21.1 44.6-30.2q2.8-1.7 5.7-3.4 5.2-3 10.5-5.9l2.6-1.4c52.1-28.5 110.3-45 169.4-49.6q1.7-.1 3.5-.3c9.9-.7 19.8-.9 29.8-1zm-72.1 47.6q-3.9.8-7.8 1.5c-11.3 2.1-22.2 5-33.2 8.5q-3.3 1-6.5 2c-41.4 12.2-82.4 33.7-116.7 59.7l-1.6 1.2c-14.9 11.3-28.9 23.2-42.1 36.4l-2.4 2.4c-4.9 4.8-9.5 9.8-13.9 15l-2.6 3c-27.7 32.4-51.7 68.8-68.4 108-.5 1.2-.5 1.2-1.1 2.5-6.8 16.1-12.2 32.4-17 49.2q-1.2 4.2-2.4 8.5C99.7 456 96.8 487.1 96.8 518q-.1 1.4-.1 2.8c.1 24.1 2.1 47.7 7.3 71.3q.3 1.5.7 3.1c2.9 13.4 6.1 26.6 10.5 39.6q1.2 3.5 2.3 7c14.9 45.1 39.9 87.1 70.5 123.3q.6.7 1.2 1.5c7.3 8.7 15 17 23.1 25l5.4 5.4c6.1 6.1 12.2 11.9 19 17.2 2.2 1.8 4.3 3.7 6.4 5.6 12.1 10.9 26.2 19.7 39.9 28.3q1.4.9 2.9 1.8c8 5 16.1 9.5 24.5 13.8q.9.5 1.9 1c13.7 7 13.7 7 27.7 13.4q1.3.6 2.6 1.1c15.8 6.7 31.8 12.3 48.4 16.9q1.7.5 3.4.9c14.7 4 29.4 6.9 44.5 9q1.2.1 2.3.3c36.6 5 76.3 5.8 112.8-.2q1-.2 2.1-.3c20.3-3.4 40.3-7.4 59.9-13.7l3.2-1c23.5-7.6 46.3-16.9 67.8-29q1.5-.8 3-1.7c28.2-15.8 53.8-33.9 77.4-56 2.6-2.3 2.6-2.3 4.9-4q.9-.6 1.7-1.3v-2q.8-.3 1.7-.7c8.1-4.6 18.4-15.8 22.3-24.3h2c1.9-2 1.9-2 3.9-4.6l2.4-3q.7-.8 1.3-1.7 2.1-2.6 4.3-5.2c7.2-8.8 13.8-18 20.1-27.5.8-1.2.8-1.2 1.6-2.5 10-15 18.8-30 26.4-46.3q1.3-2.8 2.6-5.5c16.7-35.2 27.3-72.7 32-111.3q.4-3.4.9-6.7c2.1-13.4 1.8-26.9 1.8-40.4v-10c0-14.2-.5-28.2-2.3-42.3q-.2-1.5-.3-3c-3.7-31.7-11.8-63.4-23.7-93q-.4-1.1-.9-2.3c-17.7-44.2-42.7-85.7-75.1-120.7q-1.3-1.4-2.6-2.9c-9.3-10.4-19.5-19.4-30.4-28.1q-.8-.6-1.6-1.3-6.2-4.9-12.4-9.7-.9-.7-1.9-1.5c-30.7-23.7-64.8-41.7-101-55.3q-4-1.5-8-3.2c-19.9-7.8-41-12.5-62-16.3-1.8-.4-1.8-.4-3.7-.7q-6.2-1.1-12.4-2l-2.6-.4c-16.9-2.5-33.6-3.1-50.6-3h-10.5c-24.1-.1-47.5 2.1-71.1 6.7"/><path fill="#5fbca4" d="M296.7 559.7c-7.7-13.9-16.5-27.2-25.1-40.5q-.7-1.1-1.4-2.1c-.7-1.1-.7-1.1-1.4-2.1-3.7-5.8-7.3-11.8-10.9-17.7q-2.4-4.1-4.9-8c-4.3-7.1-4.1-16.1-2.4-24.1 3.3-9.3 9.7-15.9 18.3-20.3 4.9-2.1 9.6-2 14.8-2h10.6q2.7 0 5.4.1H313l.4-2c1.3-7.2 3.6-13.4 6.6-20q.6-1.2 1.1-2.5c6-13.2 12.5-25.6 20.9-37.5q1.1-1.6 2.3-3.2c15.6-21.5 34.1-39.4 55.8-54.6q.9-.6 1.9-1.2c34.6-23.6 76.1-35.2 117.8-35.3h2.2c12.5.1 24.7 1 37 3.3q1.1.2 2.3.4c29.3 5.3 57.5 17.4 81.7 34.6q1.6 1.1 3.2 2.3c16.4 11.9 31.4 25.6 43.8 41.7q.9 1.2 1.9 2.4c22.5 29.8 36.6 63.9 43.1 100.6l.4 2.2c4.1 23.7 1.9 48.3-2.4 71.8q-.2 1.2-.4 2.5c-1.3 7.4-3 14.4-5.6 21.5q-.9 2.9-1.9 5.8C707.8 627.3 669.5 672.5 621 697c-4.3 2.1-8.6 4.1-13 6l-2.8 1.2-6.2 2.8-2.6 1.2c-11.9 4-26 2.8-37.4-2.2-3.6-2-6.8-4.3-10-7q-.9-.8-1.9-1.6c-8.4-7.6-13.9-18.2-14.5-29.5-.3-15.2 1.7-26.4 12.4-37.9 7.1-7.1 13.6-11.3 22.8-14.9 19-7.5 36.1-20.7 48.2-37.1q.9-1.1 1.8-2.3c7.7-10.4 13.3-22.4 17.2-34.7q.4-1.1.8-2.3c10.3-31.6 5.1-64.4-9.6-93.7-14.9-28-41.1-47.5-70.8-57.2q-5.2-1.5-10.4-2.8-1.3-.3-2.7-.7c-30.1-6.3-62.6 1.2-88 17.8-16 11-28.3 24.5-38.3 40.9l3.4-.2c9-.3 15.9-.2 23.6 5.2l3.2 2.2c6.3 6.3 11 14.6 11.4 23.6-.3 15.4-12.6 29.9-20.7 42.3q-2.9 4.4-5.7 8.8l-1.8 3q-1.8 2.8-3.5 5.5c-2.7 4.3-5.5 8.5-8.5 12.7-2.6 3.7-4.9 7.5-7.1 11.6-2.6 4.6-5.6 9-8.6 13.4-4.4 6.7-8.7 13.4-12.8 20.3-3 5.2-6.3 9.8-9.9 14.6-.4.5-.4.6-2 2-8.6 7.8-18.6 8.7-29.8 7.8-11.4-1.6-18.2-8-25.2-16.8-2.5-3.7-4.8-7.5-7-11.3q-1.8-3.1-3.6-6.1-.9-1.4-1.8-2.9c-2.6-4.4-5.4-8.5-8.3-12.7-1.3-2-4.1-5.5-4.6-6.3"/><path fill="#edb27a" d="M815 466h1c1.6 14.2 2.4 28.3 2.4 42.6v2.9c0 18.9-2 37-5.4 55.5q-.5 2.9-1 5.9c-8.6 47.6-30.7 95.2-62 132.1q-1.3 1.6-2.7 3.2-4.1 4.9-8.3 9.8l-1.6 1.8C726.7 732.2 715 744 702 754q-1.4 1.2-2.9 2.4c-30.9 25.3-66.5 42.8-104.1 55.6q-1.1.4-2.3.8-6.8 2.3-13.7 4.2l-2.2.6c-16 4.4-32.3 6.5-48.8 8.4-1.2.2-1.2.2-2.5.3-8.5 1-17 1-25.5 1h-2.6c-23.3 0-46.7-2.2-69.5-7.8q-2.7-.7-5.5-1.3c-20.7-4.7-41.4-11.9-60.4-21.2l-2-1c-42.5-20.4-82.9-50.7-112-88l-2.8-3.4c-7.5-9.1-14-18.6-20.2-28.6q-.6-1-1.3-2c-25-40.1-25-40.1-24.7-57q-1.1-2.9-2.2-5.9c-4.6-12-6.7-25.1-9-37.7q-.2-1-.4-2.1c-3-16.4-4.7-32.4-4.6-49.1v-7.8c0-8.5.2-17 1.2-25.4h2q.4 1.6.8 3.3C197 533 214 570.8 239.5 604.2q.6.9 1.2 1.7 1.8 2.3 3.5 4.6c1.8 2.5 1.8 2.5 2.8 5.5h2c1.4 1.6 1.4 1.6 3.2 4 6.1 7.8 13 14.9 19.8 22q1.2 1.2 2.4 2.5c6 6.2 12.7 11.5 19.5 16.8q1.4 1 2.8 2.1c1.2 1 1.2 1 2.5 2l1.8 1.6v2l2.2.8c2.8 1.2 4.9 2.5 7.3 4.3q1.3.9 2.7 1.9l5.6 4c65.5 47.2 152.7 62.9 231.5 50.5 36.3-6 70.2-18.4 102.5-35.8 1.3-.7 1.3-.7 2.7-1.4q1.1-.6 2.3-1.3c2.1-.9 4-1.5 6.2-2v-2q.9-.5 1.9-1c5.8-3 11.1-6.3 16.4-10.1l1.8-1.2c3.7-2.8 7.3-5.7 10.9-8.7q2.4-1.8 4.7-3.6c13.1-10.1 24.7-21.7 36.3-33.4l1.8-1.6c1.5-1.5 1.5-1.5 2.2-4.4l5-5c6.8-7.7 12.9-15.9 18.8-24.3q1.9-2.7 3.8-5.3c1.8-2.5 3.4-5 4.8-7.7 1.7-3.2 3.5-6.2 5.4-9.3 4.2-6.9 7.7-14.1 11.2-21.4.6-1.4.6-1.4 1.3-2.7 12.1-26 21.2-53.8 24.7-82.3"/><path fill="#46a18a" d="M377 608c-9.1 7.1-18.6 8.7-29.8 7.8-11.4-1.6-18.2-8-25.2-16.8-2.5-3.7-4.8-7.5-7-11.3q-1.8-3.1-3.6-6.1-.9-1.4-1.8-2.9c-2.6-4.4-5.4-8.5-8.3-12.7-1.3-2-4.1-5.5-4.6-6.3-7.7-13.9-16.5-27.2-25.1-40.5q-.7-1.1-1.4-2.1c-.7-1.1-.7-1.1-1.4-2.1-3.7-5.8-7.3-11.8-10.9-17.7q-2.4-4.1-4.9-8c-4.3-7.1-4.1-16.1-2.4-24.1 3.3-9.3 9.7-15.9 18.3-20.3 4.9-2.1 9.6-2 14.8-2h10.6q2.7 0 5.4.1H313l.4-2c1.3-7.2 3.6-13.4 6.6-20q.6-1.2 1.1-2.5c6-13.2 12.5-25.6 20.9-37.5q1.1-1.6 2.3-3.2c15.6-21.5 34.1-39.4 55.8-54.5q.9-.7 1.9-1.3c34.4-24 76.1-35.2 117.8-35.3h2.2c12.5.1 24.7 1 37 3.3q1.1.2 2.3.4c29.3 5.3 57.5 17.4 81.7 34.6q1.6 1.1 3.2 2.3c16.4 11.9 31.4 25.6 43.8 41.7q.9 1.2 1.9 2.4c22.5 29.8 36.6 63.9 43.1 100.6l.4 2.2c4.1 23.7 1.9 48.3-2.4 71.8q-.2 1.2-.4 2.5c-1.3 7.4-3.4 14.4-5.6 21.5-.6 1.9-1.3 3.9-1.9 5.8-17.3 51.5-55.6 96.7-104.1 121.2-4.3 2.1-8.6 4.1-13 6l-2.8 1.2-6.2 2.8-2.6 1.2c-11.9 4-26 2.8-37.4-2.2-3.6-2-6.8-4.3-10-7q-.9-.8-1.9-1.6c-8.4-7.6-13.9-18.2-14.5-29.5-.3-15.2 1.7-26.4 12.4-37.9 7.1-7.1 13.6-11.3 22.8-14.9 19-7.5 36.1-20.7 48.2-37.1q.9-1.1 1.8-2.3c7.7-10.4 13.3-22.4 17.2-34.7q.4-1.1.8-2.3c10.3-31.6 5.1-64.4-9.6-93.7-14.9-28-41.1-47.5-70.8-57.2q-5.2-1.5-10.4-2.8-1.3-.3-2.7-.7c-30.1-6.3-62.6 1.2-88 17.8-16 11-28.3 24.5-38.3 40.9l3.4-.2c9-.3 16-.2 23.6 5.2 1.1.8 2.1 1.4 3.2 2.2 6.3 6.3 11 14.6 11.4 23.6-.3 15.4-12.6 29.9-20.7 42.3q-2.9 4.4-5.7 8.8l-1.8 3c-1.2 1.8-2.3 3.8-3.5 5.5-2.9 4.2-6 8.8-8.5 12.7-2.5 3.8-4.9 7.5-7.1 11.6-2.6 4.6-5.6 9-8.6 13.4-4.4 6.7-8.7 13.4-12.8 20.3-3 5.2-6.2 9.9-9.9 14.6-1.4 1.8.2.2-2 2m242.9-289.9c-4.6-1.4-8.8-2.8-13-5.1-2.1-1.1-4.3-2.1-6.5-3.1l-2-1c-3.1-1.2-6.2-2-9.4-2.9q-3.1-1.2-6.3-2.3c-11.4-4.1-23.7-5.8-35.7-7.7l-3.2-.6c-4.8-.5-9.4-.6-14.2-.6h-24.5q-1.4 0-2.9-.1c-4.5.1-8 .3-12.2 2.3q-2.2.5-4.4.8-1.2.2-2.5.3-1.2.2-2.5.4c-5.5.8-10.4 1.7-15.6 3.5q-2.2.4-4.3.7c-5.1 1-9.7 2.7-14.5 4.7q-1 .4-2.1.9c-4.4 1.8-5 2.8-9.5 4.4-1.1.4-5.2 3.3-7.7 4-5.5 2-9.9 4.7-14.6 8-2.4 1.7-4.7 3.1-7.2 4.5-8.8 5.2-15.5 10.7-22.1 18.5-2.6 3-5.4 5.5-8.5 8-1.7 1.5-3.2 3.1-4.6 4.9-1.8 2.1-3.4 3.9-5.4 5.8-2.7 2.8-4.8 5.7-7.1 8.8-1.4 1.8-1.4 1.8-3.6 3.9-2 1.9-5.1 6.7-6.7 9.5s-8.1 12.5-8.9 15.1c-1.4 4.2-3 8.1-5 12-4.4 9.3-7.3 19.2-10.4 29q-.9 2.6-1.8 5.3h-1.7c-5.7-.2-9.7.4-15.4.3-2.1 0-6.7 0-8.8-.1-3.1-.1-5.7-.4-8.8.3-.9.2-9.3 0-13.7 2.6-4.7 2.7-5.3 3.5-7 6.2-2 3-3.3 6.6-4.2 9.7-1.9 6.8.2 11 3.7 15.9 1.2 1.7 3 3.4 4.8 6.3 1.8 3 2.7 4.1 4.7 7.4 2.7 4.4 4.9 7.6 7.1 11.2 2.1 3.6 4.5 6.7 6.7 10.3.5.8 9.7 15.4 10.6 16.9 1 1.7 3 5.4 4 7 1.2 2 2.3 4.2 3.5 6.3q.9 1.6 1.8 3.3c.9 1.2 4.6 7.2 5.7 8.4 1.7 1.9 10.8 17.3 12.2 20.1 3.3 6.7 6.4 10.8 12.8 14.9 7.4 3.3 14.8 4.4 22.6 1.5 6.5-3.2 12.1-11.1 15-14.7 2-2.4 5.4-6.6 7.4-8.8 2.4-2.7 4.7-5.4 6.6-8.5 0 0 3.3-4.5 4.4-6.5 1.1-1.9 3.5-6.2 4.7-8.4 1-1.5 5.4-7.9 5.7-8.7 1-2.5 3.3-7.4 5.8-10.3 1-1.7 4.8-7.9 5.8-9.6l4-6q1.1-1.8 2.3-3.6l1.2-1.8c.7-1.3 3-4.2 3.8-5.4 1.6-2.5 2-2.7 3.7-5.2s2.9-4.1 4.8-7c2.5-3.9 4.9-8 5.2-9 2.6-7.8 2.3-9.3 2.4-14.6q0-1.8.1-3.8c-.6-4.2-2.1-6.1-4.5-9.6-1.4-2.1-2-2.5-4-4-3.4-2.6-7.2-2.3-11.4-2.4q-1 0-2.1-.1-3.4-.1-6.8-.1-2.2-.1-4.5-.1-5.6-.2-11.2-.3c.9-8.4 10.1-22 10.9-24.4 2.6-6.2 7.6-11.3 11.9-16.4 3.1-3.5 5.2-5.8 9.4-8.6 2.7-1.9 4.6-3.8 5.8-4.6 2.3-1.6 5.2-3.1 7.8-4.6.7-.4 1.4-1 2.2-1.4 0 0 11.2-8.3 16.9-11 10.2-4.8 37.7-10.3 54.7-10.3h3.9c6.6 0 23.7 3 26.2 3.2 7 .8 13.1 3.2 19.6 5.6 5.5 2 28.1 16.1 29.7 17.5.9.8 10 7.5 12.2 11.2 1.7 2 7.1 7.5 8.9 9.7 3.4 4.3 5.1 7.6 5.7 8.3 3.4 4.2 6.9 7.4 9 12.4 1.4 2.3 5.6 9.1 6.3 11.5 1.1 3.6 2.1 7.1 3.5 10.6 1.6 4 2.7 5.8 5.4 13.3 2.4 6.7 5.1 52.3-7.2 75.1-1 2.1-9 20.3-10.2 22.9-5.5 11.3-14.1 20.4-23.3 27.7-.5.5-2.9 2.6-5.2 4.3-1.8 1.2-3.5 3.2-5.9 4.9-.9.7-5.9 4.7-7.9 5.7-.7.3-3.6 2-4.2 2.3-.7.4-1.4.6-2 1-2.1 1.3-2.1 1.3-4.5 2.6-2.8 1.6-8.3 3.9-11.4 4.7-11.2 3.3-17 12.5-18.6 14.3-3.5 4-5.6 12.3-5.8 18.8q0 2.4-.1 4.8v2.3c.1 5.7 0 11.7 3.3 16.6 1.8 2.7 5.9 8.4 9 11 3.1 1.6 8.7 5.6 12.8 6.4 5.2 1 17.2 1.8 25.2-2.4 3.3-1.5 6.5-2.9 10-3.9 5.1-1.8 11.7-6 13.6-7.4 5.2-3.5 10.8-6.9 15.3-9.7 3-1.8 5.5-3.7 8.1-6 1-.3 4.1-2.3 4.8-3.6 1-.7 5.1-5.2 5.6-5.4 2.3-1.2 3.6-3.3 5.7-4.9q1-.7 2-1.5c2-1.7 2.5-2.9 4.5-4.6.9-.7 1.9-2 3.2-3.3 2-1.9 3.3-2.7 5.2-4.7 1.4-1.5 2-2.6 3.8-4.2 3-2.8 3.9-3.6 6.2-6.8.7-1.7 1.7-2.8 3-4.3 1.2-1.4 2.6-3.8 3.4-5.7.8-1.8 1.6-2.3 2.6-4q.8-1.4 1.7-2.9l3.6-6.2q1.5-2.5 3-5.1c1.4-2.5 2.7-4.7 4.2-7.2 1-1.8 2.6-4.9 3.9-6.4.7-.8 1.8-3.9 2.1-4.9 1-3 3.6-8 4.3-12.2.7-2.7 1-5.1 2.1-7.6 2.5-6.1 3.9-12.3 5.3-18.8q.4-1.7.8-3.6c1.5-7.3 3.9-23.3 4-26.1.1-3.8.2-6 .2-9v-8.6c0-2.9.2-14.4-.4-17.2-3.6-20.2-11.9-47.2-11.9-47.2-.7-2.1-6.3-21.3-6.8-22.3-2.1-4.4-4.8-8.3-7.3-12.7-2.2-3.9-5.5-8.8-7.8-13-1.2-2.2-7.8-10.3-8.2-11-3.5-5.4-8.5-11.9-13.8-17-1-1-1-1-2-2.1l-2.2-2.2q-1-1.1-2-2.1c-1.7-1.8-3.8-2.9-3.8-3.6q-2.5-2.1-5-4c-1.6-1.5-3-3.1-4.5-4.7s-4.5-2.6-4.5-3.3c-2.1-1.6-4.1-3.1-6.3-4.5-.6-.4-1.3-.7-1.8-1.2-3.7-4-14.6-9.4-18-10.2"/><path fill="#986c2f" d="M818 483h1c5.1 43.9 6.2 85.6-4 129q-.3 1.2-.6 2.5c-1.3 5.5-2.8 11-4.4 16.5l-.8 2.6c-3.9 13.3-9 25.9-14.7 38.5q-.5 1.1-.9 2.1c-6 13.1-12.9 25.5-20.7 37.5q-.8 1.2-1.7 2.5c-8.1 12.4-16.6 24.6-26.8 35.3-2 2-3.8 4.1-5.6 6.2-10 11.4-20.9 22.1-32.8 31.3q-1.7 1.4-3.3 2.7c-15.5 12.9-32.7 23.2-50.3 33q-2.4 1.3-4.8 2.7c-4.3 2.4-8.5 4.5-13.1 6.2-3.6 1.3-7.2 2.7-10.8 4.3-16.9 7.7-35.6 13-53.7 17.1q-1.1.3-2.2.5c-26.5 5.9-53.8 7.4-80.8 6.5q-1.5 0-3-.1c-27.6-1.1-55.9-7.2-82-15.9-1.3-.4-1.3-.4-2.7-.9-10.4-3.4-20.4-7.2-30.2-12.1q-3.6-1.7-7.2-3.5c-12.6-6-24.3-12.8-35.9-20.5l-1.8-1.2c-3.8-2.5-7.5-5.1-11.2-7.8q-.9-.7-1.9-1.3c-9.8-7.1-18.8-14.8-27.5-23.2-2-1.9-4-3.6-6.1-5.4-3.3-2.8-6-5.9-8.8-9.1-1.6-1.9-3.3-3.6-5.1-5.3-8.1-8-14.9-17.5-21.6-26.7l-2-2.8c-21.4-29.8-36.6-62-47-97l-2-6.4c-2.5-7.6-4.3-15.3-5.8-23.3q-.5-2.9-1.1-5.9c-4.4-23.4-4.4-23.4-4.2-33v-3.2q.1-1.2.1-2.4c1.6 3 2.5 5.6 3.1 8.9l.6 3q.3 1.5.6 3.1c5.8 28.2 14 55.1 26.7 81q.6 1.2 1.2 2.5c9.9 20.3 22.3 39.2 36.8 56.5q.7.8 1.4 1.7c12.5 15.1 26.2 29.3 41.6 41.3l5.6 4.8c18.5 15.3 38.9 28 60.6 38.3q2.6 1.3 5.1 2.6c53.3 26.3 118.6 35.8 177.3 26.7q3.2-.5 6.4-.8c72.6-7.8 148.7-52.1 194.7-108.2q2.2-2.7 4.3-5.4 1.4-1.7 2.9-3.5c6.9-8.5 13.2-17.2 19.1-26.5q.5-.9 1.1-1.7c15.2-24.1 26.9-49.9 34.9-77.3l1-3.2c3.3-9.7 5.2-19.7 7-29.8q.3-1.7.6-3.5c4.8-26.8 5.3-53.4 5.4-80.5"/><path fill="#fdf7ec" d="M375.1 278.3c2.2 3.1 2.4 4 1.9 7.7-1.4 2.5-1.4 2.5-3.4 5.1q-1.1 1.4-2.2 2.9c-13 16.4-13 16.4-18.8 20.8-3 2.5-5.4 5.3-7.9 8.2-2.1 2.5-4.4 4.7-6.7 7l-2.2 2.8-1.8 2.2h-2q-.3.8-.7 1.7c-1.7 3-4 5.4-6.4 7.9-8.9 9.6-17 19.9-24.9 30.4q-.6.8-1.3 1.7c-4.7 5.9-4.7 5.9-8.7 12.3h-2q-.4.8-.8 1.7C283 398.8 276.8 406 271 413l-1.8 2.2c-10 11.8-10 11.8-16.1 12.7q-1.5 0-3.1.1c-3.4-4.5-3.5-8.2-3.4-13.6v-2.5c.3-12.7 3-24.9 8.3-36.4 1-2.3 1.7-4.5 2.4-6.9 1.8-5.5 4.8-10.3 7.8-15.3 1.5-2.6 2.8-5.1 4.1-7.9 1.9-3.6 3.9-5.5 6.8-8.4q1.7-2.6 3.4-5.3c8.9-14.5 22.6-26.3 36.6-35.7h2v-2c2.1-1.5 2.1-1.5 4.8-3.1q1.3-.8 2.7-1.7c2.5-1.2 2.5-1.2 5.5-1.2v-2l7.6-3.4q1-.4 2.1-.9c4.4-2 8.7-3.5 13.3-4.7l3.8-1.2c6.2-1.5 12.1-1.3 17.3 2.4z"/><path fill="#e0bf85" d="M581 121q3 .6 6 1.3c9.2 1.9 18.2 4.2 27.1 7.4 3.5 1.2 6.9 2.1 10.4 3.1 7.5 2.1 14.6 4.9 21.8 7.9q1.9.9 3.9 1.7c22.9 9.6 45 20.9 65.8 34.6q1 .6 1.9 1.3c16.7 11 32.2 23.4 47.1 36.7l1.8 1.6c10.3 9.2 10.3 9.2 13.2 13.4-4.1-1.7-7.2-4.6-10.4-7.5-6.1-5.3-12.4-10.3-18.9-15.2q-2.7-2.1-5.5-4.2c-30.1-23.1-63.6-40.6-99.1-53.9q-4-1.5-8-3.2c-19.9-7.8-41-12.5-62-16.3-1.8-.4-1.8-.4-3.7-.7q-6.2-1.1-12.4-2l-2.6-.4c-16.9-2.5-33.6-3.1-50.6-3h-10.5c-24.1-.1-47.5 2.1-71.1 6.7q-3.9.8-7.8 1.5c-11.3 2.1-22.2 5-33.2 8.5q-3.3 1-6.5 2C336.3 154.5 295.3 176 261 202l-1.6 1.2c-14.7 11.1-28.5 22.9-41.6 35.9l-2.3 2.3c-4.7 4.7-9.2 9.5-13.5 14.6l-2.6 3c-27.7 32.4-51.7 68.8-68.4 108q-.5 1.2-1.1 2.5c-6.8 16.1-12.2 32.4-17 49.2q-1.2 4.2-2.4 8.5c-8.4 28.6-10.8 58.2-12.5 87.8h-1c-1.1-48 7.3-95 24-140 .4-1.2.4-1.2.9-2.4 10.8-29 25.3-57.2 43.1-82.6q.6-.9 1.3-1.8 4.3-6.1 8.7-12.2c1.1-1.6 1.1-1.6 2.3-3.2 4.2-5.7 8.6-11 13.3-16.2 2.3-2.5 4.4-5 6.4-7.6 4.8-6 10.1-11.3 15.5-16.7q2.4-2.3 4.7-4.7c5.4-5.4 10.9-10.7 16.8-15.6q1.7-1.4 3.3-2.9c5.1-4.3 10.2-8.5 15.6-12.5 2.2-1.7 4.3-3.5 6.4-5.3 25.9-22.4 56.2-39 88.7-49.6 2.4-.9 4.8-1.8 7.1-2.8 23-9.4 47.5-15.6 71.9-19.9 1.3-.2 1.3-.2 2.6-.5q7.3-1.2 14.7-2.1l5.6-.8c43.4-6.1 88.4-3.9 131.1 5.4"/><path fill="#f9d9ac" d="M497.3 188.6h3.6c18.1.1 35.3.9 53.1 4.4q3.6.6 7.1 1.3C587.2 199 612 207.7 636 219l2.6 1.2c17 8 32.6 17.8 47.7 28.8q2.8 2.1 5.7 4v2c-3.3-.6-5.6-1.8-8.4-3.6q-1.3-.8-2.6-1.7-1.4-.8-2.8-1.7c-15.5-9.7-30.8-17.9-47.7-24.9q-3.1-1.3-6.1-2.7C575 199.1 515.3 192.2 462 200q-1.4.2-2.9.4c-12.8 1.9-25.6 4.2-38.1 7.6l-3 .8c-20.8 5.7-40.1 13.3-59.2 23.2q-2.6 1.4-5.3 2.8C335 244.2 318 255.9 302 269l-1.8 1.4c-12.9 10.6-25.3 22-36.2 34.6-1 1.1-1 1.1-2.1 2.3-35.2 37.7-58 87-69.9 136.7q-.3 1.1-.5 2.1c-2.1 8.6-3.8 17.2-5.2 25.9q-.2 1.1-.3 2.2c-4.3 28.9-4.1 61.1 1 89.8q.3 1.8.6 3.7c2.6 14.7 5.5 29.1 10.2 43.3 1.2 3.7 1.8 7.2 2.2 11-3.4-1.7-4-5.8-5.2-9.3q-.4-1.3-.9-2.7c-4.1-12.1-7-24.5-9.9-37q-.3-1.1-.5-2.3c-9.8-41.7-8.4-90.3 1.5-131.7q.3-1.2.6-2.5c2.6-11.3 5.8-22.4 9.7-33.4q1-2.9 2-5.9c10.2-28.8 25.9-58.8 45.7-82.2l3.2-4.2c34.7-44.7 80-79.2 132.7-100q3-1.1 6-2.4c17.2-6.9 35.3-11.3 53.6-14.7 1.9-.4 1.9-.4 3.9-.7 18.4-3.4 36.2-4.4 54.9-4.4"/><path fill="#ddbe83" d="M581 123q3 .6 6 1.3c9.2 1.9 18.2 4.2 27.1 7.4 3.5 1.2 6.9 2.1 10.4 3.1 7.5 2.1 14.6 4.9 21.8 7.9q1.9.9 3.9 1.7c22.9 9.6 45 20.9 65.8 34.6q1 .6 1.9 1.3c16.7 11 32.2 23.4 47.1 36.7l1.8 1.6c10.3 9.2 10.3 9.2 13.2 13.4-4.1-1.7-7.2-4.6-10.4-7.5-6.1-5.3-12.4-10.3-18.9-15.2q-2.7-2.1-5.5-4.2c-30.1-23.1-63.6-40.6-99.1-53.9q-4-1.5-8-3.2c-19.9-7.8-41-12.5-62-16.3-1.8-.4-1.8-.4-3.7-.7q-6.2-1.1-12.4-2l-2.6-.4c-16.9-2.5-33.6-3.1-50.6-3h-10.5c-25.4-.1-49.8 2.6-74.6 7.5q-2.8.6-5.6 1.1-5 1-10.1 2c-1 .2-1 .2-2.1.4q-2.3.5-4.7 1c-2.3.4-4.4.5-6.7.4-6.1-.1-12 .6-18.1 1.4l-3.2.4c-6.2.7-12.2 1.7-18.2 3.2 2.2-2.5 4-3.6 7.3-4.6q1.2-.4 2.6-.8t2.8-.9q1.4-.4 2.9-.9 3.2-.9 6.3-1.9 4.5-1.3 9-2.7c14.2-4.4 28.5-7.6 43.1-10.2q1.3-.2 2.6-.5 7.3-1.2 14.7-2.1l5.6-.8c43.4-6.1 88.4-3.9 131.1 5.4"/><path fill="#fdf9f0" d="M456 242c3.7 3.6 5.2 6.9 6 12-1.7 9-6.5 15.1-13.7 20.5-9.9 6.6-21.7 7.5-33.3 6.5-6.8-1.6-11.1-5.3-15-11-2.4-4.8-1.3-12 0-17h2q.5-.9.9-1.9 1.1-2 2.1-4.1h2l2-4h3v-2c14-7.4 31.1-9 44 1"/><path fill="#b9efe1" d="M499.9 311.8h9.5c2.7.2 4.3.8 6.6 2.2-.3 1.9-.3 1.9-1 4-2.7 1.2-5.3 2.1-8.1 3q-1.2.4-2.5.8c-4.9 1.5-9.7 2.8-14.6 4.1-37.1 9.6-68.7 29-97.2 54.2-6.7 5.9-6.7 5.9-11.6 5.9-.8-9.7 6.8-18.7 12.6-25.9q2.2-2.6 4.4-5.1.8-.9 1.7-1.9c25.4-26.9 63.8-41.3 100.2-41.3"/><path fill="#f9eac9" d="M397 135c-2.3 2.3-3.5 2.6-6.6 3.5l-2.8.8q-1.5.4-3 .9c-44 13.1-86.9 34-123.6 61.8l-1.6 1.2c-10.5 7.9-20.8 16.1-30.3 25.1-2.1 1.7-2.1 1.7-5.1 1.7q.9-1.1 1.9-2.3c4.1-4.9 8.2-9.8 12.2-14.9 6.2-7.6 12.3-14.4 20-20.5 2.9-2.3 5.8-4.8 8.6-7.2 6.8-5.6 13.9-10.4 21.3-15.1q1.6-1.1 3.3-2.2c25.1-15.9 53.7-28.1 83.3-31.5l3.2-.4c6.4-.7 12.7-1.1 19.2-.9"/><path fill="#b9efe1" d="M284 479c6.6.8 9.1 5 13 10l2.4 3c21.7 28.5 21.7 28.5 20.6 42-1 1-1 1-3.3 1.3-5.6-.6-9.2-6.1-12.7-10.3-7.4-9.5-13-20.1-18-31l-1.2-2.6c-.9-2.7-1-4.9-.9-7.7V481q.1-1 .1-2m295.9-161.3c3 1.9 5 3.4 7.1 6.3-.1 2.8-.1 2.8-1 5-8.5 4.3-23 .8-31.6-1.8-12.7-4.5-12.7-4.5-16.4-9.2.3-2.7.3-2.7 1-5 13.3-5.1 28.6-1.9 40.9 4.7"/><path fill="#e0ba7c" d="M118 397c-.6 6.5-2.2 12.2-4.2 18.3-10.2 32.5-14 65.8-15.8 99.7h-1c-.8-36.7 3.6-73.1 13.6-108.5l.6-2.2c2.1-7.3 2.1-7.3 6.8-7.3"/><path fill="#b9efe1" d="M327.3 542.4c4.5.7 5.9 1.9 8.6 5.5 1.9 3.6 1.7 6.1 1.1 10.1-1.1 2.1-1.1 2.1-3 3-4-.1-6.2-.4-9.4-2.9-3.2-4.2-2.8-8-2.6-13.1 2-2 2-2 5.2-2.6z"/><path fill="#c59f47" d="m928 446 2 1c.4 2.1.4 2.1.6 4.6q.1 1.2.3 2.5c0 .9 0 .9.1 1.9l-3 1c-1.3-7.4-1.3-7.4 0-11"/><path fill="#c69d43" d="M898 344c3.4 3.4 4 6.3 4 11h-2c-1.2-3.9-2-6.9-2-11"/><path fill="#f9e2b2" d="m301 162 2 1c-3.3 2.9-5.6 4.5-10 5 2.6-2.1 5.2-4.1 8-6"/></svg>