<svg version="1.2" xmlns="http://www.w3.org/2000/svg" viewBox="0 0 1096 976" width="1096" height="976"><path fill="#f5d2a0" d="M512.7 66.6h2c21.1 0 41.5.7 62.3 4.4q2 .3 4 .7c60.1 10.4 114.8 33.4 166 66.3q.9.5 1.8 1.1c1.4.9 2.8 1.9 4.2 2.9v2c1.1.4 1.1.4 2.1.7 9.5 4.2 17.8 12.8 25.5 19.6 4.4 3.9 9 7.6 13.7 11.2q.9.7 1.7 1.5v2q.8.3 1.7.7c2.9 1.6 4.9 3.7 7.3 6l1.4 1.4q1.4 1.5 2.9 3l4.5 4.5c14.5 14.6 14.5 14.6 17.2 20.4h2c1.7 1.9 3.2 3.8 4.7 5.8q.8.9 1.5 1.9 2.4 3.1 4.8 6.3c.8 1.1.8 1.1 1.7 2.2 9 11.9 17.4 24.2 25.3 36.8q.6 1 1.3 2.1c5.4 8.6 10.1 17.4 14.5 26.5q2 4.1 4.1 8.2c19.5 39.7 31.5 81.5 38.1 125.2l.6 3.8c7.9 53.1 3.2 107.4-9.6 159.2q-.4 1.6-.8 3.3c-6.8 27.5-17.7 54.3-30.2 79.7q-.6 1.3-1.3 2.7c-9.8 19.7-21.4 38.7-34.7 56.3q-.6.8-1.2 1.7-7.7 10.1-15.9 20-1.8 2.2-3.5 4.6-.7.8-1.4 1.7h-2l-.8 1.8c-1.2 2.2-2.4 3.7-4.1 5.5q-.8.9-1.7 1.8l-1.8 2q-1 .9-1.9 2-2.9 2.9-5.7 5.9-.8.9-1.7 1.8c-6.5 6.7-6.5 6.7-9.3 9.2h-2v2c-1.4 1.4-1.4 1.4-3.4 3.1q-4.7 4-9.3 8.2c-5.8 5.3-12 10-18.3 14.7q-1 .7-2 1.5c-59.4 44-127.1 72.6-200.3 82.7q-1.8.2-3.7.5c-16 2.1-31.8 2.5-47.8 2.4h-9.5c-16 0-31.7-.6-47.6-2.8l-3.8-.6c-30.6-4.4-62.6-10.9-91.1-23.3q-3.8-1.6-7.6-3.1c-27.1-10.6-52.5-24.1-76.6-40.3l-2-1.4c-9.1-6-17.9-12.4-26.4-19.3q-2.2-1.8-4.5-3.6c-5.6-4.5-11-9.2-16.2-14.2-2.7-2.5-2.7-2.5-5.9-4.5v-2l-1.8-.8c-2.4-1.3-4.1-2.8-6.1-4.8q-1-1.1-2.1-2.2t-2.3-2.2l-2.2-2.2q-1.1-1.1-2.1-2.2c-1-.9-1-.9-2-1.9-1.4-1.7-1.4-1.7-1.4-3.7h-2q-2.1-2.3-4-4.8c-3.1-3.9-6.2-7.5-9.6-11.1-24.7-27-45.5-60.8-59.8-94.5-1.3-2.9-2.7-5.8-4.2-8.6-3.4-6.8-5.9-13.9-8.4-21q-.5-1.3-.9-2.6c-5.8-16.2-10.3-32.6-14.1-49.4q-.4-1.8-.8-3.7c-4-17.6-6.5-35.1-7.9-53.1q-.3-3-.6-5.9c-1-9.7-.9-19.3-.9-29v-9.2c-.1-19.8 1.5-39.2 4.9-58.7q.2-1.2.4-2.3c4.4-25.8 11.2-50.5 19.9-75.1q.5-1.3 1-2.7c15.5-43.4 39.6-83.8 68.9-119.3q.8-.9 1.6-1.9.7-.8 1.4-1.7c1.2-1.4 1.2-1.4 2.1-3.4h2q.3-.8.7-1.6c1.8-3.2 3.8-5.7 6.3-8.4h2l.6-1.6c2-3.4 4.6-5.9 7.3-8.6l1.8-1.8 3.8-3.8q2.9-2.8 5.7-5.7c6.9-6.9 14-13.4 21.8-19.5q1.9-1.5 3.7-3c13.8-11.3 28.2-21.6 43.3-31q1.5-1 3.1-2 4.9-3 9.9-6 .9-.5 1.9-1.1c18.9-11.3 39.5-20.1 60.1-27.9l3.6-1.4C385.8 84.7 404 80.3 422 76q1.5-.4 3.1-.8c8-1.8 16-3 24-4.3q1.6-.2 3.3-.5L463 69q1-.1 2.1-.3c15.8-2 31.6-2.1 47.6-2.1"/><path fill="#b38942" d="M511.7 66.6h2c21.1 0 41.5.7 62.3 4.4q2 .3 4 .7c60.1 10.4 114.8 33.4 166 66.3q.9.5 1.8 1.1c1.4.9 2.8 1.9 4.2 2.9v2c1.1.4 1.1.4 2.1.7 9.5 4.2 17.8 12.8 25.5 19.6 4.4 3.9 9 7.6 13.7 11.2q.9.7 1.7 1.5v2q.8.3 1.7.7c2.9 1.6 4.9 3.7 7.3 6l1.4 1.4q1.4 1.5 2.9 3l4.5 4.5c14.5 14.6 14.5 14.6 17.2 20.4h2c1.7 1.9 3.2 3.8 4.8 5.8q.7.9 1.4 1.9 2.4 3.1 4.8 6.3c.8 1.1.8 1.1 1.7 2.2 9 11.9 17.4 24.2 25.3 36.8q.6 1 1.3 2.1c5.4 8.6 10.1 17.4 14.5 26.5q2 4.1 4.1 8.2c19.5 39.7 31.5 81.5 38.1 125.2l.6 3.8c7.9 53.1 3.2 107.4-9.6 159.2q-.4 1.6-.8 3.3c-6.8 27.5-17.7 54.3-30.2 79.7q-.6 1.3-1.3 2.7c-9.8 19.7-21.4 38.7-34.7 56.3q-.6.8-1.2 1.7-7.7 10.1-15.9 20-1.8 2.2-3.5 4.6-.7.8-1.4 1.7h-2l-.8 1.8c-1.2 2.2-2.4 3.7-4.1 5.5q-.8.9-1.7 1.8l-1.8 2q-1 .9-1.9 2-2.9 2.9-5.7 5.9-.8.9-1.7 1.8c-6.5 6.7-6.5 6.7-9.3 9.2h-2v2c-1.4 1.4-1.4 1.4-3.4 3.1q-4.7 4-9.3 8.2c-5.8 5.3-12 10-18.3 14.7q-1 .7-2 1.5c-59.4 44-127.1 72.6-200.3 82.7q-1.8.2-3.7.5c-16 2.1-31.8 2.5-47.8 2.4h-9.5c-16 0-31.7-.6-47.6-2.8l-3.8-.6c-30.6-4.4-62.6-10.9-91-23.3q-3.9-1.6-7.7-3.1c-27.1-10.6-52.5-24.1-76.6-40.3l-2-1.4c-9.1-6-17.9-12.4-26.4-19.3q-2.2-1.8-4.5-3.6c-5.6-4.5-11-9.2-16.2-14.2-2.7-2.5-2.7-2.5-5.9-4.5v-2l-1.8-.8c-2.4-1.3-4.1-2.8-6.1-4.8q-1-1.1-2.1-2.2l-2.2-2.2q-1.2-1.1-2.3-2.2t-2.1-2.2c-1-.9-1-.9-2-1.9-1.4-1.7-1.4-1.7-1.4-3.7h-2q-2.1-2.3-4-4.8c-3.1-3.9-6.2-7.5-9.6-11.1-24.7-27-45.5-60.8-59.8-94.5-1.3-2.9-2.7-5.8-4.2-8.6-3.4-6.8-5.9-13.9-8.4-21q-.5-1.3-.9-2.6c-5.8-16.2-10.3-32.6-14.1-49.4q-.4-1.8-.8-3.7c-4-17.6-6.5-35.1-7.9-53.1q-.3-3-.6-5.9c-1-9.7-.9-19.3-.9-29v-9.2c-.1-19.8 1.5-39.2 4.9-58.7q.2-1.2.4-2.3c4.4-25.8 11.2-50.5 19.9-75.1q.5-1.3 1-2.7c15.5-43.4 39.6-83.8 68.9-119.3q.8-.9 1.6-1.9.7-.8 1.4-1.7c1.2-1.4 1.2-1.4 2.1-3.4h2q.3-.8.7-1.6c1.8-3.2 3.8-5.7 6.3-8.4h2l.6-1.6c2-3.4 4.6-5.9 7.3-8.6l1.8-1.8 3.8-3.8q2.9-2.8 5.7-5.7c6.9-6.9 14-13.4 21.8-19.5q1.9-1.5 3.7-3c13.8-11.3 28.2-21.6 43.3-31q1.5-1 3.1-2 4.9-3 9.9-6 .9-.5 1.9-1.1c18.9-11.3 39.5-20.1 60.1-27.9l3.6-1.4C384.8 84.7 403 80.3 421 76q1.5-.4 3.1-.8c8-1.8 16-3 24-4.3q1.6-.2 3.3-.5L462 69q1-.1 2.1-.3c15.8-2 31.6-2.1 47.6-2.1M465 172q-1.4.2-2.9.4c-59.3 9-114.9 36.4-159.1 76.6q-.9.9-1.9 1.7c-13 11.8-24.5 24.3-35.1 38.3q-.8 1.1-1.7 2.2c-7.3 9.6-14.2 19.2-20.1 29.7q-1.3 2.2-2.6 4.5c-18.7 32.5-30.9 67.7-37 104.8l-.4 2.8c-2.4 15.8-2.4 31.8-2.4 47.7q-.1 1.4-.1 2.9c.1 13.2.3 26 2.8 38.9.6 2.8 1 5.5 1.4 8.2 8.2 51.7 30.2 101.5 63.8 141.7q2 2.4 3.9 4.8c6.2 7.6 13 14.6 20 21.6q1.2 1.3 2.6 2.7c5.9 5.9 12.2 11.3 18.8 16.5q1.8 1.4 3.5 2.9c54.7 43.7 122.9 67.3 192.8 67.4h2.7c13.3-.1 26.2-.6 39.3-2.9l8.2-1.2c51.9-7.6 103.5-31.5 143.9-64.9l3.2-2.6c8.2-6.6 15.7-13.8 23.2-21.3q1.3-1.2 2.7-2.6c5.9-5.9 11.3-12.2 16.5-18.8l1.8-2.2c30.2-38.5 50-81.2 61.2-128.8l1-4c10.2-44.7 7.8-97.1-5.4-140.8q-1-3.5-1.9-7c-.4-1.2-.4-1.2-.7-2.5q-.6-2.2-1.2-4.5c-1.3-4.9-3-9.5-4.8-14.2-.5-1.2-.5-1.2-1-2.5-16.4-41.5-40.2-77.7-71.6-109.4l-2.6-2.6c-6-5.9-12.2-11.3-18.8-16.5l-3.8-3.2C685 221 665.1 209 644 199q-1.1-.5-2.2-1.1c-14.5-7-29.5-12.1-44.8-16.9q-1.1-.4-2.2-.7c-17.8-5.6-36.3-8.2-54.8-10.3q-1.2-.1-2.5-.3c-8.5-.9-16.9-.9-25.4-.9q-1.2-.1-2.4-.1c-15.1.1-29.8 1.1-44.7 3.3"/><path fill="#46a18a" d="M511.7 66.6h2c21.1 0 41.5.7 62.3 4.4q2 .3 4 .7c60.1 10.4 114.8 33.4 166 66.3q.9.5 1.8 1.1c1.4.9 2.8 1.9 4.2 2.9v2c1.1.4 1.1.4 2.1.7 9.5 4.2 17.8 12.8 25.5 19.6 4.4 3.9 9 7.6 13.7 11.2q.9.7 1.7 1.5v2q.8.3 1.7.7c2.9 1.6 4.9 3.7 7.3 6l1.4 1.4q1.4 1.5 2.9 3l4.5 4.5c14.5 14.6 14.5 14.6 17.2 20.4h2c1.7 1.9 3.2 3.8 4.8 5.8q.7.9 1.4 1.9 2.4 3.1 4.8 6.3c.8 1.1.8 1.1 1.7 2.2 9 11.9 17.4 24.2 25.3 36.8q.6 1 1.3 2.1c5.4 8.6 10.1 17.4 14.5 26.5q2 4.1 4.1 8.2c19.5 39.7 31.5 81.5 38.1 125.2l.6 3.8c7.9 53.1 3.2 107.4-9.6 159.2q-.4 1.6-.8 3.3c-6.8 27.5-17.7 54.3-30.2 79.7q-.6 1.3-1.3 2.7c-9.8 19.7-21.4 38.7-34.7 56.3q-.6.8-1.2 1.7-7.7 10.1-15.9 20-1.8 2.2-3.5 4.6-.7.8-1.4 1.7h-2l-.8 1.8c-1.2 2.2-2.4 3.7-4.1 5.5q-.8.9-1.7 1.8l-1.8 2q-1 .9-1.9 2-2.9 2.9-5.7 5.9-.8.9-1.7 1.8c-6.5 6.7-6.5 6.7-9.3 9.2h-2v2c-1.4 1.4-1.4 1.4-3.4 3.1q-4.7 4-9.3 8.2c-5.8 5.3-12 10-18.3 14.7q-1 .7-2 1.5c-59.4 44-127.1 72.6-200.3 82.7q-1.8.2-3.7.5c-16 2.1-31.8 2.5-47.8 2.4h-9.5c-16 0-31.7-.6-47.6-2.8l-3.8-.6c-30.6-4.4-62.6-10.9-91-23.3q-3.9-1.6-7.7-3.1c-27.1-10.6-52.5-24.1-76.6-40.3l-2-1.4c-9.1-6-17.9-12.4-26.4-19.3q-2.2-1.8-4.5-3.6c-5.6-4.5-11-9.2-16.2-14.2-2.7-2.5-2.7-2.5-5.9-4.5v-2l-1.8-.8c-2.4-1.3-4.1-2.8-6.1-4.8q-1-1.1-2.1-2.2l-2.2-2.2q-1.2-1.1-2.3-2.2t-2.1-2.2c-1-.9-1-.9-2-1.9-1.4-1.7-1.4-1.7-1.4-3.7h-2q-2.1-2.3-4-4.8c-3.1-3.9-6.2-7.5-9.6-11.1-24.7-27-45.5-60.8-59.8-94.5-1.3-2.9-2.7-5.8-4.2-8.6-3.4-6.8-5.9-13.9-8.4-21q-.5-1.3-.9-2.6c-5.8-16.2-10.3-32.6-14.1-49.4q-.4-1.8-.8-3.7c-4-17.6-6.5-35.1-7.9-53.1q-.3-3-.6-5.9c-1-9.7-.9-19.3-.9-29v-9.2c-.1-19.8 1.5-39.2 4.9-58.7q.2-1.2.4-2.3c4.4-25.8 11.2-50.5 19.9-75.1q.5-1.3 1-2.7c15.5-43.4 39.6-83.8 68.9-119.3q.8-.9 1.6-1.9.7-.8 1.4-1.7c1.2-1.4 1.2-1.4 2.1-3.4h2q.3-.8.7-1.6c1.8-3.2 3.8-5.7 6.3-8.4h2l.6-1.6c2-3.4 4.6-5.9 7.3-8.6l1.8-1.8 3.8-3.8q2.9-2.8 5.7-5.7c6.9-6.9 14-13.4 21.8-19.5q1.9-1.5 3.7-3c13.8-11.3 28.2-21.6 43.3-31q1.5-1 3.1-2 4.9-3 9.9-6 .9-.5 1.9-1.1c18.9-11.3 39.5-20.1 60.1-27.9l3.6-1.4C384.8 84.7 403 80.3 421 76q1.5-.4 3.1-.8c8-1.8 16-3 24-4.3q1.6-.2 3.3-.5L462 69q1-.1 2.1-.3c15.8-2 31.6-2.1 47.6-2.1M413.6 118q-3.6 1-7.2 1.9c-35.3 8.9-69.7 25.7-100.4 45.1q-1 .6-2 1.3c-16.6 10.6-32.2 22.5-47.2 35.2q-1.8 1.5-3.5 2.9c-2.7 2.2-5.2 4.4-7.4 7.2-3.1 3.6-6.5 7-9.9 10.4-4.5 4.5-8.9 9.1-13 14l-2.4 2.8c-17.2 19.9-32.2 41.5-45.6 64.2q-.6.9-1.2 1.9c-33.5 55.9-49 121.6-49 186.4q-.1 1.5-.1 3c.1 14.2.6 28.1 2.9 42.1q.6 3.8 1.1 7.6C138 610.1 168 673.5 210 725q.6.8 1.3 1.6c13.2 16.2 27.8 31.9 43.7 45.4q1.5 1.3 3 2.7c15.1 13.1 31.2 24.5 48 35.3 1 .6 1 .6 2 1.3 42 26.8 90.1 43.9 139 52.7 1.7.3 1.7.3 3.5.7 20.7 3.6 41.5 3.7 62.4 3.7h2.2c15.7 0 31.3-.1 46.9-2.4 1.7-.2 1.7-.2 3.5-.5 70.1-10.7 137.3-39.6 191.5-85.5q1.7-1.4 3.3-2.7c5.2-4.4 10.4-8.8 15.1-13.7 1.8-1.8 3.6-3.4 5.5-5 6.3-5.4 11.9-11.3 17.3-17.5 2-2.3 4-4.5 6.1-6.7 21.6-24.1 38.8-51.8 53.7-80.4.6-1.2.6-1.2 1.2-2.3 7.2-14 12.4-28.6 17.6-43.4q1.4-4 3-8c13-35.3 17.4-74.8 17.5-112.2v-2.9c-.1-17.6-1.1-34.8-3.3-52.2q-.2-1.4-.3-2.9c-8.5-70-39.3-136.7-83.7-191.1q-.7-.8-1.3-1.6C796.4 222.2 782.4 208 767 196q-2.8-2.4-5.6-4.7c-22.2-18.6-47.3-33.7-73.3-46.3q-3.1-1.5-6.1-3.1c-15.1-7.6-31.2-12.9-47.1-18.3l-5.2-1.8c-6.3-2.1-12.5-3.8-18.9-5.2q-1.5-.3-2.9-.7-3-.6-5.9-1.3-4.4-.9-8.7-1.9c-14.6-3.3-29.2-5.1-44.1-6.4q-3-.3-5.9-.6c-8.7-.9-17.5-.9-26.4-.9h-2.5c-34.1.1-67.9 4.1-100.8 13.2"/><path fill="#eeb77e" d="M817 438h1c10 84.9-13 167.7-66 235q-3.3 4-6.8 7.7c-1.9 2-3.6 4-5.4 6-9.9 11.4-20.8 22.1-32.8 31.3l-3.4 2.8c-9.1 7.5-18.6 14-28.6 20.2-1 .6-1 .6-2.1 1.3-27.1 16.7-56.1 28.5-86.9 36.7l-2.8.8c-7.5 1.9-15.1 3.3-22.7 4.5q-3.1.5-6.1 1c-14 2.2-27.6 2.9-41.8 2.9h-2.7c-13 0-26-.3-38.9-2.2q-1.3-.2-2.7-.4c-36-5.4-70.2-16.5-102.3-33.6-1-.5-1-.5-1.9-1-19.8-10.6-39.3-23.4-55.7-38.8-2-1.8-4-3.6-6.1-5.4-11.4-10-22-20.9-31.3-32.8q-1.4-1.7-2.7-3.3C256.1 656 246 639.8 237 623q-.9-1.6-1.8-3.3c-2.7-5.3-4.9-10.4-6.4-16.2-.9-2.7-1.9-5.2-3.1-7.8-13.7-32-19.3-69.7-19-104.3v-24.5c.3-1.9.3-1.9 2.3-3.9q.3 1 .6 2.1c4.2 14.1 8.6 28 14.4 41.6l2.8 6.6c8.7 21 20.3 40.8 34.2 58.7q1.5 1.9 2.9 3.9c4.8 6.2 9.8 12.1 15.1 17.9q2.7 3 5.3 6.1c7.4 8.4 15.4 16.1 24.1 23 2.3 1.9 4.5 3.8 6.7 5.8 10.8 9.8 23.3 18 35.9 25.3q.9.5 1.8 1.1c70.6 40.9 154.3 54.9 233.7 34.5 5.2-1.4 10.4-3 15.5-4.6q1.4-.4 2.8-.9c25.1-7.7 59.4-18.9 78.2-38.1q1.8-1.1 3.6-2.1c3.4-1.5 3.4-1.5 4.4-3.9l5-2.8c3.5-2.1 6.5-4.6 9.6-7.2q1.1-.9 2.1-1.7c14.4-11.9 28.5-24.9 40.3-39.3q.6-.8 1.3-1.5c9.9-12.1 19.5-24.6 26.7-38.5h2l.8-2.2c1.2-2.8 2.5-5.3 4-8 16.9-30.6 31.1-65.6 34.2-100.8"/><path fill="#5fbca4" d="M554.8 540.1c-6.4 3.5-6.4 3.5-12.4 7.5-2.4 1.8-4.7 3.1-7.5 4.2-6.9 2.9-30.9 17.5-30.9 18.2l-1.6.8q-1 .5-2.1 1-1 .5-2.1 1-3.6 1.95-7.2 4.2c-5.6 3.3-11.2 6.6-16.9 9.7-2.5 1.3-4.3 2.5-6.5 4.4-8.5 6.3-18.3 7-28.6 5.9-9.5-1.9-16.2-8.6-21.7-16.4-3-5.9-3.6-11.6-3.6-18.1v-10.8q0-3-.1-6v-26.3q-.1-15.9-.1-31.8 0-18.3-.1-36.6v-28.3q0-8.4-.1-16.9v-21.7c-.2-13 1-22.9 10.1-33.1 6.3-5.7 13.2-8.1 21.7-8.3q1.5-.1 3.1-.1c9.7 1.1 18.1 6 26.5 10.8l3.2 1.8c10.5 6 20.9 12.1 31.4 18.2q6.1 3.6 12.2 7.1 7.6 4.4 15.1 8.8c11.6 6.8 23.2 13.4 34.9 19.9q8.1 4.5 16 9.3c4.2 2.5 8.5 5 12.8 7.4q1.3.8 2.7 1.6l12.2 6.8c10.8 6 19.9 12.3 26.8 22.7 3 11 1.4 22.2-4 32-6.7 7.7-15.2 12.3-24 17q-1.8 1-3.7 2.1c-2.4 1.4-4.8 2.7-7.3 3.9-2.7 1.3-5.3 2.7-7.9 4.2C592 518 575 528.3 575 529c-4 1.7-11.2 6.6-12 7-1.8 1-7.1 3.6-8.2 4.1"/><path fill="#996c30" d="M820 459h1q.7 5.2 1.4 10.3.2 1.4.4 2.9c8.1 58.2-2.8 117.9-27.8 170.8-.6 1.2-.6 1.2-1.1 2.4-9.2 19.8-21 37.9-34.5 54.9q-1.8 2.2-3.6 4.5c-12.6 16.3-27.6 31.5-43.8 44.2q-1.7 1.4-3.5 2.9c-7.9 6.5-16.1 12.5-24.8 18l-4.6 3c-17.7 11.4-37.2 21-57.1 28.1q-1.6.6-3.2 1.1c-18.9 6.7-37.3 11.4-57 14.6q-1.1.2-2.1.3c-78.6 12.5-160.8-8.9-225.1-55.2-12-8.8-23.1-18.4-34-28.6q-1-.8-2-1.8c-3.9-3.7-7.5-7.5-11-11.6-2-2.2-4-4.4-6.1-6.6-20.1-22-35.8-48.3-48.5-75.2q-.6-1.2-1.2-2.5c-6.6-14.3-11.7-28.7-16-43.8q-1-3.3-2-6.5c-2.4-7.7-4-15.4-5.6-23.3l-.6-3.2c-1.5-7.7-1.9-14.9-1.6-22.7 2.3 2.3 2.5 3.9 3 7.1 8 46.7 31.6 93.2 61.7 129.3q2 2.4 3.9 4.8c12 14.6 25.4 28.4 40.4 39.8q1.6 1.3 3.1 2.5c54.5 44.2 123.4 67.7 193.2 67.7q1.3.1 2.7.1c13.3-.1 26.2-.6 39.3-2.9l8.2-1.2C614.3 775.4 666 751 707 717q.8-.6 1.6-1.3c15.1-12.3 29.7-26.1 41.4-41.7q1.5-2 3.1-3.9c29.6-38 48.9-80.3 59.9-127.1l1-4c5.9-26 5.6-53.4 6-80"/><path fill="#46a18a" d="M490 349.2q3.9 2.4 7.8 4.9c3.7 2.2 7.5 4.3 11.3 6.3l13.5 7.5q1.4.9 2.9 1.7 20.9 11.8 41.5 23.9c10.5 6.2 21 12.2 31.6 18.1q12.9 7.05 25.5 14.4 1.2.8 2.6 1.5c16.7 10 28 19.3 33.4 38.5 3.2 12.6.1 25.3-6.4 36.4-6.2 9.4-14.1 15-23.7 20.6q-1.4.8-2.9 1.7-10 5.8-20 11.5-6.3 3.6-12.6 7.3l-15.6 9q-16 9.2-31.9 18.5l-41.4 24q-3.4 1.9-6.8 3.9l-6.6 3.8c-4.8 2.7-9.5 5.5-14.2 8.4-13.9 8.5-26.6 12.1-43 9.4-5.8-1.6-10.9-4.3-16-7.5-1-.6-1-.6-2.1-1.3C406.2 604.5 401 593 397 581q-.1-4.1-.1-8.1v-2.5q-.1-4.2-.1-8.5v-64.8q0-18.5-.1-37v-45.8q-.1-8-.1-16.1v-5.9c0-12.3 0-24.2 6.3-35.2q.8-1.3 1.5-2.6c21.4-33.2 58.1-21.8 85.6-5.3m111 164c4.4-2.7 9-5.2 13.5-7.7 16.6-8.8 16.6-8.8 27.5-23.5 1-4.3 1.2-8.6 1.2-13v-3.6c-.3-5.2-1.7-9.2-4.9-13.4-.7-.9-.7-.9-1.4-1.9-4.9-5.4-10.4-9.3-16.7-12.8-1.1-.7-1.1-.7-2.2-1.3-5.9-3.4-11.9-6.7-17.8-10-7.3-4-14.4-8.2-21.6-12.4q-11.8-6.9-23.6-13.6-14.6-8.3-29.1-16.8-12.5-7.3-25-14.5l-15.2-8.8q-2.7-1.5-5.3-3.1-3.4-1.9-6.7-3.9c-17.5-10.1-37.2-16.4-52.7 1.1-4.9 7.1-7.2 12.4-7.1 21.1v2.5q-.1 4.2-.1 8.3v64.4q0 18.4-.1 36.8v45.4q-.1 8-.1 15.9v16.2c.1 9.9 4.5 17.4 11 24.5 6.5 6.3 12.8 8.1 21.8 8.5 10.7-.4 18.4-4.5 26.9-10.8 4.3-2.9 9-5 13.7-7.2 2.6-1.4 14.3-8.3 15-8.6s16.1-9.4 21.5-13.3c3.6-2.5 7-3.5 10.9-5.8 5.2-3.1 10.5-5.5 15.4-8.8 2.4-1.6 11.2-6.8 13.2-7.1 0-.7 8.7-5.6 12-7 0-.7 11-6.6 15-9 .8-.5 8.2-5.2 11-6.8"/><path fill="#fcf7ed" d="M288.8 322.7c1.4-3.1 3.1-5.2 5.2-7.8 2.4-2.9 8-10.9 9-11.9q3.4-4.2 6.7-8.5c2.2-2.3 7.5-6.6 8.5-7.4 1.6-1.4 2.2-1.5 3.6-3 2.6-2.8 3-3.9 6.2-6.1 3.6-2.5 7.4-5.2 9.7-6.7q1.1-.7 2.1-1.4c5.8-3.8 11.9-7 18.2-9.9q1-.5 2.1-1c3.4-1.6 8.3-3.3 10.9-4 6.6-1.8 14.2-3.2 20.3.3 1.7 1.7 1.7 1.7 2.2 5.4-.6 9.3-6.6 15-13 21.2-2.5 2.1-9.7 10.6-10.8 11.2-1.2.6-3.9 3.3-4.6 3.8-3.2 2.1-5.1 5.5-7.7 8.2q-1.6 1.8-3.2 3.5-.8.9-1.7 1.8c-10 10.6-19.5 21.7-28.1 33.5-2.6 3.4-5.4 6.8-8.1 10.2-4.7 5.7-9.1 11.7-13.5 17.7-17.7 24.1-17.7 24.1-26.8 30.2-2.5.4-2.5.4-5 0-2.6-2.8-3.4-4.8-3.4-8.6q-.1-1.3-.1-2.7t.1-2.8v-3c.4-17.9 6-34.1 14.4-49.8 1-2.1 1.7-4.5 3-6.3 1-1.3 3-3.9 3.8-6.1"/><path fill="#dfc38b" d="M508.4 95.9h7.3c14.2 0 28.3.5 42.4 2.4q1.5.2 2.9.4c16.4 2.3 32.3 5.1 48.1 9.8 2.6.7 5.2 1.3 7.8 1.9 52.7 13 106 42.8 145.9 79.5 2.1 2 4.3 3.9 6.5 5.8 3.3 2.8 6 5.9 8.7 9.3-3.4-1.5-5.6-3.4-8.3-5.9-6.2-5.6-12.8-10.6-19.6-15.6q-2-1.5-4.1-3c-55.3-40.9-122.3-65.8-190.6-72.6q-1.2-.1-2.3-.2-2.4-.2-4.7-.5-2.4-.2-4.8-.5c-8.9-.9-17.7-.9-26.7-.9h-2.5c-34.1.1-67.9 4.1-100.8 13.2q-3.6 1-7.2 1.9c-35.3 8.9-69.7 25.7-100.4 45.1q-1 .6-2 1.3c-16.6 10.6-32.2 22.6-47.3 35.3q-2.2 1.8-4.5 3.6c-2 1.6-3.6 3.3-5.3 5.3-3.1 3.7-6.5 7.1-9.9 10.5-4.5 4.5-8.9 9.1-13 14l-2.4 2.8c-17.2 19.9-32.2 41.5-45.6 64.2q-.6.9-1.2 1.9c-31.7 53-45.2 113.2-49.8 174.1h-1c-3.2-79.6 27.2-160.6 74-224q.7-.9 1.4-1.9c11.8-15.9 25-30.6 38.9-44.6q2.3-2.3 4.6-4.7c8.3-8.3 17.2-15.7 26.7-22.8q5.7-4.35 11.1-9.3c12.3-11.3 26.8-20.3 41.3-28.7q.9-.6 1.9-1.1c14.1-8.1 29.3-13.8 44.7-18.8 3.2-1 6.1-2.2 9.1-3.5 40.3-17.1 87.2-23.8 130.7-23.7"/><path fill="#f9ddb3" d="m555 172 2.4.4q6.3 1 12.6 2.2 3 .6 6.1 1.1c23.3 4.1 46.7 12.8 67.9 23.3q2.1 1 4.3 2.1c18.5 9 35.3 19.9 51.7 32.4q5 3.8 10 7.5l-2 2q-.7-.5-1.4-1.1C655.8 204.7 595.8 179.5 532 178c-1.3 0-1.3 0-2.6-.1-49.9-1-99.2 7.3-144.4 29.1l-2.6 1.2c-13.9 6.6-26.8 14.1-39.4 22.8q-1 .7-2.1 1.4c-10.3 7.2-20.1 14.8-29.4 23.3q-3.7 3.4-7.5 6.7c-28.8 26-51.7 58.6-68 93.6q-.7 1.4-1.3 2.8C221.1 388.1 213.2 419 209 451c-.1 1-.1 1-.3 1.9-.8 6.4-.9 12.6-.9 19v10.6q-.1 5.4-.1 10.7c-.1 20.2 1.9 39.6 6.5 59.3q.3 1 .5 2c3.9 16.6 8.4 33 15.3 48.7 1 2.8 1 2.8 0 5.8-6.6-15.1-12.5-30.2-17-46l-1-3.4c-2.5-8.9-4.3-17.9-5.8-27.1q-.6-3.5-1.2-6.9-.4-2.3-.7-4.5l-.4-2c-1.4-8.7-2.1-17.3-2-26.1v-17.4c0-16.2.5-32 3.2-48q.3-1.9.7-3.9c7.4-42.5 24.1-84.5 49.2-119.7q.8-1.1 1.6-2.3c7.6-10.6 15.6-20.9 24.4-30.7q.8-.9 1.7-1.9c10.9-12.1 22.5-23 35.3-33.1q.9-.7 1.7-1.4c33.2-25.8 70.9-44.4 111.3-55.6l2-.6c12.8-3.6 25.9-5.6 39-7.4l2.6-.4c26.4-3.6 54.1-2.7 80.4 1.4"/><path fill="#fbf9f0" d="M471.3 222.1c3.6 3.9 4.2 7.3 4.1 12.5-1.1 7.3-5.9 12.5-11.5 17-2.2 1.6-4.3 2.6-6.9 3.4q-.9.4-1.8.7c-9.9 4.1-20.7 4.4-30.7.3-4.9-2.9-8.4-6.4-10.1-11.9-1.3-7 1.8-12.4 5.6-18.1 14-12.8 36.5-16.9 51.3-3.9"/><path fill="#e1c38a" d="m267 183 2 1q-1 1-2.1 2c-11.3 10.2-11.3 10.2-18.3 22.9-.8 2.8-2.1 4-4.2 5.9l-2.2 2.2-2.3 2.3c-5.6 5.3-10.9 10.8-15.9 16.7l-2.6 3c-17.1 20-32 41.4-45.4 64q-.6.9-1.2 1.9c-31.7 53-45.2 113.2-49.8 174.1h-1c-3.2-79.6 27.2-160.6 74-224q.7-.9 1.4-1.9c11.8-15.9 25-30.6 38.9-44.6q2.3-2.3 4.6-4.7c7.6-7.6 15.5-14.4 24.1-20.8"/><path fill="#b9efe1" d="M466.5 379.8c10.6.2 19.2 4.5 28.5 9.2q1.3.7 2.7 1.3c12.1 6.1 23.7 12.3 34.3 20.7q1.2.9 2.4 1.9c4.6 3.7 8.2 7.7 10.6 13.1v3c-4.8 2.4-9.7 1.4-14.6-.1-22.2-7.7-54.3-21.5-67.4-41.9-1-3.4-1-3.4-1-6 1-1 1-1 4.5-1.2"/><path fill="#f7edd3" d="m405 118-1 3c-1.8.9-1.8.9-4.3 1.7q-1.3.4-2.7.9-1.5.5-3.1 1c-51.5 17.2-97.4 44.5-138.9 79.4l-6 5c0-4.1 2-6.1 4.4-9.1l1.4-1.8c3.5-4.4 7.3-8.4 11.3-12.2 2-1.9 2-1.9 4-4.5 2.9-3.6 6.3-6.4 9.9-9.4q.7-.6 1.5-1.3c25.7-21.6 56-39 88.5-47.7l3-.8c10.2-2.7 21.4-4.2 32-4.2"/><path fill="#b9efe1" d="M568 431c6 1.8 10.9 5.5 14 11 .6 3.7.6 3.7 0 7-1.9 2.4-3.3 3.7-6 5-6 .6-10.1-.6-15-4-3.6-3.5-6.8-6.8-7.3-11.9.3-3.1.3-3.1 1.7-5.5 4.1-2.5 7.9-2.3 12.6-1.6"/><path fill="#e2bf81" d="m136 383 4 1q-1.6 8.4-3.6 16.7c-6.2 25.9-9.4 51.7-11.4 78.3h-1c-1.2-31 2.1-66.4 12-96"/><path fill="#f6ce9c" d="M209 527h1q.1 1 .3 2c2.6 18.1 6.2 35.8 12.1 53.1.8 2.4 1.5 4.9 2.2 7.3 1.4 4.9 3.4 9.4 5.5 14 .9 2.6.9 2.6-.1 5.6-6.6-15.1-12.4-30.2-17-46l-.6-2.2c-7-23.7-7-23.7-3.4-33.8"/><path fill="#e0be80" d="M724 161c6.2 3.2 11.8 6.8 17.3 11.1 1 .9 1 .9 2.2 1.7 28.1 22 28.1 22 34.5 31.2-3.4-1.5-5.6-3.4-8.3-5.9-14.5-13.3-31.5-25.5-48.7-35.1z"/><path fill="#ddb672" d="M127 428h1c.9 6.8 1 13.1.2 19.9q-.1 1.4-.3 2.8l-.8 8.4-.6 5.8q-.8 7.1-1.5 14.1h-1c-.5-17.2 1-33.9 3-51"/><path fill="#f4c892" d="M221 581c1.8 2.7 2.5 4.4 3.3 7.4 1.5 5.3 3.6 10.1 5.8 15 .9 2.6.9 2.6-.1 5.6q-2.6-5.9-5.1-11.8c-.7-1.6-.7-1.6-1.4-3.3q-.7-1.6-1.4-3.3-.6-1.4-1.3-2.9c-.8-2.8-.8-4 .2-6.7"/><path fill="#f1d9b6" d="M289 389c0 3 0 3-2.5 5.7q-1.2 1.1-2.5 2.3l-2-1z"/></svg>