<svg version="1.2" xmlns="http://www.w3.org/2000/svg" viewBox="0 0 927 1024" width="927" height="1024"><path fill="#f3c590" d="M457.1 146.8h12.5q4.2 0 8.5-.1c28.4-.2 56.1 1.9 83.9 8.3l3.4.8c31.6 7.3 63.9 17.6 92.6 33.1q3.5 1.9 7.1 3.8c25.5 13.4 49.3 30.1 70.9 49.3q2.1 1.8 4.2 3.7 1.9 1.6 3.8 3.3c1.1 1 1.1 1 2.2 1.9 6.2 5.6 12.1 11.3 18 17.2q1.3 1.2 2.6 2.5c4.9 5 9.7 10 14.2 15.4q.8.9 1.5 1.8c69.4 83 101.5 184.8 96.2 306.2-5 51.5-19.9 105.4-45.4 150.7q-2.1 3.7-4.1 7.4c-13.1 23.7-28.9 45.7-46.7 66-2.5 2.8-2.5 2.8-4.2 5.3q-.6.8-1.3 1.6h-2q-.4.8-.7 1.7c-1.6 2.8-3.5 4.8-5.8 7l-2.8 2.8-1.4 1.4-4.2 4.2c-5.2 5.2-10.5 10.2-16.1 14.9q-.9.8-1.7 1.5c-4.1 3.5-4.1 3.5-6.3 3.5v2c-1.9 1.7-3.9 3.3-5.9 4.9q-1 .7-1.9 1.4c-7.6 5.8-15.4 11.3-23.2 16.7q-.9.6-1.9 1.3c-15.7 10.8-31.9 20.6-49.1 28.7q-1.4.7-2.9 1.4c-89.9 42.5-191.5 52.9-319.1 15.2-9.3-3.4-18.4-7.3-27.5-11.5q-3.5-1.5-7-3.1c-25.2-11.4-48.4-26.8-70.5-43.5-2-1.5-4-2.9-6-4.3l-3-2.2v-2l-1.6-.6c-3.4-2-6.2-4.5-9.2-7.1l-1.8-1.6q-1.8-1.6-3.6-3.1-1.9-1.7-3.8-3.3-1-.7-1.9-1.6l-1.8-1.4C193 847 193 847 193 845q-.8-.3-1.7-.7c-3-1.7-5.1-3.9-7.6-6.4q-.7-.8-1.5-1.5-4.9-5-9.5-10.4c-1.9-2.3-3.9-4.4-6-6.6-5-5.7-9.7-11.6-14.3-17.6q-2-2.6-4.1-5.2c-4.4-5.7-8.6-11.4-12.4-17.5l-5.8-9.2q-3.6-5.4-7.1-10.9-.6-.9-1.2-1.9c-7.4-11.5-13.1-23.7-18.8-36.1q-.6-1.2-1.2-2.5C90.7 694.6 82.9 668.6 77 643c-.3-1.4-.3-1.4-.7-2.8-4.3-18.6-6-37.2-7.3-56.2q-.1-1-.1-2c-.8-10.1-1.1-20.2-1.2-30.4v-2.2c.1-58 12.3-116 37.3-168.4q.5-1 .9-2 3.5-7.1 7.1-14 .6-1.1 1.2-2.3c16.1-30.8 36.9-62.7 62.2-87.1 2.5-2.5 4.7-5.1 7-7.8 1.8-2 3.6-4 5.6-5.8h2v-2h2v-2c1.6-1.7 1.6-1.7 3.8-3.6l2.2-1.8c2-1.6 2-1.6 5-2.6v-2c1.9-1.7 1.9-1.7 4.6-3.9l3-2.4q.8-.6 1.7-1.3l5.4-4.4c6.9-5.6 13.9-11 21.3-16q1.3-.9 2.7-1.8c62.8-42.5 137.9-71.1 214.4-71.4"/><path fill="#b0853c" d="M457.1 146.8h12.5q4.2 0 8.5-.1c28.4-.2 56.1 1.9 83.9 8.3l3.4.8c31.6 7.3 63.9 17.6 92.6 33.1q3.5 1.9 7.1 3.8c25.5 13.4 49.3 30.1 70.9 49.3q2.1 1.8 4.2 3.7 1.9 1.6 3.8 3.3c1.1 1 1.1 1 2.2 1.9 6.2 5.6 12.1 11.3 18 17.2q1.3 1.2 2.6 2.5c4.9 5 9.7 10 14.2 15.4q.8.9 1.5 1.8c69.4 83 101.5 184.8 96.2 306.2-5 51.5-19.9 105.4-45.4 150.7q-2.1 3.7-4.1 7.4c-13.1 23.7-28.9 45.7-46.7 66-2.5 2.8-2.5 2.8-4.2 5.3q-.6.8-1.3 1.6h-2q-.4.8-.7 1.7c-1.6 2.8-3.5 4.8-5.8 7l-2.8 2.8-1.4 1.4-4.2 4.2c-5.2 5.2-10.5 10.2-16.1 14.9q-.9.8-1.7 1.5c-4.1 3.5-4.1 3.5-6.3 3.5v2c-1.9 1.7-3.9 3.3-5.9 4.9q-1 .7-1.9 1.4c-7.6 5.8-15.4 11.3-23.2 16.7q-.9.6-1.9 1.3c-15.7 10.8-31.9 20.6-49.1 28.7q-1.4.7-2.9 1.4c-89.9 42.5-191.5 52.9-319.1 15.2-9.3-3.4-18.4-7.3-27.5-11.5q-3.5-1.5-7-3.1c-25.2-11.4-48.4-26.8-70.5-43.5-2-1.5-4-2.9-6-4.3l-3-2.2v-2l-1.6-.6c-3.4-2-6.2-4.5-9.2-7.1l-1.8-1.6q-1.8-1.6-3.6-3.1-1.9-1.7-3.8-3.3-1-.7-1.9-1.6l-1.8-1.4C193 847 193 847 193 845q-.8-.3-1.7-.7c-3-1.7-5.1-3.9-7.6-6.4q-.7-.8-1.5-1.5-4.9-5-9.5-10.4c-1.9-2.3-3.9-4.4-6-6.6-5-5.7-9.7-11.6-14.3-17.6q-2-2.6-4.1-5.2c-4.4-5.7-8.6-11.4-12.4-17.5l-5.8-9.2q-3.6-5.4-7.1-10.9-.6-.9-1.2-1.9c-7.4-11.5-13.1-23.7-18.8-36.1q-.6-1.2-1.2-2.5C90.7 694.6 82.9 668.6 77 643c-.3-1.4-.3-1.4-.7-2.8-4.3-18.6-6-37.2-7.3-56.2q-.1-1-.1-2c-.8-10.1-1.1-20.2-1.2-30.4v-2.2c.1-58 12.3-116 37.3-168.4q.5-1 .9-2 3.5-7.1 7.1-14 .6-1.1 1.2-2.3c16.1-30.8 36.9-62.7 62.2-87.1 2.5-2.5 4.7-5.1 7-7.8 1.8-2 3.6-4 5.6-5.8h2v-2h2v-2c1.6-1.7 1.6-1.7 3.8-3.6l2.2-1.8c2-1.6 2-1.6 5-2.6v-2c1.9-1.7 1.9-1.7 4.6-3.9l3-2.4q.8-.6 1.7-1.3l5.4-4.4c6.9-5.6 13.9-11 21.3-16q1.3-.9 2.7-1.8c62.8-42.5 137.9-71.1 214.4-71.4m-41.2 104.4c-3.1.7-6.1 1.1-9.3 1.3-4.7.4-8.9 1.8-13.3 3.4-3.1 1-6.3 2-9.4 3-33.3 10.2-64.8 26.2-91.9 48.1l-2.6 2c-5.7 4.5-11.1 9.3-16.4 14.3-3.6 3.3-7.3 6.5-11 9.7-2.1 1.9-2.1 1.9-3.1 4.2-.9 1.8-.9 1.8-3.9 2.8-2.6 2.4-4.7 5.3-7 8q-.7.8-1.4 1.7c-7.4 8.8-14.3 17.8-20.5 27.5q-1.6 2.6-3.3 5c-6.7 10-12.1 20.6-17.5 31.3l-3.2 6c-3.8 7.2-6.3 14.6-8.7 22.3-.8 2.6-1.8 5.1-2.9 7.6-1.9 4.5-3.2 9-4.5 13.6l-.8 2.8c-5.7 20.6-9.4 42.3-9.3 63.7v20.1c-.2 20.3-.2 20.3 3 40.4 1.2 5.1 2.3 10.1 3 15.3 2.9 20.6 10.4 41.7 18.9 60.6q.6 1.4 1.3 2.9c2.4 5.4 5.2 10.4 8.6 15.3 1.9 2.8 3 5.8 4.3 8.9 1.6 3 3.3 6 5 9h2q.3 1 .7 1.9c2.6 6.2 5.5 11.4 10.3 16.1q2.3 3.4 4.5 6.9c1.4 1.9 2.8 3.5 4.5 5.1q1.5 1.8 3.1 3.6c3.7 4.2 7.7 8.2 11.8 12.1 1.9 2.1 2.9 3.7 4.1 6.3 2.5 2.7 5.1 5.1 8 7.5 3 2.5 3 2.5 5.2 4.7 24.8 24.5 59 45.4 91.9 56.7 2.4.9 4.6 1.9 6.9 3 5.8 2.6 11.9 4.1 18.1 5.7q1.7.4 3.6.9c7.7 1.9 15.3 3.6 23.2 4.9 3.1.6 3.1.6 5.8 1.6 30.9 9.6 80.8 8.5 111.2-2 3.2-1 6.5-1.8 9.8-2.6 11.4-2.7 22.5-6.7 33.6-10.5 2.2-.7 4.4-1.4 6.7-1.9v-2c2.3-.3 4.6-.7 7-1v-2q.9-.1 1.8-.3c5.3-1 8.7-2.6 13.2-5.7q2.4-1 4.8-1.9c4.5-1.7 8.2-3.9 12.1-6.7 2.6-1.8 5.3-3.1 8.1-4.4v-2q1.5-.3 3.1-.6c4-1.1 6.4-3.3 9.4-6.1 1.5-1.3 1.5-1.3 3.5-2.3v-2q1.1-.4 2.2-.7c3.1-1.4 5.2-3.1 7.8-5.3q1.7-1.3 3.3-2.5.9-.6 1.8-1.3 1.7-1.3 3.5-2.7c1.5-1.1 3-2.3 4.4-3.5v-2l1.6-.6c3.4-2 6-4.5 8.8-7.1q.9-.8 1.7-1.6c3.6-3.4 6.8-6.9 9.9-10.7l5-5 2.6-3.2c2.4-2.8 2.4-2.8 5.4-4.8 1.3-2.1 2.3-4.2 3.4-6.4 1.8-2.9 3.8-5.2 6-7.7 2.7-3.2 5.2-6.7 7.6-10.1q.8-1.2 1.6-2.3c3.3-4.8 6.3-9.6 9-14.8 1.3-2.6 2.8-5.1 4.4-7.6 3.7-6.3 6.5-12.5 8.9-19.4 1.2-3.3 2.4-6.5 4.1-9.6 2.2-4.3 3.8-8.7 5.4-13.3q.4-1.3.9-2.6c4.9-14.4 9.3-29.1 11.7-44.2l.4-2.4c2.4-14.6 2.9-29.1 2.8-43.9V547q0-9-.2-18 0-1.3-.1-2.5c-.3-11.7-1.5-22.8-3.8-34.2l-1.4-7.2c-1.6-8.1-3.3-16.1-5.7-24.1q-.3-1.2-.7-2.4c-2.7-9.2-5.7-18.2-9.7-26.9-1.4-3.3-2.6-6.5-3.9-9.8-2.6-6.9-5.8-13.3-9.3-19.7q-.9-1.7-1.9-3.4c-4.6-8.4-9.6-16.3-15.2-24l-3.8-5.4c-5.9-8.6-12.5-16.6-19.5-24.4l-2.4-2.8c-7.4-8.3-15.1-16-23.6-23.2l-2.6-2.2c-13.1-11.1-26.6-20.8-41.3-29.6q-2.9-1.7-5.8-3.5c-6-3.8-11.8-7-18.3-9.7q-3.5-1.5-6.9-3-7.3-3.1-14.7-6.1-2.5-.9-4.9-1.9c-9.7-4-19.3-6.7-29.5-9q-1.6-.4-3.3-.8c-42.3-9.6-85.2-11.7-127.8-2"/><path fill="#5fbca4" d="M472.3 346.6q1.7-.1 3.5-.1c7.8-.1 13.8.9 20.2 5.5 5.8 6.2 7.1 11.1 7.2 19.5v5.1q.1 4.1.1 8.1.1 3.9.1 7.8v2.4c.1 4.5.1 4.5 2.5 8.1 2.3 1.1 4.5 1.9 6.9 2.6 6.6 2.1 12.9 4.8 19.3 7.5q1.5.7 3.1 1.4c7.4 3.2 7.4 3.2 10.8 5.5 3.4.4 5.3.4 8.2-1.4l2.2-2.2 2.6-2.4 6.8-6.8q1-1 2-2.1 1.9-1.9 3.8-4c5.8-5.8 10.3-8.5 18.8-8.7 1.8 0 1.8 0 3.7-.1 8.2 1.5 14 8.4 19.6 14.1q1 1 2 1.9c4.6 4.6 8.6 9 9.8 15.5-.1 12.7-6.9 19.6-15.5 28.2l-3.4 3.2q-.8.8-1.7 1.6-1.5 1.5-3.2 2.9c-2.6 2.5-3.7 4-4.3 7.7.7 4.3 2.1 7.5 4.2 11.3 5.5 11.1 9.5 22.6 13.4 34.3h3.3q6 .1 12.1.3h5.2q3.8.1 7.5.2h2.4c7.5.2 14.3 2.3 19.9 7.7 5.8 6.7 5.1 16.5 5 24.9q.1 1.8.1 3.7c0 8.2-.8 13.7-6.2 20.2l-1.6 1.4-1.6 1.4c-5.3 3.1-11.1 3.5-17.1 3.5h-4.5q-3.5.1-7.1.1-3.4 0-6.8.1c-1.1 0-1.1 0-2.1-.1-3.4.1-5.2.4-7.9 2.4-1.5 2.1-2.3 3.5-3 6q-.3 1-.7 2.1-.3 1.2-.7 2.3c-3.1 10.2-7.3 19.9-13.2 28.8-.5 2-.5 2-.6 4.2l-.4 3.8h2q2.1 2.4 4.1 5c2.9 3.7 5.9 7 9.5 10.1 6.6 5.6 11.7 11.1 12.7 19.8.3 5.7.4 10-3.1 14.7q-2 2.2-4.2 4.4-1.4 1.5-2.9 3c-13.7 14.5-13.7 14.5-22.6 15.2-6 .1-10.3-.1-15.5-3.2q-2.1-2.4-4-5c-2-1.8-4-3.5-6-5.2-2-1.8-2-1.8-3.9-4.2-2.2-2.7-4.3-4.8-6.9-7q-1.2-1-2.5-2.1c-3.8-2.1-5.5-1.6-9.7-.5-3.2 1.4-6.3 3.1-9.3 4.8-8.8 4.8-17 9-26.9 10.7-2 .4-2 .4-3.8 2.5-.2 2.8-.3 5.4-.2 8.2q-.1 2.5-.1 5v8c0 19.8 0 19.8-8 28.2-8 4.8-16 5.1-25.3 5q-1.7.1-3.5.1c-6.8 0-12.3-.4-17.9-4.5-2-2-2-2-3.4-4.1l-1.4-2q-.6-.9-1.2-1.9l-2-3c-.2-2.9-.3-5.8-.3-8.8q-.1-1.2-.1-2.5-.1-5.6-.1-11.1l-.2-8v-2.5c.1-4.5.1-4.5-2.3-8.1-1.9-.8-1.9-.8-4.1-1.4-1.2-.3-1.2-.3-2.4-.7q-2.6-.8-5.1-1.5c-4.8-1.5-9.2-3.1-13.6-5.5-1.8-.9-3.6-1.6-5.4-2.4-2.5-1.1-4.7-2.2-7-3.7-3.5-1.8-4.6-2.4-8.4-1.8-2.7 2.1-2.7 2.1-5.3 4.9l-1.5 1.5-4.6 4.8q-2.3 2.5-4.7 4.8l-4.2 4.4c-6.8 6.4-12.2 8.1-21.3 8-5.3-.6-8.4-3-12.4-6.4l-2-1.6c-7-5.6-16.2-14-17.4-23.3v-3.3l-.2-3.2c1.8-11.1 10.7-17.9 18.5-25.2q2.2-2.1 4.5-4.2 1.3-1.3 2.7-2.5c2.5-3.5 2.4-5.5 1.9-9.7-.7-2.4-.7-2.4-1.9-4.5q-.5-1.2-1.2-2.4c-.6-1.2-.6-1.2-1.2-2.5-2.8-5.4-5.2-10.7-7-16.5-1-2.9-2.1-5.7-3.2-8.5q-.6-1.5-1.2-3.1c-1.2-2.8-1.2-2.8-4.3-4.5-2.5-.2-4.9-.3-7.4-.3q-2.3 0-4.5-.1-3.5 0-7.1-.1c-19.9-.1-19.9-.1-26.3-5.4l-1.6-2q-.9-1-1.7-2.1c-4.4-6.4-3.7-12.5-3.7-20.2q0-1.9-.1-3.9c0-8.1 0-15.7 5.3-22.2l2-1.6q1-.9 2-1.7c5-3.3 9.6-3.7 15.6-3.7q1.2-.1 2.4-.1 5.2-.1 10.3-.1l7.6-.2h2.3c3.8 0 5.7-.1 8.9-2.3.8-2.2.8-2.2 1.4-4.9 2-8.1 5.4-15.6 9-23.2q.6-1.3 1.2-2.7 1.3-2.7 2.5-5.3l1.2-2.6c.5-1.1.5-1.1 1.1-2.2.8-2.6.7-3.6-.4-6.1-2.1-2.5-2.1-2.5-4.8-5l-1.4-1.4q-2.3-2.3-4.6-4.5l-4.6-4.4q-2.1-2-4.1-4.1c-6.2-6.6-7.9-11.7-7.8-20.6.4-4.4 1.7-6.5 4.3-10q.9-1.2 1.7-2.5c2.6-2.8 5.3-5.2 8.2-7.7 2-1.7 3.8-3.6 5.7-5.6 4.4-4.4 8.9-6.3 15.2-6.8 12.4.7 20.8 11.9 28.6 20.3q1.3 1.4 2.7 2.8 1.1 1.3 2.3 2.6c3.3 2.4 5.5 2.8 9.6 2.9 2.7-.7 2.7-.7 5.1-2.1q1.4-.7 2.8-1.5 1.5-.7 3-1.5C429.4 404 429.4 404 439 404c1.2-3.7 1.2-7.2 1.2-11.1V388q.1-3.9.1-7.8.1-3.7.1-7.4v-2.3c.2-6.6 2.2-11.8 6.5-16.7q1-.8 2-1.7.9-.8 1.9-1.7c6.6-4.3 13.9-3.8 21.4-3.8z"/><path fill="#46a18a" d="M202.8 854.6q-1.9-1.7-3.8-3.3-1-.7-1.9-1.6l-1.8-1.4c-1.3-1.3-8.1-7.9-10.6-10.4q-.7-.8-1.5-1.5-4.9-5-9.5-10.4c-1.9-2.3-3.9-4.4-6-6.6-5-5.7-9.7-11.6-14.3-17.6q-2-2.6-4.1-5.2c-4.4-5.7-8.6-11.4-12.4-17.5l-5.8-9.2q-3.6-5.4-7.1-10.9-.6-.9-1.2-1.9c-7.4-11.5-13.1-23.7-18.8-36.1q-.6-1.2-1.2-2.5C91.7 694.6 83.9 668.6 78 643c-.3-1.4-.3-1.4-.7-2.8-4.3-18.6-6-37.2-7.3-56.2q-.1-1-.1-2c-.8-10.1-1.1-20.2-1.2-30.4v-2.2c.1-58 12.3-116 37.3-168.4q.5-1 .9-2 3.5-7.1 7.1-14 .6-1.1 1.2-2.3c16.1-30.8 36.9-62.7 62.2-87.1 2.5-2.5 4.7-5.1 7-7.8 1.8-2 11.2-11.5 13.4-13.4l2.2-1.8c2-1.6 6.9-6.3 9.6-8.5l3-2.4q.8-.6 1.7-1.3l5.4-4.4c6.9-5.6 13.9-11 21.3-16q1.3-.9 2.7-1.8c62.8-42.5 137.9-71.1 214.4-71.4h12.5q4.2 0 8.5-.1c28.4-.2 56.1 1.9 83.9 8.3l3.4.8c31.6 7.3 63.9 17.6 92.6 33.1q3.5 1.9 7.1 3.8c25.5 13.4 49.3 30.1 70.9 49.3q2.1 1.8 4.2 3.7 1.9 1.6 3.8 3.3c1.1 1 1.1 1 2.2 1.9 6.2 5.6 12.1 11.3 18 17.2q1.3 1.2 2.6 2.5c4.9 5 9.7 10 14.2 15.4q.8.9 1.5 1.8c69.4 83 101.5 184.8 96.2 306.2-5 51.5-19.9 105.4-45.4 150.7q-2.1 3.7-4.1 7.4c-13.1 23.7-28.9 45.7-46.7 66-2.5 2.8-2.5 2.8-4.2 5.3-.4.5-7.5 8.1-9.8 10.3l-2.8 2.8-1.4 1.4-4.2 4.2c-5.2 5.2-10.5 10.2-16.1 14.9q-.9.8-1.7 1.5c-4.1 3.5-10.2 8.8-12.2 10.4q-1 .7-1.9 1.4c-7.6 5.8-15.4 11.3-23.2 16.7q-.9.6-1.9 1.3c-15.7 10.8-31.9 20.6-49.1 28.7q-1.4.7-2.9 1.4c-89.9 42.5-191.5 52.9-319.1 15.2-9.3-3.4-18.4-7.3-27.5-11.5q-3.5-1.5-7-3.1c-25.2-11.4-48.4-26.8-70.5-43.5-2-1.5-4-2.9-6-4.3-1-.7-18-15.6-19.2-16.6m539.3-565.8q-.9-.8-1.8-1.7c-4.4-4.3-8.9-8.2-13.7-12-2.6-2.1-5-4.3-7.4-6.5-6-5.5-12.5-10-19.2-14.6q-1.1-.8-2.3-1.6c-13.2-9.2-26.9-17.3-41-24.9q-3.4-1.9-6.7-3.8c-6.2-3.4-12.4-6.2-19.1-8.6-2.9-1.1-2.9-1.1-5.3-2.6-3.5-2-7.1-3.2-10.9-4.5q-2.2-.7-4.4-1.5l-2.2-.8c-2-.7-3.9-1.4-5.9-2.2-4.2-1.6-8.5-2.6-12.9-3.7-3.4-.8-6.9-1.8-10.3-2.7-31.2-8.6-62.2-13.7-94.7-13.5H481c-35.2.1-72.2 3.1-105.8 14.7-4.1 1.3-8.3 2.4-12.4 3.6-10.4 2.9-20.4 6.2-30 11.2-1.8.9-3.7 1.6-5.7 2.3-4 1.5-7.7 3.4-11.5 5.3-2.5 1.3-5.1 2.4-7.7 3.5-13.4 5.9-25.7 13.8-37.9 21.8q-1 .7-2.1 1.4c-20 13.1-40.8 29.3-56.2 47.6-2 2.3-4.1 4.4-6.2 6.5-4 4-7.8 8.2-11.5 12.5q-1.4 1.6-2.7 3.1c-6.5 7.4-12.4 15-18 23q-2 3-4.2 5.8c-7.9 10.9-14.6 22.3-21.1 34.1q-.7 1.2-1.3 2.4c-12.1 21.9-21.2 44.7-28.7 68.6l-1 3.2c-4.2 13.5-7.6 26.9-9.6 40.9q-.2 1.1-.3 2.2c-5.1 35.4-6.3 71.3-1.1 106.7l.4 3c3 21.5 8.2 42.7 15.6 63 .3 1 .3 1 .7 1.9q2.2 6.1 4.5 12.1.8 2 1.5 3.9c3.8 10 8.3 19.6 13.3 29.1l1.4 2.6c12 22.8 26 44.6 42.6 64.4l1.4 1.6c5.4 6.5 10.8 12.8 16.8 18.6 1.9 1.9 3.6 3.8 5.3 5.9 2.9 3.3 5.9 6.1 9.2 8.9 2.2 1.9 4.3 3.9 6.4 5.9 6.5 6 13.2 11.4 20.2 16.8q2.5 1.9 5 3.9c15.2 12 31.8 21.8 48.7 31.4q1.1.6 2.2 1.3c10.9 6.1 22.3 11 33.8 15.7q1.2.5 2.3 1c17.4 7.1 35 12.5 53.3 16.8 1.8.4 1.8.4 3.7.9 11 2.5 22 4.2 33.2 5.4 7.9.8 7.9.8 10.8 1.4 11.4 2.1 23.5 1.7 35.1 1.7h2.3c13 0 25.8-.6 38.7-1.9q3.5-.4 7.1-.6c23-1.6 46.9-7.7 68.5-15.7q3.5-1.2 6.9-2.3c14.6-4.8 28.5-10.7 42.1-17.7l5.8-2.8c17.3-8.3 33.9-18.6 49.2-30.2q1-.8 2.1-1.5c13.3-9.8 13.3-9.8 25.9-20.5 0-.7 7.4-6.9 10.1-9.4.8-.8.8-.8 1.7-1.6 8.1-7.7 16-15.5 23.2-24q1.2-1.3 2.4-2.7c11-12.7 20.7-26.4 30.1-40.3.8-1.3.8-1.3 1.7-2.5 6-9.1 10.9-18.6 15.7-28.3q1.3-2.6 2.6-5.3.7-1.2 1.3-2.5l3.2-6.2c4.4-8.5 7.9-17.2 11-26.2q.5-1.3.9-2.7c5.1-14.6 9.4-29.3 13.1-44.3q.3-1 .5-2.1c3.2-13 4.9-26 6.1-39.3q.2-3.3.5-6.5.3-2.9.5-5.8c.4-3.3.4-3.3.9-5.7.7-3.8.7-7.5.8-11.3v-2.7q.1-4.2.1-8.5v-2.9c0-14.3-.8-28.3-2.7-42.5-.2-1.2-.2-1.2-.3-2.4-1.4-10.2-3.3-20.2-5.4-30.3q-.3-1.3-.5-2.6c-2-9.4-4.4-18.6-7.3-27.8-1.1-3.2-2-6.4-2.8-9.6-1-3.7-2.1-7.2-3.5-10.7q-1.8-4.65-3.3-9.3c-1.9-5.2-4-10.1-6.6-15q-1.6-3.1-3.2-6.3c-.8-1.4-.8-1.4-1.5-3-1.1-2.2-11-22.5-13.4-26.3q-.8-1.2-1.5-2.5l-3-4.8q-1.7-2.6-3.3-5.2c-9.7-15.5-20.8-30.4-33.2-43.8-1.9-2.1-1.9-2.1-3.5-4.4-.5-.5-8.6-9.2-11.3-11.9"/><path fill="#46a18a" d="M567 684.8c-2-1.8-2-1.8-3.9-4.2-2.2-2.7-4.3-4.8-6.9-7q-1.2-1-2.5-2.1c-3.8-2.1-5.5-1.6-9.7-.5-3.2 1.4-6.3 3.1-9.3 4.8-8.8 4.8-17 9-26.9 10.7-2 .4-2 .4-3.8 2.5-.2 2.8-.3 5.4-.2 8.2q-.1 2.5-.1 5v8c0 19.8 0 19.8-8 28.2-8 4.8-16 5.1-25.3 5q-1.7.1-3.5.1c-6.8 0-12.3-.4-17.9-4.5-2-2-2-2-3.4-4.1l-1.4-2q-.6-.9-1.2-1.9l-2-3c-.2-2.9-.3-5.8-.3-8.8q-.1-1.2-.1-2.5-.1-5.6-.1-11.1l-.2-8v-2.5c.1-4.5.1-4.5-2.3-8.1-1.9-.8-1.9-.8-4.1-1.4-1.2-.3-1.2-.3-2.4-.7q-2.6-.8-5.1-1.5c-4.8-1.5-9.2-3.1-13.6-5.5-1.8-.9-3.6-1.6-5.4-2.4-2.5-1.1-4.7-2.2-7-3.7-3.5-1.8-4.6-2.4-8.4-1.8-2.7 2.1-2.7 2.1-5.3 4.9l-1.5 1.5q-2.3 2.4-4.6 4.9-2.3 2.4-4.7 4.7l-4.2 4.4c-6.8 6.4-12.2 8.1-21.3 8-5.3-.6-8.4-3-12.4-6.4l-2-1.6c-7-5.6-16.2-14-17.4-23.3v-3.3l-.2-3.2c1.8-11.1 10.7-17.9 18.5-25.2q2.2-2.1 4.5-4.2 1.3-1.3 2.7-2.5c2.5-3.5 2.4-5.5 1.9-9.7-.7-2.4-.7-2.4-1.9-4.5q-.5-1.2-1.2-2.4c-.6-1.2-.6-1.2-1.2-2.5-2.8-5.4-5.2-10.7-7-16.5-1-2.9-2.1-5.7-3.2-8.5q-.6-1.5-1.2-3.1c-1.2-2.8-1.2-2.8-4.3-4.5-2.5-.2-4.9-.3-7.4-.3q-2.3 0-4.5-.1-3.5 0-7.1-.1c-19.9-.1-19.9-.1-26.3-5.4l-1.6-2q-.9-1-1.7-2.1c-4.4-6.4-3.7-12.5-3.7-20.2q0-1.9-.1-3.9c0-8.1 0-15.7 5.3-22.2l2-1.6q1-.9 2-1.7c5-3.3 9.6-3.7 15.6-3.7q1.2-.1 2.4-.1 5.2-.1 10.3-.1l7.6-.2h2.3c3.8 0 5.7-.1 8.9-2.3.8-2.2.8-2.2 1.4-4.9 2-8.1 5.4-15.6 9-23.2q.6-1.3 1.2-2.7 1.3-2.7 2.5-5.3l1.2-2.6c.5-1.1.5-1.1 1.1-2.2.8-2.6.7-3.6-.4-6.1-2.1-2.5-2.1-2.5-4.8-5l-1.4-1.4q-2.3-2.3-4.6-4.5l-4.6-4.4q-2.1-2-4.1-4.1c-6.2-6.6-7.9-11.7-7.8-20.6.4-4.4 1.7-6.5 4.3-10q.9-1.2 1.7-2.5c2.6-2.8 5.3-5.2 8.2-7.7 2-1.7 3.8-3.6 5.7-5.5 4.4-4.5 8.9-6.4 15.2-6.9 12.4.7 20.8 11.9 28.6 20.3q1.3 1.4 2.7 2.8 1.1 1.3 2.3 2.6c3.3 2.4 5.5 2.8 9.6 2.9 2.7-.7 2.7-.7 5.1-2.1q1.4-.7 2.8-1.5 1.5-.7 3-1.5c21.5-10.9 20.5-9 28.2-11.2 2.8-.8 4.1-6.9 4.1-10.8V388q.1-3.9.1-7.8.1-3.7.1-7.4v-2.3c.2-6.6 2.2-11.8 6.5-16.7q1-.8 2-1.7.9-.8 1.9-1.7c6.6-4.3 13.9-3.8 21.4-3.8q1.8-.1 3.6-.1c7.8-.1 13.8.9 20.2 5.5 5.8 6.2 7.1 11.1 7.2 19.5v5.1q.1 4.1.1 8.1.1 3.9.1 7.8v2.4c.1 4.5.1 4.5 2.5 8.1 2.3 1.1 4.5 1.9 6.9 2.6 6.6 2.1 12.9 4.8 19.3 7.5q1.5.7 3.1 1.4c7.4 3.2 7.4 3.2 10.8 5.5 3.4.4 5.3.4 8.2-1.4l2.2-2.2 2.6-2.4 6.8-6.8q1-1 2-2.1 1.9-1.9 3.8-4c5.8-5.8 10.3-8.5 18.8-8.7 1.8 0 1.8 0 3.7-.1 8.2 1.5 14 8.4 19.6 14.1q1 1 2 1.9c4.6 4.6 8.6 9 9.8 15.5-.1 12.7-6.9 19.6-15.5 28.2l-3.4 3.2q-.8.8-1.7 1.6-1.5 1.5-3.2 2.9c-2.6 2.5-3.7 4-4.3 7.7.7 4.3 2.1 7.5 4.2 11.4 5.5 11 7.6 19.9 11.7 28 1.4 2.6.4 4.6 5.1 5.6 3.9.9 7.9.8 12 .9h5.2q3.8.1 7.5.2h2.4c7.5.2 14.3 2.3 19.9 7.7 5.8 6.7 5.1 16.5 5 24.9q.1 1.8.1 3.7c0 8.2-.8 13.7-6.2 20.2l-1.6 1.4-1.6 1.4c-5.3 3.1-11.1 3.5-17.1 3.5h-4.5q-3.5.1-7.1.1-3.4 0-6.8.1c-1.1 0-1.1 0-2.1-.1-3.4.1-5.2.4-7.9 2.4-1.5 2.1-2.3 3.5-3 6q-.3 1-.7 2.1-.3 1.2-.7 2.4c-3.1 10.1-7.3 19.8-13.2 28.7-.5 2-.5 2-.6 4.2-.1 1.2.9 3.8 1.6 3.8q2.1 2.4 4.1 5c2.9 3.7 5.9 7 9.5 10.1 6.6 5.6 11.7 11.1 12.7 19.8.3 5.7.4 10-3.1 14.7q-2 2.2-4.2 4.4-1.4 1.5-2.9 3c-13.7 14.5-13.7 14.5-22.6 15.2-6 .1-10.3-.1-15.5-3.2-1.4-1.6-8-8.5-10-10.2M333 420c.1 4.1.5 6.3 3 9.6q1.3 1.1 2.6 2.3c3.2 3 6.3 6 9.1 9.3 2.2 2.6 4.6 5 7.1 7.4 4.2 4.3 6.3 8 6.6 14.2-.2 7.2-3.1 13.1-6.8 19.3-4.7 8.2-7.4 17.8-10 27-1.6 4.8-4.6 8.8-8.6 11.9-5.3 1.8-9.9 2.3-15.4 2.2q-2.4.1-4.8.1h-7.4q-3.7 0-7.3.1c-1.1-.1-1.1-.1-2.2-.1-3.9.1-5.8.6-8.9 2.9-2.2 3.1-2.6 4.6-2.7 8.4v3.1q0 1.6.1 3.3-.1 1.6-.1 3.3v3.1q0 1.5.1 2.9c.9 3.9 2.4 5.3 5.6 7.7 3 .4 5.3.6 8.3.5h12.5c10.9-.1 18.7-.1 27.3 7.3 2.2 2.6 3 4.7 4 8 .5 1.6.5 1.6 1 3.3.6 1.7.6 1.7 1.1 3.5q.5 1.7 1.1 3.4.9 3.2 1.9 6.4l1.8 5.6h2q.3 1.2.7 2.4c1.1 3 2.3 5.5 3.9 8.3 2.8 5.4 3.6 10.3 2.4 16.3-3 8.1-9 13.4-15.1 19.3q-2.3 2.2-4.6 4.5-2 2-4.1 4c-2.5 2.5-4 4.4-4.8 7.8 1 5.5 4.8 8.4 8.7 12.2l2.2 2.4c3.3 3.2 6 5.5 10.3 7.2 5.3-.6 7.8-3.7 11.4-7.4l2.2-2.2q4.6-4.7 9.2-9.5c5.5-5.6 10.3-9.6 18.5-10 8.2.2 15.1 4.8 22.1 8.7 6 3.2 12.2 5.2 18.7 7.3 7.3 2.5 12.7 5.1 17.3 11.7 1.3 3.8 1.1 7.3 1.1 11.2q.1 2.4.1 4.9 0 3.9.1 7.8v9.9c.1 3.9.5 6.5 2.9 9.7 3.2 2.8 4.3 3.2 8.4 3.2q1.6-.1 3.2-.1c1.7 0 1.7 0 3.3-.1h3.3c6.2 0 6.2 0 11.6-2.5 0-.7 2-4 2.1-5.1l.2-11.5q.1-2.4.1-4.9l.2-7.2v-2.2c.2-7.3 1.8-13.3 6.4-19.1 4.4-3.1 9.3-4.5 14.3-6.2 10.5-3.5 20.1-8.1 29.8-13.5 5.2-2.3 10.3-2.1 15.9-1.3 4 1.8 13.5 11.5 15.4 13 3.5 2.9 6.5 6.1 9.6 9.4 3.9 4.1 3.9 4.1 9 5.8 5.9-.8 10.1-6.1 14-10.2q1.1-1.1 2.2-2.1c3.8-3.9 3.8-3.9 5.2-9.2-.5-4.6-2.3-6.5-5.5-9.5q-.8-.7-1.6-1.5-2.6-2.4-5.1-4.8t-5.1-4.9q-1.5-1.5-3.1-3c-4-3.8-7-7.5-8-13l-.4-2c-.8-8.1 3.2-13.9 7.1-20.8 4.8-8.6 7.6-17.9 10.2-27.3 2.3-6.1 6.1-9.2 11.9-11.9 6.9-2.1 14.3-1.6 21.5-1.6q3.7.1 7.4 0 2.2 0 4.5.1c3.5 0 5.7-.4 8.8-2.2 2.5-2.9 2.6-4.4 2.7-8.2v-3.5c0-1.8 0-1.8-.1-3.6q.1-1.8.1-3.6v-3.5q0-1.5-.1-3.1c-.4-2.9-.4-2.9-2.6-5.1-3.8-2.2-7.1-2.2-11.3-2.2h-22.3c-6.6-.1-11.8-2.1-16.7-6.6-3.7-6.2-5.7-13-7.9-19.8-4.6-15.1-4.6-15.1-12.8-28.1-.2-2-.2-2-.3-4.6q-.1-1.2-.1-2.5c1.4-9.8 8.8-15.7 15.5-22.2q2.3-2.2 4.6-4.5 2-2 4.1-4c2.7-2.7 4.1-4.5 4.8-8.4-.9-5.5-3.9-7.9-7.9-11.6-1-1-1-1-2.1-2-5-5.1-5-5.1-11.4-7.7-4.3.7-6.5 2.8-9.5 5.8-.7.7-.7.7-1.6 1.4-2.1 2.1-12.3 12.5-13.3 13.7-4.7 4.8-10.1 7.7-16.9 8.1-4-.5-6.3-1.4-9.8-3.4-2.3-1.2-4.6-2.2-7-3.1-3.1-1.2-6.2-2.5-9.2-3.9-2.9-1.3-5.9-2.4-9-3.4-17.9-5.9-17.9-5.9-22.5-14.8-1.8-4.3-1.8-8.2-1.8-12.8v-13q0-3.9-.1-7.7V366c0-4.4 0-4.4-2.2-8-4.7-2-9.7-1.5-14.7-1.5q-1.7 0-3.5-.1h-6.3c-4 .9-5.4 2.3-7.8 5.6-.4 3-.6 5.5-.5 8.5v5q0 3.9.1 7.9c.2 17.6.2 17.6-5 24.1-4.7 4.4-9.8 5.9-15.9 7.7-6.8 2-13.2 5.1-19.6 8.1-1.3.6-1.3.6-2.6 1.3q-2.6 1.2-5.2 2.5c-5.5 2.5-10.3 4.2-16.3 2.9-8.6-3.5-14.7-10.3-21-16.8q-2.8-2.9-5.6-5.7l-2.4-2.6c-2.4-2.3-3.4-2.8-6.8-3.3-4.3.5-6 2.4-9.2 5.4l-2.4 2.2c-1.8 1.6-7.8 7.8-9.6 10.8"/><path fill="#976a2e" d="M708.4 727.6c1.7-2.8 3.8-5.2 6-7.7 2.7-3.2 5.2-6.7 7.6-10.2l1.6-2.2c3.3-4.8 6.3-9.6 9-14.8 1.3-2.6 2.8-5.1 4.4-7.6 3.7-6.3 6.5-12.5 8.9-19.4 1.2-3.3 2.4-6.5 4.1-9.6 2.2-4.3 3.8-8.7 5.4-13.3q.4-1.3.9-2.6 3.2-9.4 6-19 .3-1.2.7-2.4c3.7-13.4 5.7-26.9 7.1-40.6q.2-1.2.3-2.4c1.5-14.3 2.4-28.5 2.6-42.8h1c4.8 26.6 5 55.3 1 82q-.3 2.3-.6 4.7c-2.3 16.5-6.4 32.5-11.4 48.4q-.5 1.5-1 3.1c-1.9 6-4.2 11.7-6.9 17.4-1.3 2.7-2.3 5.5-3.2 8.3-3.6 9.6-8.8 18.3-13.9 27.1-.8 1.5-.8 1.5-1.7 3-7.1 12.1-15.1 23.5-24 34.4q-1.8 2.2-3.6 4.6c-6.3 7.7-13.2 14.8-20.3 21.8q-.7.8-1.4 1.5c-6.4 6.4-12.9 12.2-20 17.7l-3 2.4c-19.3 15.3-40.4 28-62.9 37.7-3 1.3-6 2.7-8.9 4.1-21.5 9.9-43.8 14.7-66.9 19q-1.3.3-2.6.5c-14.2 2.6-28.4 2.5-42.8 2.5q-1.6.1-3.3.1c-31.2-.1-64.6-2.8-93.6-15.3l-5.4-1.8c-18-6-34.9-14.3-51-24.2-2-1.3-4.1-2.4-6.3-3.5-6.5-3.6-12.4-8.1-18.3-12.5q-.9-.6-1.7-1.3c-7.5-5.5-14.5-11.4-21.3-17.7-1.4-1.2-1.4-1.2-2.8-2.5-8.2-7.4-15.8-15.3-23.2-23.5q-.8-.9-1.6-1.7c-22-24.2-39.5-54.9-51.4-85.3-.4-.9-.4-.9-.7-1.9-7-17.6-11.9-35.7-16.3-54.1q-.3-1.2-.6-2.5c-1.1-4.6-1.6-8.8-1.5-13.6v-3.4q.1-1.2.1-2.5c2 2.9 2.7 5 3.6 8.3.4 1.6.4 1.6.9 3.2.4 1.7.4 1.7.9 3.4q.9 3.4 1.9 6.8.4 1.6.9 3.3c3.3 12.1 7.5 23.5 12.6 34.9q.6 1.4 1.3 2.9c2.4 5.4 11.6 21.1 12.9 24.2l2.2 3.8c1.8 3.2 5.3 7.2 6.9 9.9q.7 1.4 1.6 2.7c1.3 2.6 7.9 10.8 9.3 13.5 2 3.6 4 6.3 7 9.1q1.6 1.8 3.1 3.6c3.7 4.3 7.8 8.3 11.9 12.2 2 2.2 6.3 7.9 8 9.2.6.8 13.3 12.3 15 14 24 21.7 54.5 40.4 85.1 50.9 2.4.9 4.6 1.9 6.9 3 5.8 2.6 11.9 4.1 18.1 5.7q1.7.4 3.6.9c7.7 1.9 15.3 3.6 23.2 4.9 3.1.6 3.1.6 5.8 1.6 30.9 9.6 80.8 8.5 111.2-2 3.2-1 6.5-1.8 9.8-2.6 9.2-2.2 18.2-5.3 27.2-8.4q1.6-.6 3.4-1.2l3-1c2.7-.8 15.2-6.3 16-6.6q1.4-.5 3-1c.9-.3 12.8-6.5 14.4-7 4.6-1.8 8.3-4.1 12.2-6.9 2.6-1.6 10.6-6.6 11.9-7.2q1.1-.6 2.2-1.1c2-1 14-10.7 16-12 .5-.5 5.7-4.6 8-6 4.8-3.3 8.9-6.9 13-11q3-2.7 5.9-5.4c3.5-3.1 6.8-6.2 9.7-9.8 1.2-1.4 7.7-8.6 9.4-10.5l1.6-1.8c1.4-1.5 5.7-6.7 6.8-8.9"/><path fill="#fdfbf3" d="M264.4 385.5c2-3.7 3.7-6.2 6.6-9.2 3.5-3.7 8.4-8.7 9.3-9.6.6-.8 8.9-9.6 11.7-12q.8-.6 1.7-1.3c4-3.4 24-16.7 25.3-17.4l4.2-2.2c8.2-4.4 16.4-7.1 25.8-6.8 0-.7 8.6.2 12 3 1.1 2.8 1.1 2.8 1 6-1.6 2.9-1.6 2.9-4 6q-.6.9-1.2 1.7c-4.3 6.1-9.4 11.4-14.4 16.8-5.6 6.1-11.1 12.2-16.4 18.5-3.5 4.1-7.1 8.1-11 11.9-2.8 2.8-5.2 5.5-7.5 8.7-2.9 3.9-21 24.9-21.5 26.4l-5 5q-2.4 3-4.7 6-.6.8-1.3 1.7-2.6 3.5-5.3 7c-15.9 21.1-15.9 21.1-21.7 23.3-3.2.1-3.2.1-6 0l-1-3h-2c-.6-12.8.6-23.7 4.4-35.9.8-2.8 1.5-5.6 2.2-8.4 1.1-4.2 2.9-7.2 5.4-10.7q.9-2 1.8-4.1c2.2-5.2 9.7-17.8 11.6-21.4"/><path fill="#46a18a" d="M484.1 514.1c6.5 3.6 12.5 9 15.1 16.2 1.7 7.7 2.5 17.5-1.2 24.8-4.6 6.7-10.3 11.1-18 13.9-9.1 1.2-16.9.9-24.7-4.2-3.6-2.8-6-5.9-8.3-9.8q-.9-1.6-1.9-3.2c-2.4-8.3-2.1-16.7 1.6-24.6 2.2-3.8 4.9-6.5 8.3-9.2q.9-.8 1.9-1.5c7.6-5.3 18.6-5.4 27.2-2.4"/><path fill="#b9efe1" d="M448.5 436.5q1.3 0 2.6-.1c5.5.1 8.8.8 12.9 4.6 0 4 0 4-1.4 5.5-5.6 4-11.5 7.3-17.6 10.5-19.7 10.3-36.2 22.9-53 37.4-9 7.7-9 7.7-17 7.6-1.8-3.7-1.4-7.3-.4-11.2 6.4-17.6 19.7-32 35.4-41.8q1.3-.9 2.7-1.8c6.7-4.2 27.1-10.6 35.8-10.7"/><path fill="#fdfdf6" d="M438.5 299.4c2.5 2.6 2.4 5.5 2.7 9-.5 6.1-4.8 10.6-9.2 14.6-3.2 2.2-6.6 4.1-10 6q-.9.5-1.8 1.1c-4.8 2.2-9.6 2.2-14.8 2.3h-2.1c-6.7 0-12-1.8-17.1-6.3q-.8-.8-1.6-1.5c-4.6-4.6-4.6-4.6-4.6-8.4 1.6-8.9 4.3-14.1 11-20.2 13.7-8.7 28.4-9.8 43-2.5 2 1.5 4 5.4 4.5 5.9"/><path fill="#b9efe1" d="M507 433c3.1 2.2 4.9 3.8 7 7 .4 3.4.4 3.4 0 7-2.9 3.7-5.5 5.5-10 7-7.6.8-13.9.9-20-4-3.2-2.9-4.9-5.2-5.7-9.6.7-3.4.7-3.4 3.4-6.2 8.2-5.4 16.6-6 25.3-1.2"/><path fill="#f0c78d" d="M479 554c-7.3 4-12.9-.2-14.5-1.5-3.3-2.5-5.2-4.5-6.5-8.5-.5-6.9.4-10.9 5-16.4 4.6-2.5 8.9-2.3 14-1.6 4 2 6.6 4.2 9 8 .8 5.5.9 15.7-7 20"/><path fill="#efcd99" d="m248 348 2 2c-2.3 2.6-4.6 5.3-7 8l-2-1c2.3-3 4.6-5.9 7-9"/><path fill="#e6bf89" d="M178 503h1c1 5 1 8.2-1 13h-1c-.1-4.5-.1-8.6 1-13"/></svg>