<svg version="1.2" xmlns="http://www.w3.org/2000/svg" viewBox="0 0 1024 1044" width="1024" height="1044"><path fill="#f4ca95" d="M537.6 126.9h9.2c32.2-.1 63.1 4.3 94.2 12.1q1.6.4 3.3.8c24.7 6.3 48.8 15.1 71.7 26.2 1 .5 1 .5 2.1 1q6 2.9 11.9 6 3.1 1.6 6.3 3.1c10 5 19.4 10.8 28.6 17 .9.5.9.5 1.7 1.1q16.3 10.9 31.5 23.2 1 .9 2 1.7c4.9 4 9.6 8.2 14.3 12.5q3.1 2.8 6.3 5.6c4.8 4.2 9.3 8.7 13.9 13.2q1.2 1.2 2.4 2.5c4.9 4.9 9.5 9.9 14 15.1l1.4 1.6c15.5 18 29.3 37.1 41.6 57.4l1.2 2c23.5 38.5 39.6 80.1 49.8 124q.4 1.5.7 3.1c7.7 33.9 9.8 68.2 9.3 102.9v2.8c-1.8 93.2-40.2 190-103.4 258.4q-3 3.2-5.8 6.5c-4.5 5.1-9.3 10-14.1 14.8l-2.8 2.8-2.6 2.6q-1.1 1.2-2.3 2.4c-2 1.7-2 1.7-4 1.7v2q-2.3 2.1-4.7 3.9c-3.6 3-7.2 5.9-10.8 9-24.3 21-52.5 39.4-81.6 53.2l-5.8 2.8c-29.8 14.4-60.7 25.2-93.1 32.1q-1.3.3-2.7.6c-14.6 3.1-29.4 4.9-44.3 6.4-1.1.1-1.1.1-2.1.3-7 .7-14 .9-21 .9h-23.6c-14.5.1-28.8-.4-43.3-2.2-1.7-.2-1.7-.2-3.5-.4q-4.3-.6-8.6-1.4-1.5-.2-3.1-.5c-20.7-3.5-40.8-8.2-60.8-14.7q-2-.6-4-1.3c-14.6-4.7-29.1-10.1-43-16.7q-2-.9-4.1-1.8c-19.2-8.8-37.4-19.4-54.9-31.2l-2-1.4c-17.9-11.9-34.5-25.4-50.2-40.1-2-1.8-4-3.5-6.1-5.2q-1.4-1.1-2.7-2.3v-2h-2v-2h-2c-1.5-1.5-1.5-1.5-3.2-3.6-2.3-2.7-4.6-5.2-7.2-7.7-3.7-3.7-6.9-7.6-10.1-11.7q-3.3-4-6.6-7.8c-5.3-6.2-10.2-12.6-14.9-19.2q-1.4-2-2.9-4c-6-8.5-11.8-17-17.1-26-.9-1.5-.9-1.5-1.8-3.1q-3.2-5.4-6.2-10.9c-.7-1.2-.7-1.2-1.3-2.4-22.3-40.4-35.6-84.4-43.7-129.6-.2-1.3-.2-1.3-.5-2.6-3.8-21.6-4.9-43-4.8-65v-3.7c0-16.8.3-33.3 2.9-50q.6-4 1.1-8c5.8-47.3 21-99.5 46.6-140.1 1.9-2.8 3.6-5.8 5.3-8.7 4.5-7.9 9.3-15.4 14.4-22.9l2.6-3.8c9.8-14.6 20.7-28 32.4-41.2q1.2-1.4 2.5-2.8c6.3-7.1 13-13.8 19.7-20.5.7-.7.7-.7 1.4-1.5 66-66.3 160.3-108.3 289-115.3"/><path fill="#b28337" d="M537.6 126.9h9.2c32.2-.1 63.1 4.3 94.2 12.1q1.6.4 3.3.8c24.7 6.3 48.8 15.1 71.7 26.2 1 .5 1 .5 2.1 1q6 2.9 11.9 6 3.1 1.6 6.3 3.1c10 5 19.4 10.8 28.6 17 .9.5.9.5 1.7 1.1q16.3 10.9 31.5 23.2 1 .9 2 1.7c4.9 4 9.6 8.2 14.3 12.5q3.1 2.8 6.3 5.6c4.8 4.2 9.3 8.7 13.9 13.2q1.2 1.2 2.4 2.5c4.9 4.9 9.5 9.9 14 15.1l1.4 1.6c15.5 18 29.3 37.1 41.6 57.4l1.2 2c23.5 38.5 39.6 80.1 49.8 124q.4 1.5.7 3.1c7.7 33.9 9.8 68.2 9.3 102.9v2.8c-1.8 93.2-40.2 190-103.4 258.4q-3 3.2-5.8 6.5c-4.5 5.1-9.3 10-14.1 14.8l-2.8 2.8-2.6 2.6q-1.1 1.2-2.3 2.4c-2 1.7-2 1.7-4 1.7v2q-2.3 2.1-4.7 3.9c-3.6 3-7.2 5.9-10.8 9-24.3 21-52.5 39.4-81.6 53.2l-5.8 2.8c-29.8 14.4-60.7 25.2-93.1 32.1q-1.3.3-2.7.6c-14.6 3.1-29.4 4.9-44.3 6.4-1.1.1-1.1.1-2.1.3-7 .7-14 .9-21 .9h-23.6c-14.5.1-28.8-.4-43.3-2.2-1.7-.2-1.7-.2-3.5-.4q-4.3-.6-8.6-1.4-1.5-.2-3.1-.5c-20.7-3.5-40.8-8.2-60.8-14.7q-2-.6-4-1.3c-14.6-4.7-29.1-10.1-43-16.7q-2-.9-4.1-1.8c-19.2-8.8-37.4-19.4-54.9-31.2l-2-1.4c-17.9-11.9-34.5-25.4-50.2-40.1-2-1.8-4-3.5-6.1-5.2q-1.4-1.1-2.7-2.3v-2h-2v-2h-2c-1.5-1.5-1.5-1.5-3.2-3.6-2.3-2.7-4.6-5.2-7.2-7.7-3.7-3.7-6.9-7.6-10.1-11.7q-3.3-4-6.6-7.8c-5.3-6.2-10.2-12.6-14.9-19.2q-1.4-2-2.9-4c-6-8.5-11.8-17-17.1-26-.9-1.5-.9-1.5-1.8-3.1q-3.2-5.4-6.2-10.9c-.7-1.2-.7-1.2-1.3-2.4-22.3-40.4-35.6-84.4-43.7-129.6-.2-1.3-.2-1.3-.5-2.6-3.8-21.6-4.9-43-4.8-65v-3.7c0-16.8.3-33.3 2.9-50q.6-4 1.1-8c5.8-47.3 21-99.5 46.6-140.1 1.9-2.8 3.6-5.8 5.3-8.7 4.5-7.9 9.3-15.4 14.4-22.9l2.6-3.8c9.8-14.6 20.7-28 32.4-41.2q1.2-1.4 2.5-2.8c6.3-7.1 13-13.8 19.7-20.5.7-.7.7-.7 1.4-1.5 66-66.3 160.3-108.3 289-115.3M476 234q-1.3.3-2.6.5c-4.9 1-9.6 2.2-14.4 3.5q-1.2.3-2.5.7c-53 14.6-99.1 42.9-137.9 81.4q-.7.8-1.5 1.6c-6.8 6.7-13.2 13.7-19.1 21.3q-.9 1.1-1.8 2.3c-8.7 11.3-16.5 23.1-23.8 35.4l-3.6 5.8c-17 28.2-27.7 61.3-33.8 93.5q-.3 1.6-.6 3.3c-3.2 16.9-3.8 33.6-3.8 50.8v2.9c0 17.7 1 35.3 4.2 52.6q.3 1.5.5 2.9c9.3 49.4 30.5 95.2 61.7 134.5l2.2 2.8c12.4 15.5 26.2 29.9 41.8 42.2q1.6 1.3 3.2 2.7c16.5 13.7 34.7 25.5 53.8 35.3l2.4 1.2c21.8 11.2 44.7 19.4 68.6 24.8l2.6.6c20.9 4.6 41.6 6.9 63.1 6.8q5.2 0 10.5.1c70.9.2 143.5-29.5 195.6-77.5q2.9-2.7 6-5.3c8.7-7.5 16.9-15.9 24.2-24.7q.6-.7 1.3-1.5c46.2-53.8 72.4-124.5 71.9-195.3v-2.7c-.1-40-7.4-79.2-22.2-116.5l-.8-2c-4.2-10.7-9.7-20.9-15.2-31q-.5-.9-1-1.9c-12.4-23.2-28.7-44.2-47-63.1-1-1.1-1-1.1-2.1-2.2-8.3-8.4-16.5-16.6-25.9-23.8l-3-2.4c-28.7-22.6-61.5-39.1-96-50.6q-1.8-.6-3.8-1.3-4.5-1.4-9.2-2.7l-2-.6c-21.3-5.9-43.4-9.4-65.4-9.7h-3.3c-24.2-.2-47.5.3-71.3 5.3"/><path fill="#46a18a" d="M537.6 126.9h9.2c32.2-.1 63.1 4.3 94.2 12.1q1.6.4 3.3.8c24.7 6.3 48.8 15.1 71.7 26.2 1 .5 1 .5 2.1 1q6 2.9 11.9 6 3.1 1.6 6.3 3.1c10 5 19.4 10.8 28.6 17 .9.5.9.5 1.7 1.1q16.3 10.9 31.5 23.2 1 .9 2 1.7c4.9 4 9.6 8.2 14.3 12.5q3.1 2.8 6.3 5.6c4.8 4.2 9.3 8.7 13.9 13.2q1.2 1.2 2.4 2.5c4.9 4.9 9.5 9.9 14 15.1l1.4 1.6c15.5 18 29.3 37.1 41.6 57.4l1.2 2c23.5 38.5 39.6 80.1 49.8 124q.4 1.5.7 3.1c7.7 33.9 9.8 68.2 9.3 102.9v2.8c-1.8 93.2-40.2 190-103.4 258.4q-3 3.2-5.8 6.5c-4.5 5.1-9.3 10-14.1 14.8l-2.8 2.8-2.6 2.6q-1.1 1.2-2.3 2.4c-2 1.7-7.1 6.4-8.7 7.6-3.6 3-7.2 5.9-10.8 9-24.3 21-52.5 39.4-81.6 53.2l-5.8 2.8c-29.8 14.4-60.7 25.2-93.1 32.1q-1.3.3-2.7.6c-14.6 3.1-29.4 4.9-44.3 6.4-1.1.1-1.1.1-2.1.3-7 .7-14 .9-21 .9h-23.6c-14.5.1-28.8-.4-43.3-2.2-1.7-.2-1.7-.2-3.5-.4q-4.3-.6-8.6-1.4-1.5-.2-3.1-.5c-20.7-3.5-40.8-8.2-60.8-14.7q-2-.6-4-1.3c-14.6-4.7-29.1-10.1-43-16.7q-2-.9-4.1-1.8c-19.2-8.8-37.4-19.4-54.9-31.2l-2-1.4c-17.9-11.9-34.5-25.4-50.2-40.1-2-1.8-4-3.5-6.1-5.2-.9-.8-8.2-7.8-9.9-9.9-2.3-2.7-4.6-5.2-7.2-7.7-3.7-3.7-6.9-7.6-10.1-11.7q-3.3-4-6.6-7.8c-5.3-6.2-10.2-12.6-14.9-19.2q-1.4-2-2.9-4c-6-8.5-11.8-17-17.1-26-.9-1.5-.9-1.5-1.8-3.1q-3.2-5.4-6.2-10.9c-.7-1.2-.7-1.2-1.3-2.4-22.3-40.4-35.6-84.4-43.7-129.6-.2-1.3-.2-1.3-.5-2.6-3.8-21.6-4.9-43-4.8-65v-3.7c0-16.8.3-33.3 2.9-50q.6-4 1.1-8c5.8-47.3 21-99.5 46.6-140.1 1.9-2.8 3.6-5.8 5.3-8.7 4.5-7.9 9.3-15.4 14.4-22.9l2.6-3.8c9.8-14.6 20.7-28 32.4-41.2q1.2-1.4 2.5-2.8c6.3-7.1 13-13.8 19.7-20.5.7-.7.7-.7 1.4-1.5 66-66.3 160.3-108.3 289-115.3m-127.6 61c-3.1 1.1-6.2 2-9.3 2.9-6.8 2-12.8 5.1-19 8.3-3.5 1.8-7.1 3.4-10.7 4.9a350.8 350.8 0 0 0-70 44q-1.3 1-2.7 2.1c-7.7 6.1-25 23.4-27 25.1-4.4 3.8-8.3 7.8-12.2 12q-1.1 1.2-2.2 2.3c-5.2 5.7-10.1 11.5-14.9 17.5l-2.6 3.2c-18.8 22.8-34.9 48-47.4 74.7q-1.1 2.2-2.1 4.5c-7.5 15.4-13.4 31.3-18.9 47.6l-.8 2.4c-7.4 22.4-11.9 46.1-14.2 69.6q-.1 1.2-.3 2.5-.9 9.9-.9 19.8-.1 1.6-.1 3.2v13.6c0 19.3 1.1 37.9 4.3 56.9q.2 1.5.5 3.1 1.5 9 3.5 17.9.2 1.1.5 2.2c5.5 24.2 14.1 48.3 24.5 70.8q1.1 2.4 2.1 4.8c15.9 34.7 38.2 65.7 63.8 93.8q2.2 2.5 4.3 4.9c6.8 7.6 13.7 14.9 21.4 21.4q2.9 2.5 5.7 5c21.5 19 45.3 35.1 70.4 48.9q3 1.6 6 3.3c33.6 18.8 71.6 30.3 109.4 37.1q1 .2 2.1.4 7.4 1.3 14.8 2.4c1 .2 1 .2 2.1.3 15.9 2.3 32 2.1 48.1 2.1h2.1c21.1 0 41.9-.3 62.7-4.4q1.6-.3 3.3-.6c7.6-1.5 15.2-3.4 22.7-5.4q1.8-.5 3.7-1c24.4-6.5 48.7-14.5 71.3-26 1.1-.6 1.1-.6 2.3-1.2 33.7-16.9 64.4-38.6 91.9-64.3 2-1.8 4-3.5 6.1-5.2.9-.8 8.2-7.8 9.8-9.8 2.5-3 5.1-5.8 7.9-8.5 62.4-61.8 97.6-156.4 98.2-243.2v-10.3q.1-1.8.1-3.6c-.1-18.1-.6-35.9-3.3-53.9q-.3-1.7-.5-3.5C907.8 427.1 888 377.1 858 330c-.6-.9-.6-.9-1.2-1.9-5.1-8-10.9-15.6-16.8-23.1l-2.2-2.8c-14.3-17.8-30.6-35.3-48.8-49.2l-3.2-2.6c-22.3-17.9-46.3-32.6-71.8-45.4l-2.4-1.2c-52.3-26.5-111.8-39.1-170.2-39h-2.6c-43.1.1-88.8 6.8-128.8 23.1"/><path fill="#5fbca4" d="M470.1 398.7h55.4q13.5.1 27 0h54.7c14.8 0 14.8 0 21.8 2.3l3.2 1c18.6 6.7 31.3 20.1 39.6 37.7 4.5 9.8 4.5 19.1 4.5 29.6v26.9q.1 14.7.1 29.4V553q.1 11.8.1 23.6v32c.1 9.2-.6 16.9-4.5 25.4q-.4 1-.8 1.9c-6.7 16.2-19 28.2-35.2 35-10.4 3.9-20.3 4.5-31.3 4.5H470.2c-21.1.1-36.9-5.7-52.3-20.2-15.9-16.3-18.2-35.6-18.2-57.3v-4.7q-.1-6.2-.1-12.5v-35.3q0-12.7-.1-25.5-.1-11-.1-22 .1-6.5 0-13v-16.8c-.2-20.1 6.7-37 20.8-51.4 14.4-13.8 30.6-18 49.9-18"/><path fill="#eda974" d="M518 754c2.7.3 5.5.2 8.3.2q1.3.1 2.6.1c48.9.4 95.8-7.6 140.1-29.3q1-.5 2.1-1c24.3-11.7 46.1-25.9 66.7-43.3 2.2-1.7 6.6-6.1 8.6-7.8 11.6-9.8 22.5-20.8 31.6-32.9l2.8-3.6c7.3-9.5 13.9-19.3 20.2-29.4q.6-1 1.3-2.1c9.7-15.7 17.4-32.2 24.1-49.5q.7-1.5 1.3-3.2c2.3-6.1 7.4-24.3 8.6-27.2 1.4-3.9 2.4-8 3.4-12q.3-1.3.7-2.6l1.6-6.4h1c.9 11.5 1.2 22.9 1.3 34.4v2.7c-.1 13.2-.6 26.1-2.8 39.2q-.7 4.2-1.3 8.3c-9.7 62.9-41.4 119-85.2 164.4-1.3 1.4-1.3 1.4-2.7 2.8-4.8 5-9.9 9.5-15.3 13.8-2.9 2.3-5.7 4.7-8.5 7.1-6.2 5.2-12.8 9.8-19.6 14.3l-1.8 1.2c-36.2 23.9-76.2 40.5-119.1 47.8l-2.4.4c-15.6 2.6-30.9 3.1-46.7 3h-3.6c-18.1 0-35.6-.6-53.3-4.4q-1.8-.4-3.6-.7c-48.6-10.4-93.7-30.9-132.4-62.3l-2.8-2.2c-15.5-12.4-29.9-26.2-42.2-41.8q-1.4-1.6-2.7-3.3c-13-15.6-23.9-32.7-33.3-50.7q-.5-1-1.1-2.1-5.9-11.3-10.9-23-.5-1.1-.9-2.1c-1.2-3-2.1-5.4-2.1-8.6 0-4.9-1.7-9.3-3.2-14-2.6-8.7-4.9-17.4-6.6-26.4-.3-1.4-.3-1.4-.6-2.9-3.3-17.5-3.9-35.1-3.9-52.9q.1-4.9 0-9.8v-14.3c.3-1.9.3-1.9 2.3-3.9q.3 1.3.6 2.7c3.8 16.3 9.1 32.3 15.6 47.7q.4 1.1.9 2.3c2 4.5 4.2 8.8 6.7 13.1q1.6 2.9 3.2 5.9c9.5 18.3 20.6 35.6 34 51.3q1.2 1.5 2.5 3.1c6.3 7.6 13.1 14.7 20.1 21.7.9.9 7.2 6.9 11.4 10.2.5.4 11.5 9.8 14.3 12.3 1.8 1.6 4 3 5.7 4.7q1.6 1.1 3.3 2.2c.9.6 10.7 7.5 13.6 9.4q1.7 1 3.4 2.1.9.6 1.8 1.1c8.8 5.5 17.5 10.8 26.9 15.2q1.5.7 3 1.5c7.6 3.5 15.2 6.7 23 9.5.9.3 1.9.5 2.8 1 24.3 14.4 84.1 18.6 87.2 19"/><path fill="#996b2d" d="M844 519h1l1.4 8.2q.2 1.1.4 2.3c2.2 12.4 2.4 24.9 2.5 37.5v2.4c-.1 63.8-20.1 127.3-58.3 178.6q-.6.9-1.3 1.8-4.2 5.7-8.7 11.2l-1.2 1.6c-6.8 8.4-14.3 16.1-21.9 23.7q-1.3 1.4-2.7 2.8c-6.1 6.1-12.5 11.6-19.2 16.9l-2.2 1.8c-44 34.6-96.1 57.8-151.8 65.2-1.1.2-1.1.2-2.3.3-79.7 10.5-161.8-13.8-225.3-62.2q-3.2-2.5-6.4-5.1-1.5-1.2-3.1-2.5c-8-6.5-15.4-13.8-22.7-21.1q-.7-.7-1.5-1.4c-6.7-6.7-12.9-13.6-18.7-21l-2.6-3.2c-32.9-41.9-53.2-92.8-63.2-144.8q-.3-1.7-.7-3.4c-1.3-6.9-1.8-13.5-1.5-20.6 2.3 2.3 2.4 3.1 2.9 6.2 8.6 48.8 30.4 94.2 61.1 132.8l2.2 2.8c12.1 15.1 25.6 29.2 40.8 41.2q1.6 1.3 3.2 2.7c16.5 13.7 34.7 25.5 53.8 35.3l2.4 1.2c21.8 11.2 44.7 19.4 68.6 24.8l2.6.6c20.9 4.6 41.6 6.9 63.1 6.8q5.2 0 10.5.1c70.9.2 143.5-29.5 195.6-77.5q3-2.7 6.1-5.3c8.3-7.3 16.1-15.2 23.1-23.7q.6-.7 1.3-1.5c47.2-55 71.1-124.8 72.3-196.7q.1-2.7.1-5.5.2-6.7.3-13.3"/><path fill="#46a18a" d="M470.1 398.7h55.4q13.5.1 27 0h54.7c14.8 0 14.8 0 21.8 2.3l3.2 1c18.6 6.7 31.3 20.1 39.6 37.7 4.5 9.8 4.5 19.1 4.5 29.6v26.9q.1 14.7.1 29.4V553q.1 11.8.1 23.6v32c.1 9.2-.6 16.9-4.5 25.4q-.4 1-.8 1.9c-6.7 16.2-19 28.2-35.2 35-10.4 3.9-20.3 4.5-31.3 4.5H470.2c-21.1.1-36.9-5.7-52.3-20.2-15.9-16.3-18.2-35.6-18.2-57.3v-4.7q-.1-6.2-.1-12.5v-35.3q0-12.7-.1-25.5-.1-11-.1-22 .1-6.5 0-13v-16.8c-.2-20.1 6.7-37 20.8-51.4 14.4-13.8 30.6-18 49.9-18M425 428c-7.9 10.1-13.1 22.4-13.1 35.3q-.1 1.9-.1 3.9v23.3q0 2.5-.1 5v23.7q0 13.7-.1 27.4v21.1q0 6.3-.1 12.6v16.3c-.1 17.2 4.2 32.5 16.2 45.1l2.3 2.3c.9 1 .9 1 1.9 2 11.9 11.4 26.7 13.3 42.3 13.3h77.7q10.9.1 21.9.1h29.8c17.2.1 31.7-4.1 44.3-16.2 14.7-14.6 16.8-32 16.9-51.8q0-6.1-.1-12.1v-12.8q0-10.7-.1-21.4-.1-12.4 0-24.7 0-13.2-.1-26.4v-7.6q0-5.9-.1-11.9v-4.3c.1-17.5-3.9-32.2-16.2-45L646 423q-.8-.9-1.7-1.7c-12.3-11.6-28.5-13.8-44.6-13.7H474.2c-20-.1-35.6 5.7-49.2 20.4"/><path fill="#fdfaf1" d="M420 314c1.7 2.4 2 3.8 2 6.8-1.4 4.4-3.7 7.9-7.1 11.3-.5.4-5.6 6-7.6 8.1q-1.2 1.4-2.4 2.7-1.5 1.6-2.9 3.1l-1.6 1.8-17.4 18.4c-6.1 6.4-12.1 12.9-17.6 19.8q-2.8 3.5-5.6 6.9-13.65 16.35-26.1 33.6C314.9 453 314.9 453 306 459c-3.8.6-3.8.6-7 0-2-1.8-2.9-3.3-3.3-5.9-.1-2.5-.2-4.9-.1-7.3v-2.7c.7-26.3 13.7-51.7 29.2-72.5 4.5-6.1 21.3-25.2 22-25.9 3.4-3.5 7-6.6 11.1-9.8.5-.4 6.6-4.5 7.1-4.9 7.1-5.3 15.3-8.7 23.8-11.9 2.8-1.1 5.4-2.4 8.2-3.4 7.5-2.6 15.2-3.3 23-.7"/><path fill="#deba77" d="M539.4 155.8h3c14.3 0 28.4.3 42.6 2.2q1.5.2 3.1.4c14.9 2 29.4 4.7 43.9 8.6q1 .3 2.1.6C685.5 181.4 732.3 205 774 238l2.8 2.2c6 4.8 11.7 9.9 17.3 15.1q4.1 3.8 8.3 7.5c3.6 3.3 7.2 6.7 10.6 10.2l-1 2c-1.1-1.1-1.1-1.1-2.2-2.3-6.6-6.7-13.4-12.9-20.8-18.7l-3.2-2.6c-22.3-17.9-46.3-32.6-71.8-45.4l-2.4-1.2c-52.3-26.5-111.8-39.1-170.2-39h-2.6c-43.1.1-88.8 6.8-128.8 23.1-3.1 1.1-6.2 2-9.3 2.9-6.8 2-12.8 5.1-19 8.3-3.5 1.8-7.1 3.4-10.7 4.9a350.8 350.8 0 0 0-70 44q-1.3 1.1-2.7 2.1c-7.4 5.9-14.3 11.6-20.4 18.8-2 2.3-4.2 4.2-6.5 6.2-10.5 9.2-19.7 19.9-28.4 30.9q-1.3 1.6-2.7 3.2c-18.7 22.8-34.8 48-47.3 74.7q-1.1 2.2-2.1 4.5c-7.5 15.4-13.4 31.3-18.9 47.6l-.8 2.4c-6.9 20.8-11.3 43-14.2 64.6h-1c.7-22.1 4.6-42.6 10-64l.6-2.4c1.7-6.8 3.5-13.4 6.3-19.8 1.1-2.8 2-5.7 2.9-8.6 10.3-32.9 28.7-64.6 49.2-92.2q1.1-1.5 2.3-3.1c5-6.8 10.3-13.4 15.7-19.9q1.1-1.4 2.3-2.9c7.1-8.7 15-16.6 23-24.5q.8-.9 1.7-1.8c6.1-6.1 12.3-12.2 19-17.8q1.2-1 2.4-2.1.9-.8 1.8-1.7l1.8-1.6c2-1.6 2-1.6 4.4-3 2.9-1.8 5.1-3.8 7.5-6.1 19.6-18 97.6-53.3 103.3-55.2q2.9-1 5.8-1.9c18.7-6.3 37.4-11.1 56.8-14.1l4-.6c21-3.3 41.5-4.9 62.6-4.9"/><path fill="#f8d4a5" d="M531.5 228.7q5.1 0 10.3-.1c58-.1 113.9 18.5 163.1 48.9q1.2.7 2.4 1.5 1.1.7 2.3 1.4.9.6 1.9 1.2c1.8 1.7 2.1 3 2.5 5.4-4.9-1.7-9-4.3-13.4-6.9-71-41.7-155.1-53.6-234.8-33.3-41.2 10.9-79.3 30.1-112.8 56.2l-2.4 1.8c-45.3 34.9-78.8 84.6-97.6 138.2q-.6 1.6-1.1 3.2c-3.9 11.1-7.2 22.3-9.7 33.9q-.3 1.2-.6 2.5c-3.9 19.7-5.1 39.2-5 59.2v3.5c.2 30.9 3.2 61.4 13.6 90.8.8 2.9.9 4.2-.2 6.9-10.2-23.4-15.1-48.8-18-74-.1-1.2-.1-1.2-.3-2.5-2.8-28.4-2.1-58.4 3.3-86.5q.3-1.6.6-3.3c9.7-49.7 32.2-95.1 63.4-134.7q.6-.8 1.3-1.7c7-8.7 14.9-16.7 22.8-24.6q.7-.8 1.5-1.6c6.8-6.8 13.8-13.1 21.4-19.1l2-1.6c42.6-33.6 92.6-54 146-62.4l3.2-.6c11.4-1.8 22.8-1.7 34.3-1.7"/><path fill="#fdfdf5" d="M492.8 276.4c4.9 3.6 9.2 7.5 10.3 13.6.3 5.7-1.9 10.2-5 14.9-2.3 2.3-7.2 6.5-8.1 7.1-6.1 4.1-23 7.3-26.2 7.2-5-.2-9.5-2.1-13.8-5.2-1.3-.9-1.3-.9-2.6-1.7-4-3.8-6.1-7.3-7-12.7 1.1-7.1 5.1-13.1 10.6-17.6 12.5-8.1 27.8-13.9 41.8-5.6"/><path fill="#b9efe1" d="M545.3 437.9c-1.8-.3-49.3 1.5-53.4 1.2-1.4-.1-16.5-.2-18.6-.8-5-1.4-12.2-9.3-8.4-13.9 2.3-2.8 60.7-1.7 65.1-1.8 11.1-.2 21.2 0 31.8-.5.9-.1 1.8 0 2.7 0 10.6 0 21.2.1 31.8 1q1.3.1 2.7.2c4.6.4 7.8 1.1 11.6 3.9l-1 4c-9.7 2.4-17.4 3.9-27.3 4.4-2.6.1-33.3 2.9-37 2.3m95.6 143.9c3.1.2 3.1.2 5.1 2.2 1.7 13.6-2.9 26.6-10 38-10.1 12.6-23.9 19.4-39.8 21.7-22.4 2.1-22.4 2.1-28.9-3.1-1.3-1.6-1.3-1.6-1.2-4.6 1.1-3.6 1.8-4.1 4.9-6q3.5-1.1 7.1-1.9 2.2-.5 4.3-1 1.1-.3 2.3-.5c16.1-3.7 16.1-3.7 30.3-11.6l1.8-1.4c5.6-4.8 8.6-11.4 12-17.7 7.5-13.8 7.5-13.8 12.1-14.1"/><path fill="#b9efe1" d="M428.9 479.4c-3-.4-3-.4-4.8-2.6-.6-13.7 5-26.2 13-37 11-11.8 25.4-17.5 41.3-18.5 22.5-.4 22.5-.4 28.7 5.4 1.1 1.7 1.1 1.7.8 4.7-1.4 3.4-2.1 3.9-5.4 5.6q-3.6.7-7.3 1.3-2.1.3-4.3.7-1.2.1-2.3.3c-16.3 2.3-16.3 2.3-31.2 9.1-.9.6-.9.6-1.9 1.2-5.9 4.4-9.5 10.7-13.4 16.7-8.6 13.2-8.6 13.2-13.2 13.1"/><path fill="#deb56c" d="m165 443 4 2q-.6 2.6-1.2 5.3l-1 4.8q-1.5 6.7-3.1 13.3c-2.7 11.8-5 23.6-6.7 35.6h-1c.6-21 4.1-40.6 9-61"/><path fill="#ddb66c" d="M764 231c4.6 2.5 8.5 5.7 12.6 9q1 .9 2.1 1.7c5.3 4.4 10.5 9 15.6 13.7q4 3.8 8.1 7.4c3.6 3.3 7.2 6.7 10.6 10.2l-1 2q-1.1-1.1-2.2-2.3c-6.6-6.7-13.4-12.9-20.8-18.7q-1.7-1.4-3.4-2.7c-6.9-5.5-6.9-5.5-13.9-10.6q-1.5-1.1-3.1-2.1-1.3-.9-2.7-1.8-.9-.9-1.9-1.8z"/><path fill="#dab060" d="M785 249c3.8 1.3 6.1 2.7 8.8 5.7 2.7 2.8 5.4 5.4 8.3 7.9 3.8 3.3 7.4 6.8 10.9 10.4l-1 2q-1.1-1.1-2.2-2.3c-7.3-7.4-14.6-14.4-23.1-20.3q-.8-.7-1.7-1.4z"/></svg>